<?xml version="1.0" encoding="UTF-8"?>
<!DOCTYPE svg PUBLIC "-//W3C//DTD SVG 1.1//EN" "http://www.w3.org/Graphics/SVG/1.1/DTD/svg11.dtd">
<!-- Creator: CorelDRAW 2019 (64-Bit) -->
<svg xmlns="http://www.w3.org/2000/svg" xml:space="preserve" width="373px" height="417px" version="1.1" style="shape-rendering:geometricPrecision; text-rendering:geometricPrecision; image-rendering:optimizeQuality; fill-rule:evenodd; clip-rule:evenodd"
viewBox="0 0 1650.27 1843.94"
 xmlns:xlink="http://www.w3.org/1999/xlink">
 <defs>
  <style type="text/css">
   <![CDATA[
    .str0 {stroke:#FBAD3A;stroke-width:35.36;stroke-miterlimit:22.9256}
    .str1 {stroke:#FBAD3A;stroke-width:10.44;stroke-miterlimit:22.9256}
    .fil0 {fill:none}
    .fil1 {fill:#FBAD3A}
   ]]>
  </style>
 </defs>
 <g id="Слой_x0020_1">
  <metadata id="CorelCorpID_0Corel-Layer"/>
  <g id="_2429639278048">
   <path class="fil0 str0" d="M1418.47 1759.92c-77.1,48.34 -166.11,70.81 -260.41,65.62 -67.88,-4.49 -135.1,-19.79 -198.07,-48.29 -25.79,-11.52 -52.77,-24.84 -82.78,-30.98 -28.21,-7.32 -52.77,-24.85 -74.91,-46.57 -25.72,-27.14 -49.64,-55.48 -73.55,-83.81 -6.59,-6.03 -11.36,-13.26 -19.76,-18.11 -51.54,-30.85 -84.39,-76.65 -118.44,-124.25 -8.36,-12.65 -20.95,-19.91 -32.92,-30.18 -29.92,-29.56 -47.19,-67.48 -71.68,-100.63 -34.66,-44.6 -56.07,-100.56 -105.19,-135.61 -27.55,-18.13 -42.47,-44.63 -56.77,-74.13 -15.49,-31.31 -17.3,-30.11 -52.18,-20.04 -16.85,5.94 -33.08,8.87 -52.29,3.39 -41.4,-11.59 -70.68,-51.96 -69.29,-97.01 0.74,-34.25 0.74,-34.25 -33.47,-42.8 -31.21,-7.94 -61.8,-18.88 -80.3,-50.8 -20.3,-30.72 -28.59,-58.99 -2.03,-89.53 6.04,-6.58 10.88,-14.97 4.9,-24.01 -28.69,-35.56 -12.91,-74.55 -2.55,-109.96 4.88,-16.19 5.52,-27.01 -2.22,-42.66 -31.57,-67.42 -10.27,-133.42 38.53,-165.66 18.07,-11.95 21.72,-22.15 18.2,-43.19 -5.84,-40.27 5.13,-78.68 46.67,-98.33 39.73,-18.47 52.48,-50.25 56.25,-91.7 6.88,-64.25 43.7,-106.76 105.05,-123.93 18.04,-4.13 31.88,-10.68 40.37,-29.27 32.08,-57.54 92.85,-79.53 155.85,-58.84 10.2,3.65 20.4,7.29 28.79,12.14 8.39,4.84 15.01,3.06 22.85,-4.72 35.57,-28.69 75.88,-42.34 121.45,-20.53 11.39,5.46 22.82,3.1 34.85,-2.25 42.15,-22.66 85.4,-20.08 127.36,4.13 22.17,13.9 44.99,17 72.06,6.9 33.7,-11.88 67.91,-3.32 93.63,23.82 14.36,13.87 29.33,24.75 52.16,27.85 22.81,3.1 43.18,18.2 57.51,39.89 13.13,19.88 29.3,32.56 50.89,41.66 25.79,11.53 50.96,26.05 46.61,62.68 -2.45,12.01 8.36,12.65 15.56,15.69 48.6,14.61 61.15,29.68 65.16,78.97 1.74,14.43 8.9,25.27 17.88,34.92 38.82,54.83 31.98,111.28 -7.36,181.41 -2.42,4.2 -7.84,7.78 -6.07,14.39 19.62,49.35 34.44,99.28 67.91,142.07 30.46,42.18 53.7,89.14 70.33,137.87 4.16,10.23 6.52,21.66 13.1,27.7 49.61,63.28 64.29,144.45 101.86,213.1 60.22,110.79 75.94,232.82 89.85,356.04 5.2,51.09 -18.42,97.86 -36.05,145.85 -15.78,38.99 -42.34,69.51 -71.29,96.43 -35.56,28.69 -64.51,55.61 -106.05,75.27z"/>
   <path class="fil1 str1" d="M500.43 1179.97c-34.3,14.88 -34.3,14.88 -31.94,26.3 1.19,1.81 3.58,5.42 6.58,6.03 14.43,-1.73 24.07,-10.71 25.36,-32.33z"/>
   <path class="fil1 str1" d="M1363.93 1583.05c1.9,-24.62 -18.46,-39.72 -30.4,-57.79 -15.53,-23.5 -37.67,-45.22 -56.81,-66.32 -3.58,-5.43 -13.78,-9.08 -19.81,-2.49 -6.04,6.58 -4.26,13.2 2.32,19.23 23.3,31.34 47.22,59.68 70.52,91.02 8.97,9.65 17.94,19.29 34.18,16.35z"/>
   <path class="fil1 str1" d="M1385.38 1041.83c11.33,21.07 25.08,37.95 32.21,56.6 9.52,22.27 20.95,19.92 36.6,12.17 22.27,-9.52 24.11,-18.53 14.59,-40.79 -22.04,-45.15 -22.04,-45.15 -68.36,-32.73 -3,-0.61 -6.62,1.78 -15.04,4.75z"/>
   <path class="fil1 str1" d="M1122.64 1233.6c-27.1,17.91 -30.14,25.11 -5.61,50.45 10.17,11.45 19.14,21.1 33.53,27.17 10.2,3.64 21.01,4.29 27.66,-5.3 13.88,-14.36 12.17,-36.6 12.84,-55.22 0.68,-18.62 -17.39,-6.68 -28.2,-7.32 -3,-0.62 -10.2,-3.65 -11.4,-5.45 -5.9,-24.66 -17.39,-6.69 -28.82,-4.33z"/>
   <path class="fil1 str1" d="M1454.87 1382.76c-39.47,-44.02 -88.65,-63.44 -143.94,-60.67 -3,-0.61 -4.81,0.58 -9.62,1.16 -13.23,3.55 -18.07,11.95 -6.1,22.21 25.15,22.33 56.32,38.08 89.95,41.82 21.63,1.29 45.09,-6.42 69.71,-4.52z"/>
   <path class="fil1" d="M1276.36 672.48c-4.91,24.02 -35.63,44.32 -8.11,70.26 7.79,7.85 7.14,18.66 1.69,30.05 -20.56,31.76 -33.34,71.36 -70.07,90.43 -9.04,5.98 -18.07,11.95 -21.72,22.14 -4.26,13.2 -8.52,26.41 12.49,30.7 21.01,4.29 40.21,9.77 58.22,13.45 7.23,-4.77 5.46,-11.39 7.88,-15.58 17.07,-60.61 13.13,-125.52 44.6,-180.06 3.03,-7.2 0.64,-10.81 -2.94,-16.24 -5.94,-16.84 -13.69,-32.5 -22.04,-45.15z"/>
   <path class="fil1 str1" d="M1433.7 981.34c-33.38,-66.22 -65.55,-130.64 -100.12,-198.67 -6.65,9.58 -10.26,11.97 -9.68,16.78 -12.24,52.22 -10.65,105.7 -25.89,157.3 -1.83,9.01 1.75,14.43 5.33,19.85 22.69,34.34 41.9,39.82 79.2,25.56 18.04,-4.13 33.69,-11.88 51.16,-20.82z"/>
   <path class="fil1 str1" d="M1128.85 1769.54c-2.26,-34.86 0.29,-70.3 5.84,-105.12 3.1,-22.82 5,-47.44 8.1,-70.26 1.29,-21.62 -6.49,-29.46 -30.53,-26.56 -41.47,4.04 -49.32,11.82 -59.71,55.03 -9.2,45.02 -15.39,90.66 -23.39,137.49 29.4,9.13 61.8,18.87 99.69,9.42z"/>
   <path class="fil1 str1" d="M499.01 1232.84c-2.41,4.19 -4.83,8.38 -6.64,9.58 21.5,32.53 44.18,66.87 65.68,99.4 15.52,23.5 35.3,33.79 64.77,27.3 21.04,-3.52 43.86,-0.41 66.1,-2.13 22.24,-1.71 44.47,-3.42 66.71,-5.13 16.23,-2.94 25.88,-11.91 21.14,-26.95 -7.14,-18.65 3.12,-30.63 15.2,-43.8 15.07,-12.55 27.14,-25.72 44.63,-42.47 -115.99,9.14 -227.75,12.89 -337.59,-15.8z"/>
   <path class="fil1 str1" d="M1093.59 993.16c-18.65,7.13 -31.88,10.68 -46.92,15.43 -6.62,1.77 -12.04,5.35 -13.88,14.36 -16.46,57.61 -68.81,76.62 -116.93,90.24 -31.88,10.68 -63.16,18.36 -89.07,38.08 -28.92,19.11 -58.39,25.6 -92.63,24.85 -40.24,-1.96 -40.24,-1.96 -75.23,31.54 16.21,4.87 33.63,3.74 49.26,3.8 43.85,-0.41 88.33,-3.84 132.8,-7.26 78.14,-7.49 154.5,-21.59 228.53,-54.93 15.65,-7.75 23.49,-15.52 25.37,-32.34 3.77,-41.44 -8.69,-79.94 -1.3,-123.77z"/>
   <path class="fil1 str1" d="M1364.73 1097.01c-23.92,-28.33 -59.84,-59.12 -92.76,-89.3 -18.56,-16.3 -37.72,-29.59 -58.7,-41.7 -34.77,-21.16 -57.03,-11.64 -68.01,26.76 -11.61,49.22 -21.43,97.24 -16.23,148.33 1.72,22.24 10.65,39.7 37.09,40.41 26.43,0.71 47.41,12.81 61.12,37.5 7.75,15.65 22.75,18.72 37.8,13.97 27.08,-10.1 57.15,-19.59 83.04,-31.5 39.73,-18.45 47.63,-41.86 27.98,-83.39 0.61,-3.01 -2.97,-8.42 -11.33,-21.08z"/>
   <path class="fil1 str1" d="M982.09 1225.21c14.36,13.88 27.6,10.33 40.8,14.59 6,1.23 9.58,6.64 9.55,14.45 -0.03,7.82 -4.84,8.4 -11.46,10.17 -10.23,4.16 -19.81,-2.48 -30.63,-3.13 -54.05,-3.23 -106.95,3.16 -152.75,36.02 -29.53,22.11 -33.24,47.93 -3.29,69.68 28.76,19.94 55.09,44.09 80.23,66.42 35.93,30.79 74.27,57.38 116.22,81.58 54.55,31.47 87.66,14.79 106.51,-39.21 9.71,-24.59 13.42,-50.41 30.33,-71.97 15.11,-20.36 6.17,-37.82 -21.43,-48.15 -27.59,-10.33 -50.34,-29.04 -66.48,-49.54 -12.56,-15.07 -19.08,-36.73 -24.4,-56.57 -4.13,-18.05 19.91,-20.95 24.17,-34.15 1.84,-9 10.88,-14.98 8.52,-26.4 -31.88,10.68 -65.58,22.56 -105.89,36.21z"/>
   <path class="fil1 str1" d="M983.58 1738.3c22.47,-56.38 37.11,-112.8 42.76,-171.05 1.26,-13.81 -3.52,-21.04 -16.1,-28.31 -43.77,-23.01 -81.49,-52.6 -120.41,-84 -21.56,-16.92 -44.93,-32.63 -69.5,-50.16 -9.58,-6.64 -19.77,-10.29 -33.62,-3.74 -45.73,17.24 -93.79,15.24 -140.65,15.04 -7.81,-0.03 -19.2,-5.48 -24.66,5.91 -3.64,10.2 2.94,16.23 9.52,22.27 42.47,44.63 86.14,91.07 125,138.1 43.63,54.25 98.15,93.52 156.27,130.41 23.98,12.72 46.15,26.63 71.39,25.53z"/>
   <path class="fil1 str1" d="M1177.49 1776.35c14.39,6.07 30.62,3.13 43.24,2.58 52.29,-3.39 99.82,-21.82 144.36,-40.86 99.31,-42.25 167.5,-115.87 192.58,-223.3 10.39,-43.22 11.78,-88.28 3.54,-132.17 -12.29,-77.55 -25.2,-152.1 -50.73,-226.11 -2.97,-8.42 -1.71,-22.24 -17.33,-22.3 -20.43,0.52 -56,29.21 -57.29,50.83 -1.9,24.63 -16.97,37.18 -37.44,45.51 -39.73,18.46 -80.07,39.92 -125.73,41.54 -17.43,1.13 -34.28,7.07 -39.77,26.27 12.59,7.26 19.24,-2.32 25.85,-4.1 83.02,-23.69 162.89,-16.75 230.54,42.4 7.77,7.85 19.17,13.3 13.71,24.69 -13.32,26.99 -23.65,54.58 -60.31,58.03 -17.43,1.13 -34.86,2.26 -52.29,3.39 -26.43,-0.71 -52.22,-12.23 -81.04,-16.55 5.36,12.03 13.75,16.88 20.34,22.91 27.53,25.95 53.25,53.09 69.94,86.2 15.48,31.31 27.98,62 48.89,89.73 13.75,16.87 6.42,45.08 -12.81,47.41 -30.66,4.67 -63.19,26.17 -92.47,-14.2 -20.91,-27.73 -52.67,-48.28 -79.61,-69.43 -18.56,-16.29 -34.7,-36.79 -47.23,-59.67 -4.77,-7.23 -7.74,-15.65 -14.33,-21.69 -8.35,-12.64 -17.39,-6.68 -24.04,2.91 -4.84,8.39 -1.87,16.82 -1.9,24.62 -0.71,26.43 18.43,47.54 9.91,73.94 -15.88,62.42 -11.33,124.32 -8.58,187.42z"/>
   <path class="fil1" d="M818.52 824.4c-36.15,23.89 -72.26,39.96 -109.54,46.42 -11.42,2.35 -24.04,2.9 -34.85,2.25 -10.82,-0.64 -15.59,-7.87 -18.55,-16.29 -2.37,-11.43 4.87,-16.21 13.29,-19.18 10.23,-4.15 21.66,-6.52 33.08,-8.87 61.93,-12.36 112.51,-37.99 137.39,-98.56 5.45,-11.4 11.55,-33.6 30.14,-25.12 18.59,8.49 7.1,26.47 2.84,39.67 -4.35,36.63 -20.1,67.81 -53.8,79.68zm30.89 -350.13c13.13,19.87 5.13,66.7 -13.57,81.65 -28.91,19.1 -76.96,17.11 -93.68,-8.2 -14.95,-18.68 -2.68,-78.71 19,-93.04 20.5,-16.14 72.72,-3.92 88.25,19.59zm-43.99 31.66c-3.59,-5.43 -7.78,-7.84 -15.01,-3.07 -7.23,4.78 -14.46,9.55 -12.1,20.98 1.77,6.62 7.15,10.84 12.58,7.26 12.04,-5.36 13.88,-14.36 14.53,-25.17zm-96.93 -99.54c-3.61,2.39 -10.84,7.17 -17.45,8.95 -13.24,3.54 -22.83,-3.1 -21.57,-16.92 1.91,-24.62 45.9,-56.28 71.11,-49.57 12,2.46 14.97,10.87 8.32,20.46 -9.06,13.78 -25.33,24.53 -40.41,37.08zm-2.44 302.8c-5.43,3.58 -12.65,8.36 -19.27,10.14 -9.04,5.96 -19.85,5.31 -27.01,-5.53 -7.75,-15.65 3.67,-18.01 13.29,-19.17 18.04,-4.13 25.92,-19.71 31.98,-34.12 5.45,-11.39 12.69,-16.16 25.89,-11.9 14.39,6.07 4.13,18.04 2.29,27.04 -4.87,16.21 -14.53,25.18 -27.17,33.54zm-263.82 -132.07c5.4,4.24 4.17,10.24 -0.05,15.63 -16.92,21.56 -33.22,40.11 -45.93,64.09 -4.84,8.39 -14.46,9.56 -23.46,7.72 -10.2,-3.65 -13.17,-12.08 -11.33,-21.08 3.68,-18.01 47.73,-65.29 65.77,-69.42 6.62,-1.78 10.81,0.65 15,3.06zm-122.14 483.14c-20.92,-27.72 -36.41,-59.02 -17.66,-89.58 12.1,-20.98 1.94,-32.44 -7.61,-46.9 -41.22,-58.45 -78.82,-119.29 -94.15,-189.64 -2.36,-11.43 -6.52,-21.65 -15.49,-31.31 -19.72,-25.91 -24.98,-61.38 -16.47,-87.77 14.63,-48.61 23.25,-98.44 48.06,-143.4 17.56,-32.37 42.89,-56.9 61.65,-87.47 56.28,-99.49 140.67,-168.24 251.95,-200.23 172.63,-49.15 329.32,-20.27 470.04,94.46 28.14,22.95 54.51,39.28 92.95,42.44 57.06,3.84 74.9,46.57 45.86,96.92 -0.61,3.01 -3.65,10.2 -7.26,12.59 -6.04,6.58 -6.07,14.39 -1.9,24.62 29.17,63.81 5.48,126.2 -3.78,186.83 -8.61,49.84 -40.63,91.76 -60.64,136.14 -29.11,65.96 -79.16,112.02 -134,150.85 -67.48,47.18 -139.13,84.14 -219.71,103.63 -72.17,16.53 -143.11,27.05 -216.95,13.53 -18.01,-3.68 -48.05,-2 -44.96,-24.82 3.71,-25.82 31.31,-15.49 48.12,-13.62 69.06,6.29 139.98,3.58 206.75,-17.18 98.04,-28.42 186.54,-71.32 257.74,-144.32 71.19,-73.01 104.01,-164.8 122.44,-262.65 11.07,-61.84 1.71,-123.16 7.97,-184.42 0.67,-18.62 -10.72,-24.08 -24.53,-25.33 -45.02,-9.2 -77.33,-42.37 -114.48,-67.16 -53.31,-37.47 -110.87,-69.55 -175.09,-84.23 -108.63,-26.89 -210.23,-11.68 -307.75,37.18 -21.08,11.33 -44.55,19.04 -62.04,35.79 -3.61,2.4 -4.83,8.39 -2.45,12.01 2.39,3.61 6.58,6.04 11.4,5.45 6,1.23 12.61,-0.55 15.64,-7.74 12.75,-31.79 39.77,-26.27 65,-27.38 9.63,-1.15 22.86,-4.7 22.78,10.92 0.56,12.62 -2.5,27.63 -20.55,31.76 -11.42,2.35 -21.04,3.51 -30.66,4.68 -13.23,3.54 -19.27,10.13 -6.09,22.2 7.77,7.84 19.17,13.29 11.9,25.88 -7.26,12.59 -19.88,13.14 -31.27,7.69 -25.79,-11.53 -21.66,6.52 -24.72,21.52 -3.07,15.01 -0.16,39.05 -17.59,40.19 -17.43,1.12 -15.52,-23.5 -24.46,-40.96 -13.27,11.36 -17.53,24.56 -29.57,29.92 -12.04,5.36 -21.65,6.52 -19.78,-10.3 1.22,-6 2.45,-12 -4.75,-15.04 -1.8,1.2 -3,-0.61 -4.8,0.58 -1.81,1.2 -5.42,3.59 -6.04,6.58 -77.94,106.03 -87.43,221.34 -53.09,344.04 17.17,61.36 48.19,116.16 79.82,167.96 10.13,19.26 22.69,34.34 11.17,60.13 -12.11,20.97 3.45,36.66 26.27,39.75 4.81,-0.58 7.81,0.04 12.62,-0.54 12.62,-0.55 26.43,0.71 28.17,15.14 2.94,16.23 -10.9,22.78 -22.95,28.14 -17.46,8.94 -36.66,3.45 -57.09,3.97 9.56,14.46 7.69,31.27 17.85,42.72 51.42,62.1 52.61,63.9 122.48,20.33 18.07,-11.93 35.5,-13.06 52.86,1.43 1.2,1.81 3.59,5.42 6.59,6.03 22.75,18.72 48.58,22.43 75.62,20.14 24.04,-2.91 36.11,-16.07 45.21,-37.66 6.68,-17.4 24.11,-18.53 42.7,-10.04 46.77,23.62 93.69,8.19 129.26,-20.5 24.72,-21.52 46.37,-28.05 78.23,-30.91 46.28,-4.62 86.63,-26.09 95.85,-78.91 3.1,-22.82 16.94,-29.38 37.38,-29.89 28.23,-0.49 46.92,-15.43 67.41,-31.56 13.27,-11.37 15.72,-23.37 6.17,-37.83 -16.68,-33.12 -14.88,-34.31 18.81,-46.19 25.27,-8.91 46.35,-20.23 64.45,-39.98 13.88,-14.37 22.37,-32.96 9.81,-48.03 -30.49,-34.37 -14.16,-60.73 11.78,-88.27 3.62,-2.38 4.84,-8.39 8.45,-10.77 24.18,-34.15 24.79,-37.15 -5.12,-66.72 -16.75,-17.49 -12.49,-30.69 1.39,-45.05 4.22,-5.39 10.84,-7.17 13.26,-11.36 40.43,-44.9 45.5,-107.96 3.61,-147.78 -8.97,-9.65 -17.95,-19.3 -17.88,-34.92 -0.43,-43.87 -1.62,-45.67 -43.73,-30.83 -4.81,0.58 -8.43,2.97 -12.04,5.36 -12.04,5.35 -21.65,6.52 -31.82,-4.94 -8.36,-12.64 -3.52,-21.04 1.94,-32.43 27.2,-41.35 18.26,-58.8 -29.8,-60.81 -23.43,-0.09 -35.39,-10.36 -41.92,-32.01 -12.43,-46.31 -15.42,-46.93 -58.7,-41.69 -28.86,3.48 -34.25,-0.75 -47.36,-28.44 -14.26,-37.31 -26.26,-39.76 -59.99,-20.08 -34.34,22.7 -34.34,22.7 -67.26,-7.48 -34.72,-28.98 -73.74,-36.96 -111.7,-11.88 -28.92,19.11 -49.34,19.63 -75.1,0.3 -20.36,-15.1 -39.6,-12.79 -60.71,6.36 -25.33,24.52 -56.6,32.2 -90.17,12.84 -11.39,-5.45 -24.59,-9.71 -38.4,-10.97 -25.24,1.09 -55.29,2.77 -62.61,30.98 -9.18,37.21 -31.43,46.73 -65.71,53.81 -55.32,10.58 -95.85,78.91 -86.46,132.41 7.64,39.09 4.61,46.28 -32.09,57.55 -63.77,21.37 -78.32,54.35 -48.53,115.15 10.13,19.27 2.29,27.05 -12.17,36.6 -7.23,4.78 -18.04,4.13 -24.66,5.91 -29.46,6.49 -49.99,30.44 -49.51,58.67 -0.71,26.43 2.2,50.48 19.53,72.79 17.95,19.29 17.27,37.91 -0.84,57.67 -26.55,30.52 -24.81,44.95 3.3,75.71 14.94,18.68 13.68,32.5 -0.19,46.86 -4.24,5.39 -7.85,7.78 -12.08,13.17 -16.91,21.56 -15.19,43.79 7.56,62.51 18.55,16.3 40.15,25.4 64.77,27.31 16.81,1.86 31.83,4.93 47.41,12.81 11.4,5.45 19.17,13.29 11.3,28.88 -3.03,7.2 -7.26,12.59 -10.29,19.78 -7.95,31.21 19.49,80.59 46.53,78.31 21.62,1.29 46.25,3.19 67.36,-15.96zm215 -271.87c-30.73,20.3 -64.35,16.56 -82.26,-10.56 -19.11,-28.91 -10.5,-78.74 14.81,-95.46 25.3,-16.72 81.72,-2.07 96.63,24.43 13.14,19.88 -3.87,64.87 -29.18,81.59zm-15.4 -54.74c-5.96,-9.03 -13.77,-9.06 -22.19,-6.1 -12.04,5.36 -10.88,14.98 -6.72,25.2 2.97,8.44 11.97,10.27 17.4,6.69 9.03,-5.97 13.87,-14.36 11.51,-25.79z"/>
  </g>
 </g>
</svg>
