<?xml version="1.0" encoding="UTF-8"?>
<!DOCTYPE svg PUBLIC "-//W3C//DTD SVG 1.1//EN" "http://www.w3.org/Graphics/SVG/1.1/DTD/svg11.dtd">
<!-- Creator: CorelDRAW 2019 (64-Bit) -->
<svg xmlns="http://www.w3.org/2000/svg" xml:space="preserve" width="373px" height="417px" version="1.1" style="shape-rendering:geometricPrecision; text-rendering:geometricPrecision; image-rendering:optimizeQuality; fill-rule:evenodd; clip-rule:evenodd"
viewBox="0 0 84.65 94.58"
 xmlns:xlink="http://www.w3.org/1999/xlink">
 <defs>
  <style type="text/css">
   <![CDATA[
    .str0 {stroke:white;stroke-width:1.81;stroke-miterlimit:22.9256}
    .str1 {stroke:white;stroke-width:0.54;stroke-miterlimit:22.9256}
    .fil0 {fill:none}
    .fil1 {fill:white}
   ]]>
  </style>
 </defs>
 <g id="Слой_x0020_1">
  <metadata id="CorelCorpID_0Corel-Layer"/>
  <g id="_2429460695728">
   <path class="fil0 str0" d="M72.76 90.27c-3.96,2.48 -8.52,3.63 -13.36,3.37 -3.48,-0.23 -6.93,-1.02 -10.16,-2.48 -1.32,-0.59 -2.71,-1.27 -4.24,-1.59 -1.45,-0.37 -2.71,-1.27 -3.85,-2.39 -1.32,-1.39 -2.54,-2.84 -3.77,-4.3 -0.34,-0.31 -0.58,-0.68 -1.01,-0.92 -2.65,-1.59 -4.33,-3.94 -6.08,-6.38 -0.43,-0.65 -1.07,-1.02 -1.69,-1.55 -1.53,-1.51 -2.42,-3.46 -3.67,-5.16 -1.78,-2.28 -2.88,-5.16 -5.4,-6.95 -1.41,-0.93 -2.18,-2.29 -2.91,-3.81 -0.8,-1.6 -0.89,-1.54 -2.68,-1.02 -0.86,0.3 -1.69,0.45 -2.68,0.17 -2.12,-0.59 -3.63,-2.67 -3.55,-4.98 0.03,-1.75 0.03,-1.75 -1.72,-2.19 -1.6,-0.41 -3.17,-0.97 -4.12,-2.61 -1.04,-1.57 -1.47,-3.02 -0.1,-4.59 0.31,-0.34 0.55,-0.77 0.25,-1.23 -1.47,-1.82 -0.66,-3.82 -0.13,-5.64 0.25,-0.83 0.28,-1.39 -0.12,-2.19 -1.62,-3.46 -0.52,-6.84 1.98,-8.5 0.93,-0.61 1.11,-1.13 0.93,-2.21 -0.3,-2.07 0.27,-4.04 2.4,-5.05 2.03,-0.94 2.69,-2.57 2.88,-4.7 0.35,-3.29 2.24,-5.48 5.39,-6.36 0.93,-0.21 1.64,-0.54 2.07,-1.5 1.65,-2.95 4.76,-4.08 8,-3.02 0.52,0.19 1.04,0.38 1.47,0.63 0.43,0.25 0.77,0.15 1.17,-0.24 1.83,-1.48 3.9,-2.18 6.23,-1.06 0.59,0.28 1.17,0.16 1.79,-0.11 2.16,-1.17 4.38,-1.03 6.53,0.21 1.14,0.71 2.31,0.87 3.7,0.35 1.73,-0.61 3.48,-0.17 4.8,1.22 0.74,0.72 1.51,1.27 2.68,1.43 1.17,0.16 2.21,0.94 2.95,2.05 0.67,1.02 1.5,1.67 2.61,2.14 1.32,0.59 2.61,1.33 2.39,3.21 -0.13,0.62 0.43,0.65 0.8,0.81 2.49,0.75 3.13,1.52 3.34,4.05 0.09,0.74 0.46,1.29 0.92,1.79 1.99,2.81 1.64,5.71 -0.38,9.3 -0.12,0.22 -0.4,0.4 -0.31,0.74 1,2.53 1.76,5.09 3.48,7.29 1.56,2.16 2.76,4.57 3.61,7.07 0.21,0.52 0.33,1.11 0.67,1.42 2.55,3.25 3.3,7.41 5.23,10.93 3.08,5.68 3.89,11.94 4.6,18.26 0.27,2.62 -0.94,5.02 -1.84,7.48 -0.81,2 -2.18,3.57 -3.66,4.95 -1.83,1.47 -3.31,2.85 -5.44,3.86z"/>
   <g>
    <path class="fil1 str1" d="M65.47 34.49c-0.25,1.24 -1.83,2.28 -0.42,3.61 0.4,0.4 0.37,0.95 0.09,1.54 -1.05,1.63 -1.71,3.66 -3.59,4.64 -0.47,0.3 -0.93,0.61 -1.12,1.13 -0.22,0.68 -0.44,1.36 0.64,1.58 1.08,0.22 2.06,0.5 2.99,0.69 0.37,-0.25 0.28,-0.59 0.4,-0.8 0.88,-3.11 0.68,-6.44 2.29,-9.24 0.16,-0.37 0.03,-0.55 -0.15,-0.83 -0.3,-0.86 -0.7,-1.67 -1.13,-2.32z"/>
    <g>
     <path class="fil1 str1" d="M25.67 60.52c-1.76,0.77 -1.76,0.77 -1.64,1.35 0.06,0.1 0.18,0.28 0.34,0.31 0.74,-0.09 1.23,-0.55 1.3,-1.66z"/>
     <path class="fil1 str1" d="M69.96 81.2c0.1,-1.26 -0.95,-2.04 -1.56,-2.96 -0.79,-1.21 -1.93,-2.32 -2.91,-3.41 -0.19,-0.27 -0.71,-0.46 -1.02,-0.12 -0.31,0.33 -0.22,0.67 0.12,0.98 1.2,1.61 2.42,3.06 3.62,4.67 0.46,0.5 0.92,0.99 1.75,0.84z"/>
     <path class="fil1 str1" d="M71.06 53.44c0.58,1.08 1.29,1.95 1.65,2.9 0.49,1.14 1.08,1.02 1.88,0.63 1.14,-0.49 1.24,-0.95 0.75,-2.1 -1.13,-2.31 -1.13,-2.31 -3.51,-1.67 -0.15,-0.04 -0.34,0.09 -0.77,0.24z"/>
     <path class="fil1 str1" d="M57.58 63.28c-1.39,0.91 -1.54,1.28 -0.28,2.58 0.52,0.59 0.98,1.09 1.72,1.4 0.52,0.18 1.07,0.22 1.42,-0.27 0.71,-0.74 0.62,-1.88 0.65,-2.84 0.04,-0.95 -0.89,-0.34 -1.44,-0.37 -0.16,-0.03 -0.53,-0.19 -0.59,-0.28 -0.3,-1.27 -0.89,-0.35 -1.48,-0.22z"/>
     <path class="fil1 str1" d="M74.63 70.93c-2.03,-2.26 -4.55,-3.26 -7.39,-3.12 -0.15,-0.03 -0.24,0.03 -0.49,0.06 -0.68,0.19 -0.93,0.62 -0.31,1.14 1.29,1.15 2.89,1.96 4.61,2.15 1.11,0.06 2.31,-0.33 3.58,-0.23z"/>
     <path class="fil1 str1" d="M73.54 50.34c-1.71,-3.4 -3.36,-6.7 -5.14,-10.19 -0.34,0.49 -0.52,0.61 -0.49,0.86 -0.63,2.67 -0.55,5.42 -1.33,8.06 -0.09,0.47 0.09,0.74 0.27,1.02 1.17,1.76 2.15,2.05 4.07,1.31 0.92,-0.21 1.72,-0.61 2.62,-1.06z"/>
     <path class="fil1 str1" d="M57.9 90.77c-0.11,-1.79 0.02,-3.61 0.3,-5.4 0.16,-1.17 0.26,-2.43 0.42,-3.6 0.06,-1.11 -0.33,-1.51 -1.57,-1.36 -2.13,0.2 -2.53,0.6 -3.06,2.82 -0.47,2.31 -0.79,4.65 -1.2,7.05 1.51,0.47 3.17,0.97 5.11,0.49z"/>
     <path class="fil1 str1" d="M25.6 63.24c-0.13,0.21 -0.25,0.43 -0.34,0.49 1.1,1.67 2.26,3.43 3.36,5.1 0.8,1.2 1.82,1.73 3.33,1.4 1.08,-0.18 2.25,-0.02 3.39,-0.11 1.14,-0.09 2.28,-0.18 3.42,-0.27 0.83,-0.15 1.33,-0.61 1.08,-1.38 -0.36,-0.95 0.16,-1.57 0.78,-2.24 0.78,-0.65 1.4,-1.32 2.29,-2.18 -5.95,0.47 -11.68,0.66 -17.31,-0.81z"/>
     <path class="fil1 str1" d="M56.09 50.94c-0.95,0.37 -1.63,0.55 -2.4,0.79 -0.34,0.09 -0.62,0.28 -0.71,0.74 -0.85,2.96 -3.53,3.93 -6,4.63 -1.64,0.55 -3.24,0.94 -4.57,1.95 -1.48,0.98 -3,1.32 -4.75,1.28 -2.07,-0.1 -2.07,-0.1 -3.86,1.61 0.83,0.25 1.72,0.2 2.53,0.2 2.25,-0.02 4.53,-0.2 6.81,-0.37 4.01,-0.39 7.92,-1.11 11.72,-2.82 0.8,-0.4 1.2,-0.8 1.3,-1.66 0.19,-2.12 -0.44,-4.1 -0.07,-6.35z"/>
     <path class="fil1 str1" d="M70 56.27c-1.22,-1.45 -3.07,-3.03 -4.76,-4.58 -0.95,-0.84 -1.93,-1.52 -3.01,-2.14 -1.78,-1.09 -2.92,-0.6 -3.49,1.37 -0.59,2.53 -1.09,4.99 -0.83,7.61 0.09,1.14 0.55,2.04 1.9,2.07 1.36,0.04 2.44,0.66 3.14,1.93 0.4,0.8 1.17,0.96 1.94,0.71 1.39,-0.51 2.93,-1 4.26,-1.61 2.04,-0.95 2.44,-2.15 1.43,-4.28 0.03,-0.15 -0.15,-0.43 -0.58,-1.08z"/>
     <path class="fil1 str1" d="M50.38 62.84c0.73,0.72 1.41,0.53 2.09,0.75 0.31,0.07 0.49,0.34 0.49,0.74 0,0.41 -0.25,0.44 -0.59,0.53 -0.52,0.21 -1.02,-0.13 -1.57,-0.16 -2.77,-0.17 -5.49,0.16 -7.84,1.84 -1.51,1.14 -1.7,2.46 -0.17,3.58 1.48,1.02 2.83,2.26 4.12,3.4 1.84,1.58 3.81,2.95 5.96,4.19 2.8,1.61 4.5,0.76 5.46,-2.01 0.5,-1.26 0.69,-2.59 1.56,-3.69 0.78,-1.05 0.32,-1.94 -1.1,-2.47 -1.41,-0.53 -2.58,-1.49 -3.41,-2.54 -0.64,-0.78 -0.98,-1.89 -1.25,-2.91 -0.21,-0.92 1.02,-1.07 1.24,-1.75 0.09,-0.46 0.56,-0.77 0.44,-1.35 -1.64,0.55 -3.37,1.15 -5.43,1.85z"/>
     <path class="fil1 str1" d="M50.45 89.16c1.15,-2.89 1.91,-5.78 2.19,-8.77 0.07,-0.71 -0.18,-1.08 -0.82,-1.45 -2.25,-1.18 -4.18,-2.7 -6.18,-4.31 -1.1,-0.87 -2.3,-1.68 -3.56,-2.57 -0.49,-0.34 -1.02,-0.53 -1.73,-0.2 -2.34,0.89 -4.81,0.79 -7.21,0.78 -0.4,-0.01 -0.99,-0.29 -1.27,0.3 -0.18,0.52 0.15,0.83 0.49,1.14 2.18,2.29 4.42,4.67 6.41,7.08 2.24,2.79 5.04,4.8 8.02,6.69 1.23,0.66 2.37,1.37 3.66,1.31z"/>
     <path class="fil1 str1" d="M60.4 91.11c0.74,0.32 1.57,0.17 2.22,0.14 2.68,-0.18 5.12,-1.12 7.4,-2.1 5.09,-2.17 8.59,-5.94 9.88,-11.45 0.53,-2.22 0.6,-4.53 0.18,-6.78 -0.63,-3.98 -1.29,-7.8 -2.6,-11.6 -0.15,-0.43 -0.09,-1.14 -0.89,-1.14 -1.05,0.02 -2.87,1.49 -2.94,2.6 -0.1,1.27 -0.87,1.91 -1.92,2.34 -2.04,0.94 -4.11,2.05 -6.45,2.13 -0.89,0.06 -1.76,0.36 -2.04,1.35 0.65,0.37 0.99,-0.12 1.33,-0.21 4.26,-1.22 8.35,-0.86 11.82,2.17 0.4,0.4 0.99,0.68 0.71,1.27 -0.69,1.38 -1.22,2.8 -3.1,2.97 -0.89,0.06 -1.79,0.12 -2.68,0.18 -1.36,-0.04 -2.68,-0.63 -4.16,-0.85 0.28,0.62 0.71,0.86 1.05,1.17 1.41,1.33 2.73,2.73 3.58,4.43 0.8,1.6 1.44,3.18 2.51,4.6 0.71,0.86 0.33,2.31 -0.66,2.43 -1.57,0.24 -3.24,1.34 -4.74,-0.73 -1.07,-1.42 -2.7,-2.48 -4.08,-3.56 -0.95,-0.84 -1.78,-1.89 -2.42,-3.06 -0.25,-0.37 -0.4,-0.8 -0.74,-1.11 -0.43,-0.65 -0.89,-0.35 -1.23,0.15 -0.25,0.43 -0.1,0.86 -0.1,1.26 -0.04,1.35 0.94,2.44 0.51,3.79 -0.82,3.2 -0.58,6.38 -0.44,9.61z"/>
    </g>
   </g>
   <path class="fil1" d="M41.98 42.29c-1.85,1.22 -3.7,2.05 -5.61,2.38 -0.59,0.12 -1.24,0.15 -1.79,0.11 -0.56,-0.03 -0.8,-0.4 -0.95,-0.83 -0.12,-0.59 0.25,-0.83 0.68,-0.99 0.52,-0.21 1.11,-0.33 1.7,-0.45 3.17,-0.64 5.77,-1.95 7.04,-5.06 0.28,-0.58 0.6,-1.72 1.55,-1.29 0.95,0.44 0.36,1.36 0.14,2.04 -0.22,1.88 -1.03,3.48 -2.76,4.09zm1.59 -17.96c0.67,1.02 0.26,3.42 -0.7,4.18 -1.48,0.98 -3.94,0.88 -4.8,-0.42 -0.77,-0.95 -0.14,-4.03 0.97,-4.77 1.05,-0.83 3.73,-0.2 4.53,1.01zm-2.26 1.62c-0.18,-0.28 -0.4,-0.4 -0.77,-0.16 -0.37,0.25 -0.74,0.49 -0.62,1.08 0.09,0.34 0.37,0.56 0.65,0.37 0.62,-0.27 0.71,-0.74 0.74,-1.29zm-4.97 -5.1c-0.18,0.12 -0.55,0.36 -0.89,0.45 -0.68,0.19 -1.17,-0.16 -1.11,-0.86 0.1,-1.27 2.35,-2.89 3.65,-2.55 0.61,0.13 0.77,0.56 0.42,1.05 -0.46,0.71 -1.3,1.26 -2.07,1.91zm-0.12 15.53c-0.28,0.18 -0.65,0.43 -0.99,0.52 -0.47,0.3 -1.02,0.27 -1.39,-0.29 -0.4,-0.8 0.19,-0.92 0.68,-0.98 0.93,-0.21 1.33,-1.01 1.64,-1.75 0.28,-0.58 0.66,-0.83 1.33,-0.61 0.74,0.31 0.21,0.92 0.12,1.39 -0.25,0.83 -0.75,1.29 -1.39,1.72zm-13.54 -6.78c0.28,0.22 0.22,0.53 0,0.8 -0.87,1.11 -1.7,2.06 -2.35,3.29 -0.25,0.43 -0.75,0.49 -1.21,0.4 -0.52,-0.19 -0.67,-0.62 -0.58,-1.08 0.19,-0.93 2.45,-3.35 3.37,-3.56 0.34,-0.1 0.56,0.03 0.77,0.15zm-6.26 24.78c-1.07,-1.42 -1.87,-3.02 -0.91,-4.59 0.62,-1.08 0.1,-1.66 -0.39,-2.41 -2.11,-2.99 -4.04,-6.12 -4.83,-9.72 -0.12,-0.59 -0.33,-1.11 -0.79,-1.61 -1.01,-1.33 -1.28,-3.15 -0.85,-4.5 0.75,-2.5 1.2,-5.05 2.47,-7.36 0.9,-1.66 2.2,-2.92 3.16,-4.48 2.89,-5.11 7.22,-8.63 12.92,-10.27 8.86,-2.53 16.9,-1.04 24.11,4.84 1.45,1.18 2.8,2.02 4.77,2.18 2.93,0.19 3.84,2.39 2.35,4.97 -0.03,0.15 -0.18,0.52 -0.37,0.64 -0.31,0.34 -0.31,0.74 -0.1,1.27 1.5,3.27 0.29,6.47 -0.19,9.58 -0.44,2.56 -2.08,4.71 -3.11,6.98 -1.49,3.39 -4.06,5.75 -6.87,7.74 -3.46,2.42 -7.14,4.32 -11.27,5.32 -3.7,0.84 -7.34,1.38 -11.13,0.69 -0.92,-0.19 -2.47,-0.1 -2.31,-1.27 0.19,-1.33 1.61,-0.8 2.47,-0.7 3.54,0.32 7.18,0.18 10.61,-0.88 5.03,-1.46 9.56,-3.66 13.22,-7.4 3.65,-3.75 5.33,-8.46 6.28,-13.48 0.56,-3.17 0.08,-6.31 0.41,-9.46 0.03,-0.95 -0.55,-1.23 -1.26,-1.3 -2.31,-0.47 -3.97,-2.17 -5.87,-3.44 -2.74,-1.92 -5.69,-3.57 -8.98,-4.32 -5.58,-1.38 -10.79,-0.6 -15.79,1.91 -1.08,0.58 -2.29,0.97 -3.18,1.83 -0.19,0.12 -0.25,0.43 -0.13,0.62 0.12,0.18 0.34,0.31 0.59,0.28 0.3,0.06 0.64,-0.03 0.8,-0.4 0.65,-1.63 2.04,-1.35 3.33,-1.4 0.5,-0.06 1.17,-0.25 1.17,0.56 0.03,0.64 -0.13,1.41 -1.05,1.63 -0.59,0.12 -1.08,0.18 -1.58,0.24 -0.67,0.18 -0.98,0.52 -0.31,1.13 0.4,0.41 0.98,0.69 0.61,1.33 -0.37,0.65 -1.02,0.68 -1.6,0.4 -1.32,-0.6 -1.11,0.33 -1.27,1.1 -0.16,0.77 -0.01,2 -0.9,2.06 -0.9,0.06 -0.8,-1.2 -1.26,-2.1 -0.68,0.58 -0.9,1.26 -1.51,1.54 -0.62,0.27 -1.11,0.33 -1.02,-0.53 0.06,-0.31 0.13,-0.62 -0.24,-0.77 -0.09,0.06 -0.16,-0.04 -0.25,0.03 -0.09,0.06 -0.28,0.18 -0.31,0.33 -4,5.44 -4.48,11.36 -2.72,17.65 0.88,3.15 2.47,5.96 4.09,8.61 0.52,0.99 1.17,1.77 0.58,3.09 -0.62,1.07 0.17,1.88 1.34,2.04 0.25,-0.03 0.4,0 0.65,-0.03 0.65,-0.03 1.36,0.04 1.45,0.78 0.15,0.83 -0.56,1.17 -1.18,1.44 -0.9,0.46 -1.88,0.18 -2.93,0.2 0.49,0.75 0.4,1.61 0.92,2.2 2.63,3.18 2.69,3.27 6.28,1.04 0.93,-0.61 1.82,-0.67 2.71,0.07 0.06,0.09 0.18,0.28 0.34,0.31 1.16,0.96 2.49,1.15 3.88,1.03 1.23,-0.15 1.85,-0.82 2.32,-1.93 0.34,-0.89 1.23,-0.95 2.19,-0.51 2.39,1.21 4.8,0.42 6.63,-1.05 1.26,-1.11 2.37,-1.44 4.01,-1.59 2.37,-0.24 4.44,-1.34 4.92,-4.05 0.15,-1.17 0.86,-1.5 1.91,-1.53 1.45,-0.03 2.41,-0.79 3.46,-1.62 0.68,-0.58 0.81,-1.2 0.32,-1.94 -0.86,-1.7 -0.77,-1.76 0.96,-2.37 1.3,-0.46 2.38,-1.04 3.31,-2.05 0.71,-0.74 1.14,-1.69 0.5,-2.46 -1.56,-1.77 -0.73,-3.12 0.61,-4.53 0.18,-0.12 0.24,-0.43 0.43,-0.55 1.24,-1.76 1.27,-1.91 -0.26,-3.43 -0.86,-0.89 -0.64,-1.57 0.07,-2.31 0.21,-0.27 0.55,-0.36 0.68,-0.58 2.07,-2.3 2.33,-5.54 0.18,-7.58 -0.46,-0.49 -0.92,-0.99 -0.91,-1.79 -0.03,-2.25 -0.09,-2.34 -2.25,-1.58 -0.24,0.03 -0.43,0.15 -0.62,0.27 -0.61,0.28 -1.11,0.34 -1.63,-0.25 -0.43,-0.65 -0.18,-1.08 0.1,-1.66 1.4,-2.12 0.94,-3.02 -1.53,-3.12 -1.2,-0.01 -1.81,-0.53 -2.15,-1.65 -0.63,-2.37 -0.79,-2.4 -3.01,-2.13 -1.48,0.17 -1.75,-0.04 -2.43,-1.46 -0.73,-1.92 -1.34,-2.04 -3.07,-1.03 -1.77,1.16 -1.77,1.16 -3.45,-0.39 -1.79,-1.48 -3.79,-1.89 -5.73,-0.61 -1.49,0.98 -2.53,1.01 -3.86,0.02 -1.04,-0.77 -2.03,-0.66 -3.11,0.33 -1.3,1.25 -2.9,1.65 -4.62,0.65 -0.59,-0.27 -1.27,-0.49 -1.97,-0.56 -1.3,0.06 -2.84,0.14 -3.22,1.59 -0.47,1.91 -1.61,2.4 -3.37,2.76 -2.83,0.54 -4.91,4.05 -4.43,6.79 0.39,2.01 0.24,2.38 -1.65,2.96 -3.27,1.09 -4.01,2.78 -2.49,5.9 0.52,0.99 0.12,1.39 -0.62,1.88 -0.37,0.24 -0.93,0.21 -1.27,0.3 -1.51,0.33 -2.56,1.56 -2.54,3.01 -0.03,1.36 0.12,2.59 1.01,3.73 0.92,0.99 0.88,1.95 -0.05,2.96 -1.36,1.57 -1.27,2.31 0.17,3.89 0.77,0.96 0.7,1.66 -0.01,2.4 -0.21,0.28 -0.4,0.4 -0.62,0.68 -0.86,1.1 -0.78,2.24 0.39,3.2 0.95,0.84 2.06,1.31 3.32,1.4 0.87,0.1 1.64,0.26 2.44,0.66 0.58,0.28 0.98,0.68 0.58,1.48 -0.16,0.37 -0.38,0.65 -0.53,1.02 -0.41,1.6 1,4.13 2.38,4.01 1.11,0.07 2.38,0.17 3.46,-0.82zm11.03 -13.94c-1.58,1.04 -3.3,0.85 -4.22,-0.54 -0.98,-1.49 -0.54,-4.04 0.76,-4.9 1.29,-0.86 4.19,-0.11 4.95,1.25 0.68,1.02 -0.19,3.33 -1.49,4.19zm-0.79 -2.81c-0.31,-0.46 -0.71,-0.46 -1.14,-0.31 -0.62,0.27 -0.56,0.77 -0.35,1.29 0.16,0.43 0.62,0.53 0.9,0.34 0.46,-0.3 0.71,-0.73 0.59,-1.32z"/>
  </g>
 </g>
</svg>
