<?xml version="1.0" encoding="UTF-8"?>
<!DOCTYPE svg PUBLIC "-//W3C//DTD SVG 1.1//EN" "http://www.w3.org/Graphics/SVG/1.1/DTD/svg11.dtd">
<!-- Creator: CorelDRAW 2019 (64-Bit) -->
<svg xmlns="http://www.w3.org/2000/svg" xml:space="preserve" width="435px" height="435px" version="1.1" style="shape-rendering:geometricPrecision; text-rendering:geometricPrecision; image-rendering:optimizeQuality; fill-rule:evenodd; clip-rule:evenodd"
viewBox="0 0 246.93 246.93"
 xmlns:xlink="http://www.w3.org/1999/xlink">
 <defs>
  <style type="text/css">
   <![CDATA[
    .fil0 {fill:#FBAD3A}
   ]]>
  </style>
 </defs>
 <g id="Слой_x0020_1">
  <metadata id="CorelCorpID_0Corel-Layer"/>
  <g id="_1851665181264">
   <path class="fil0" d="M89.27 96.33c-1.39,0 -2.74,-0.67 -3.55,-1.9 -0.81,-1.24 -19.9,-30.75 -19.9,-57.14 0,-27.39 12.12,-29.86 14.55,-30.08 1.63,-0.14 3.18,0.64 4.01,2.02 0.83,1.38 0.76,3.1 -0.14,4.42 -0.8,1.16 -1.19,2.61 -1.19,4.45 0,9.96 26.53,37.58 43.26,52.65 1.16,1.04 1.63,2.63 1.22,4.12 -0.4,1.49 -1.62,2.63 -3.15,2.97 -2.8,0.69 -18.95,9.64 -32.95,17.89 -0.68,0.41 -1.42,0.6 -2.16,0.6zm-13.52 -72.66c-0.89,3.25 -1.51,7.67 -1.51,13.62 0,19.04 11.62,40.92 16.48,49.23 6.66,-3.89 17.8,-10.28 25.22,-13.97 -11.24,-10.51 -34.79,-33.78 -40.19,-48.88z"/>
   <path class="fil0" d="M157.66 96.33c-0.74,0 -1.48,-0.19 -2.16,-0.59 -14,-8.26 -30.15,-17.21 -32.96,-17.9 -1.53,-0.38 -2.77,-1.58 -3.13,-3.09 -0.34,-1.46 0.1,-3 1.22,-4.01l0 0c17.96,-16.14 43.24,-43.14 43.24,-52.64 0,-1.84 -0.38,-3.29 -1.18,-4.45 -0.91,-1.32 -0.97,-3.04 -0.14,-4.42 0.82,-1.38 2.39,-2.17 4,-2.02 2.44,0.22 14.56,2.68 14.56,30.08 0,26.39 -19.09,55.9 -19.91,57.14 -0.8,1.23 -2.15,1.9 -3.54,1.9zm-26.66 -23.77c7.43,3.69 18.55,10.07 25.21,13.96 4.86,-8.31 16.48,-30.19 16.48,-49.23 0,-5.94 -0.62,-10.36 -1.52,-13.61 -5.48,15.37 -29.71,39.14 -40.17,48.88z"/>
   <path class="fil0" d="M46.78 73.8c-5.21,-5.64 -11.22,-12.48 -11.22,-12.48 4.07,-8.13 9.63,-15.76 15.27,-22.35l0 0c0,0 -36.45,14.83 -50.83,29.66l0 178.3 78.85 0c-8.82,-34.28 -51.31,-159.47 -51.31,-159.47 8.02,-3.81 19.24,-13.66 19.24,-13.66z"/>
   <polygon class="fil0" points="111.19,43.97 135.74,43.97 135.74,33.97 111.19,33.97 "/>
   <path class="fil0" d="M163.31 34.19c-0.06,0 -0.12,0 -0.18,-0.01 -1.44,-0.05 -2.75,-0.84 -3.47,-2.07 -0.38,-0.47 -6.44,-7.28 -36.19,-7.28 -29.76,0 -35.82,6.81 -36.2,7.28 -0.72,1.23 -2.02,2.01 -3.47,2.07 -1.56,0.06 -2.95,-0.68 -3.75,-1.95 -3.64,-5.77 -5.41,-10.39 -5.41,-14.12 0,-18.11 21.44,-18.11 37.1,-18.11 1.86,0 3.77,0.01 5.7,0.02 3.96,0.02 8.09,0.02 12.06,0 1.92,-0.01 3.83,-0.02 5.69,-0.02 15.66,0 37.1,0 37.1,18.11 0,3.73 -1.77,8.36 -5.41,14.12 -0.77,1.22 -2.12,1.96 -3.57,1.96zm-39.84 -17.64c22.26,0 33.29,3.63 38.72,6.96 1.42,-2.9 1.68,-4.57 1.68,-5.41 0,-7.53 -6.69,-9.83 -28.68,-9.83 -1.85,0 -3.73,0.02 -5.65,0.03 -3.99,0.02 -8.16,0.02 -12.15,0 -1.92,-0.01 -3.81,-0.03 -5.65,-0.03 -21.99,0 -28.69,2.3 -28.69,9.83 0,0.84 0.27,2.51 1.68,5.41 5.44,-3.33 16.47,-6.96 38.74,-6.96z"/>
   <path class="fil0" d="M196.1 38.97l0 0c5.64,6.59 11.2,14.22 15.27,22.35 0,0 -6.01,6.84 -11.22,12.48 0,0 11.22,9.85 19.24,13.66 0,0 -14.84,43.73 -28.8,86.57l42.44 0 0 13.12 -46.7 0c-8.02,24.87 -15.17,47.84 -18.24,59.78l78.84 0 0 -178.3c-14.38,-14.83 -50.83,-29.66 -50.83,-29.66z"/>
   <path class="fil0" d="M197.35 76.89c-0.84,-0.74 -1.35,-1.77 -1.4,-2.87 -0.06,-1.1 0.33,-2.18 1.08,-3 3.37,-3.65 7.11,-7.84 9.29,-10.3 -5.72,-10.51 -13.93,-20.11 -21.09,-27.39 0.05,1.27 0.09,2.57 0.09,3.95 0,17.07 -7.54,35.23 -13.5,46.92 -3.81,58.4 -27.15,141.61 -33.26,162.73l24.89 0c9.4,-34.64 44.15,-137.74 50.83,-157.49 -7.83,-4.58 -16.52,-12.18 -16.93,-12.55z"/>
   <path class="fil0" d="M61.61 37.29c0,-1.39 0.04,-2.69 0.1,-3.96 -7.17,7.28 -15.38,16.88 -21.1,27.39 2.18,2.46 5.92,6.65 9.29,10.3 0.75,0.82 1.15,1.9 1.09,3 -0.06,1.1 -0.56,2.14 -1.4,2.87 -0.42,0.37 -9.11,7.97 -16.94,12.55 6.68,19.75 41.43,122.85 50.83,157.49l24.89 0c-6.11,-21.12 -29.45,-104.33 -33.26,-162.73 -5.96,-11.69 -13.5,-29.85 -13.5,-46.91z"/>
  </g>
 </g>
</svg>
