<?xml version="1.0" encoding="UTF-8"?>
<!DOCTYPE svg PUBLIC "-//W3C//DTD SVG 1.1//EN" "http://www.w3.org/Graphics/SVG/1.1/DTD/svg11.dtd">
<!-- Creator: CorelDRAW 2019 (64-Bit) -->
<svg xmlns="http://www.w3.org/2000/svg" xml:space="preserve" width="435px" height="435px" version="1.1" style="shape-rendering:geometricPrecision; text-rendering:geometricPrecision; image-rendering:optimizeQuality; fill-rule:evenodd; clip-rule:evenodd"
viewBox="0 0 76.6 76.6"
 xmlns:xlink="http://www.w3.org/1999/xlink">
 <defs>
  <style type="text/css">
   <![CDATA[
    .fil0 {fill:white}
   ]]>
  </style>
 </defs>
 <g id="Слой_x0020_1">
  <metadata id="CorelCorpID_0Corel-Layer"/>
  <g id="_1853233257840">
   <path class="fil0" d="M27.69 29.88c-0.43,0 -0.85,-0.21 -1.1,-0.59 -0.25,-0.38 -6.17,-9.54 -6.17,-17.72 0,-8.5 3.76,-9.27 4.51,-9.33 0.51,-0.05 0.99,0.19 1.24,0.62 0.26,0.43 0.24,0.96 -0.04,1.37 -0.25,0.36 -0.37,0.81 -0.37,1.39 0,3.08 8.23,11.65 13.42,16.33 0.36,0.32 0.51,0.81 0.38,1.27 -0.13,0.47 -0.5,0.82 -0.98,0.92 -0.87,0.22 -5.88,3 -10.22,5.56 -0.21,0.12 -0.44,0.18 -0.67,0.18zm-4.19 -22.54c-0.28,1.01 -0.47,2.38 -0.47,4.23 0,5.9 3.6,12.69 5.11,15.27 2.07,-1.21 5.52,-3.19 7.82,-4.33 -3.48,-3.26 -10.79,-10.48 -12.46,-15.17z"/>
   <path class="fil0" d="M48.91 29.88c-0.23,0 -0.46,-0.06 -0.67,-0.18 -4.35,-2.56 -9.36,-5.34 -10.23,-5.56 -0.47,-0.11 -0.86,-0.48 -0.97,-0.95 -0.11,-0.46 0.03,-0.93 0.38,-1.25l0 0c5.57,-5 13.41,-13.38 13.41,-16.32 0,-0.58 -0.12,-1.03 -0.36,-1.39 -0.29,-0.41 -0.3,-0.94 -0.05,-1.37 0.26,-0.42 0.74,-0.67 1.24,-0.62 0.76,0.06 4.52,0.83 4.52,9.33 0,8.18 -5.92,17.34 -6.17,17.72 -0.25,0.38 -0.67,0.59 -1.1,0.59zm-8.27 -7.37c2.3,1.14 5.75,3.12 7.82,4.33 1.5,-2.58 5.11,-9.37 5.11,-15.27 0,-1.85 -0.19,-3.21 -0.47,-4.22 -1.7,4.76 -9.22,12.14 -12.46,15.16z"/>
   <path class="fil0" d="M14.51 22.89c-1.61,-1.75 -3.48,-3.87 -3.48,-3.87 1.26,-2.52 2.99,-4.89 4.74,-6.93l0 0c0,0 -11.31,4.6 -15.77,9.2l0 55.31 24.46 0c-2.74,-10.64 -15.92,-49.47 -15.92,-49.47 2.49,-1.18 5.97,-4.24 5.97,-4.24z"/>
   <polygon class="fil0" points="34.49,13.64 42.11,13.64 42.11,10.54 34.49,10.54 "/>
   <path class="fil0" d="M50.66 10.61c-0.02,0 -0.04,-0.01 -0.06,-0.01 -0.45,-0.01 -0.85,-0.26 -1.07,-0.64 -0.12,-0.15 -2,-2.26 -11.23,-2.26 -9.23,0 -11.11,2.11 -11.23,2.26 -0.22,0.38 -0.63,0.62 -1.08,0.64 -0.48,0.02 -0.91,-0.21 -1.16,-0.6 -1.13,-1.79 -1.68,-3.22 -1.68,-4.38 0,-5.62 6.65,-5.62 11.51,-5.62 0.58,0 1.17,0 1.77,0.01 1.23,0 2.51,0 3.74,0 0.6,-0.01 1.19,-0.01 1.77,-0.01 4.85,0 11.5,0 11.5,5.62 0,1.16 -0.54,2.59 -1.67,4.38 -0.24,0.38 -0.66,0.61 -1.11,0.61zm-12.36 -5.48c6.9,0 10.33,1.13 12.01,2.16 0.44,-0.9 0.52,-1.41 0.52,-1.67 0,-2.34 -2.07,-3.05 -8.89,-3.05 -0.58,0 -1.16,0 -1.76,0 -1.24,0.01 -2.53,0.01 -3.77,0 -0.59,0 -1.18,0 -1.75,0 -6.82,0 -8.9,0.71 -8.9,3.05 0,0.26 0.09,0.77 0.52,1.67 1.69,-1.03 5.11,-2.16 12.02,-2.16z"/>
   <path class="fil0" d="M60.83 12.09l0 0c1.75,2.04 3.47,4.41 4.74,6.93 0,0 -1.87,2.12 -3.48,3.87 0,0 3.48,3.06 5.96,4.24 0,0 -4.6,13.56 -8.93,26.85l13.16 0 0 4.07 -14.48 0c-2.49,7.72 -4.71,14.84 -5.66,18.55l24.46 0 0 -55.31c-4.46,-4.6 -15.77,-9.2 -15.77,-9.2z"/>
   <path class="fil0" d="M61.22 23.85c-0.26,-0.23 -0.42,-0.55 -0.44,-0.89 -0.02,-0.34 0.1,-0.68 0.34,-0.93 1.04,-1.13 2.2,-2.43 2.88,-3.2 -1.77,-3.26 -4.32,-6.23 -6.54,-8.49 0.01,0.39 0.03,0.8 0.03,1.23 0,5.29 -2.34,10.92 -4.19,14.55 -1.18,18.11 -8.42,43.92 -10.32,50.48l7.72 0c2.92,-10.75 13.7,-42.73 15.77,-48.86 -2.43,-1.42 -5.13,-3.78 -5.25,-3.89z"/>
   <path class="fil0" d="M19.11 11.57c0,-0.43 0.01,-0.84 0.03,-1.23 -2.22,2.26 -4.77,5.24 -6.54,8.5 0.67,0.76 1.83,2.06 2.88,3.19 0.23,0.25 0.35,0.59 0.34,0.93 -0.02,0.34 -0.18,0.66 -0.44,0.89 -0.13,0.12 -2.82,2.47 -5.25,3.89 2.07,6.13 12.85,38.11 15.76,48.86l7.73 0c-1.9,-6.56 -9.14,-32.37 -10.32,-50.48 -1.85,-3.63 -4.19,-9.26 -4.19,-14.55z"/>
  </g>
 </g>
</svg>
