<?xml version="1.0" encoding="UTF-8"?>
<!DOCTYPE svg PUBLIC "-//W3C//DTD SVG 1.1//EN" "http://www.w3.org/Graphics/SVG/1.1/DTD/svg11.dtd">
<!-- Creator: CorelDRAW 2019 (64-Bit) -->
<svg xmlns="http://www.w3.org/2000/svg" xml:space="preserve" width="414px" height="461px" version="1.1" style="shape-rendering:geometricPrecision; text-rendering:geometricPrecision; image-rendering:optimizeQuality; fill-rule:evenodd; clip-rule:evenodd"
viewBox="0 0 212.33 236.5"
 xmlns:xlink="http://www.w3.org/1999/xlink">
 <defs>
  <style type="text/css">
   <![CDATA[
    .str0 {stroke:#FBAD3A;stroke-width:4.11;stroke-miterlimit:22.9256}
    .fil0 {fill:none}
    .fil1 {fill:#FBAD3A}
   ]]>
  </style>
 </defs>
 <g id="Слой_x0020_1">
  <metadata id="CorelCorpID_0Corel-Layer"/>
  <g id="_2430889420272">
   <path class="fil0 str0" d="M210.28 66.73c0,-0.11 -0.02,-0.22 -0.02,-0.33 -0.01,-0.1 -0.01,-0.19 -0.03,-0.29 -0.01,-0.12 -0.04,-0.23 -0.06,-0.34 -0.02,-0.09 -0.03,-0.19 -0.06,-0.28 -0.03,-0.1 -0.07,-0.2 -0.1,-0.3 -0.04,-0.1 -0.06,-0.2 -0.1,-0.29 -0.04,-0.09 -0.09,-0.17 -0.13,-0.26 -0.05,-0.1 -0.09,-0.2 -0.14,-0.3 -0.05,-0.07 -0.1,-0.13 -0.14,-0.2 -0.07,-0.11 -0.13,-0.21 -0.21,-0.31 -0.05,-0.06 -0.1,-0.12 -0.16,-0.18 -0.08,-0.1 -0.16,-0.2 -0.25,-0.29 -0.14,-0.14 -0.28,-0.27 -0.44,-0.39 -0.01,-0.01 -0.02,-0.02 -0.03,-0.02 -0.16,-0.13 -0.34,-0.25 -0.53,-0.36l-103.74 -59.9c-1.49,-0.85 -3.32,-0.85 -4.81,0.01l-94.81 55.1c-0.09,0.05 -0.17,0.12 -0.25,0.17 -0.1,0.06 -0.19,0.12 -0.28,0.18 -0.06,0.05 -0.11,0.11 -0.17,0.16 -0.1,0.08 -0.21,0.16 -0.3,0.26 -0.04,0.04 -0.08,0.1 -0.12,0.14 -0.1,0.11 -0.2,0.21 -0.29,0.33 -0.03,0.04 -0.06,0.09 -0.09,0.14 -0.09,0.12 -0.18,0.25 -0.25,0.38 -0.03,0.05 -0.05,0.11 -0.08,0.16 -0.07,0.13 -0.14,0.26 -0.2,0.39 -0.02,0.07 -0.04,0.14 -0.07,0.2 -0.04,0.13 -0.09,0.26 -0.13,0.39 -0.02,0.08 -0.03,0.16 -0.05,0.25 -0.03,0.12 -0.06,0.24 -0.07,0.36 -0.01,0.1 -0.01,0.2 -0.02,0.29 -0.01,0.11 -0.03,0.22 -0.03,0.33l-0.07 25.13c0,1.72 0.91,3.31 2.4,4.17l1.75 1.01 -0.23 82.29c-0.01,1.72 0.91,3.31 2.39,4.17l95.44 55.1c0.75,0.43 1.58,0.64 2.41,0.64 0.2,0 0.41,-0.01 0.62,-0.04 0.07,-0.01 0.13,-0.02 0.2,-0.04 0.14,-0.02 0.28,-0.04 0.41,-0.08 0.08,-0.02 0.16,-0.05 0.24,-0.08 0.12,-0.04 0.24,-0.07 0.35,-0.12 0.09,-0.04 0.18,-0.09 0.27,-0.13 0.1,-0.05 0.2,-0.09 0.3,-0.15 0,0 0,0 0,0 0.01,0 0.01,0 0.01,-0.01l94.83 -55.1c1.47,-0.85 2.38,-2.43 2.38,-4.13l0.22 -77.51 1.79 -1.03c1.47,-0.86 2.38,-2.43 2.38,-4.13l0.07 -25.13c0,-0.01 0,-0.01 0,-0.01 0,-0.01 0,-0.01 0,-0.02z"/>
   <polygon class="fil1" points="200.67,75.08 200.63,89.11 115.41,138.63 115.45,124.61 183.31,85.17 "/>
   <polygon class="fil1" points="105.83,138.69 11.65,84.32 11.69,70.23 105.87,124.61 "/>
   <polygon class="fil1" points="101.75,12.38 195.92,66.75 110.66,116.3 16.48,61.93 "/>
   <polygon class="fil1" points="15.78,97.77 101.65,147.34 101.44,221.37 15.57,171.79 "/>
   <path class="fil1" d="M196.24 171.79l-85.22 49.52 0.2 -69.58c0.07,-0.01 0.13,-0.03 0.2,-0.04 0.14,-0.03 0.27,-0.05 0.41,-0.08 0.08,-0.02 0.16,-0.06 0.24,-0.08 0.12,-0.04 0.24,-0.08 0.35,-0.12 0.09,-0.04 0.18,-0.09 0.27,-0.13 0.1,-0.05 0.2,-0.09 0.3,-0.15 0,0 0,0 0,-0.01 0.01,0 0.01,0 0.01,0l83.44 -48.49 -0.2 69.16z"/>
  </g>
 </g>
</svg>
