<?xml version="1.0" encoding="UTF-8"?>
<!DOCTYPE svg PUBLIC "-//W3C//DTD SVG 1.1//EN" "http://www.w3.org/Graphics/SVG/1.1/DTD/svg11.dtd">
<!-- Creator: CorelDRAW 2019 (64-Bit) -->
<svg xmlns="http://www.w3.org/2000/svg" xml:space="preserve" width="414px" height="461px" version="1.1" style="shape-rendering:geometricPrecision; text-rendering:geometricPrecision; image-rendering:optimizeQuality; fill-rule:evenodd; clip-rule:evenodd"
viewBox="0 0 70.02 77.98"
 xmlns:xlink="http://www.w3.org/1999/xlink">
 <defs>
  <style type="text/css">
   <![CDATA[
    .str0 {stroke:white;stroke-width:1.35;stroke-miterlimit:22.9256}
    .fil0 {fill:none}
    .fil1 {fill:white}
   ]]>
  </style>
 </defs>
 <g id="Слой_x0020_1">
  <metadata id="CorelCorpID_0Corel-Layer"/>
  <g id="_2429464759760">
   <path class="fil0 str0" d="M69.34 22.01c0,-0.04 -0.01,-0.08 -0.01,-0.12 0,-0.03 0,-0.06 -0.01,-0.09 0,-0.04 -0.01,-0.08 -0.02,-0.11 -0.01,-0.03 -0.01,-0.06 -0.02,-0.09 -0.01,-0.04 -0.02,-0.07 -0.03,-0.11 -0.01,-0.03 -0.02,-0.06 -0.03,-0.09 -0.02,-0.03 -0.03,-0.06 -0.05,-0.09 -0.01,-0.03 -0.03,-0.06 -0.04,-0.09 -0.02,-0.03 -0.04,-0.05 -0.05,-0.07 -0.02,-0.04 -0.04,-0.07 -0.07,-0.1 -0.01,-0.02 -0.03,-0.04 -0.05,-0.06 -0.03,-0.03 -0.05,-0.07 -0.08,-0.1 -0.05,-0.04 -0.1,-0.09 -0.15,-0.13 0,0 0,0 -0.01,0 -0.05,-0.05 -0.11,-0.09 -0.17,-0.12l-34.21 -19.75c-0.49,-0.28 -1.1,-0.28 -1.59,0l-31.26 18.17c-0.03,0.02 -0.06,0.04 -0.08,0.06 -0.03,0.01 -0.06,0.03 -0.09,0.06 -0.02,0.01 -0.04,0.03 -0.06,0.05 -0.03,0.02 -0.07,0.05 -0.1,0.08 -0.01,0.02 -0.03,0.03 -0.04,0.05 -0.03,0.03 -0.07,0.07 -0.09,0.11 -0.02,0.01 -0.02,0.03 -0.03,0.04 -0.03,0.04 -0.06,0.08 -0.09,0.13 -0.01,0.02 -0.01,0.03 -0.02,0.05 -0.03,0.04 -0.05,0.09 -0.07,0.13 -0.01,0.02 -0.01,0.05 -0.02,0.07 -0.02,0.04 -0.03,0.08 -0.04,0.12 -0.01,0.03 -0.02,0.06 -0.02,0.09 -0.01,0.04 -0.02,0.08 -0.03,0.12 0,0.03 0,0.06 0,0.09 0,0.04 -0.01,0.07 -0.01,0.11l-0.02 8.29c0,0.56 0.3,1.09 0.79,1.37l0.57 0.34 -0.07 27.13c0,0.57 0.3,1.09 0.79,1.37l31.47 18.17c0.24,0.15 0.52,0.22 0.79,0.22 0.07,0 0.14,-0.01 0.2,-0.02 0.03,0 0.05,-0.01 0.07,-0.01 0.05,-0.01 0.09,-0.02 0.14,-0.03 0.02,0 0.05,-0.02 0.08,-0.02 0.03,-0.02 0.07,-0.03 0.11,-0.04 0.03,-0.02 0.06,-0.03 0.09,-0.05 0.03,-0.01 0.07,-0.03 0.1,-0.05 0,0 0,0 0,0 0,0 0,0 0,0l31.27 -18.17c0.49,-0.28 0.79,-0.8 0.79,-1.36l0.07 -25.56 0.59 -0.34c0.48,-0.28 0.78,-0.8 0.78,-1.36l0.03 -8.29c0,0 0,0 0,0 0,0 0,0 0,0z"/>
   <polygon class="fil1" points="66.17,24.76 66.16,29.38 38.06,45.71 38.07,41.09 60.45,28.08 "/>
   <polygon class="fil1" points="34.9,45.73 3.84,27.8 3.86,23.16 34.91,41.09 "/>
   <polygon class="fil1" points="33.55,4.08 64.6,22.01 36.49,38.35 5.44,20.42 "/>
   <polygon class="fil1" points="5.2,32.24 33.52,48.59 33.45,72.99 5.13,56.65 "/>
   <path class="fil1" d="M64.71 56.65l-28.1 16.33 0.06 -22.95c0.03,0 0.05,-0.01 0.07,-0.01 0.05,-0.01 0.09,-0.02 0.13,-0.03 0.03,-0.01 0.06,-0.02 0.08,-0.03 0.04,-0.01 0.08,-0.02 0.12,-0.04 0.03,-0.01 0.06,-0.02 0.09,-0.04 0.03,-0.01 0.06,-0.03 0.1,-0.05 0,0 0,0 0,0 0,0 0,0 0,0l27.51 -15.99 -0.06 22.81z"/>
  </g>
 </g>
</svg>
