<?xml version="1.0" encoding="UTF-8"?>
<!DOCTYPE svg PUBLIC "-//W3C//DTD SVG 1.1//EN" "http://www.w3.org/Graphics/SVG/1.1/DTD/svg11.dtd">
<!-- Creator: CorelDRAW 2019 (64-Bit) -->
<svg xmlns="http://www.w3.org/2000/svg" xml:space="preserve" width="480px" height="450px" version="1.1" style="shape-rendering:geometricPrecision; text-rendering:geometricPrecision; image-rendering:optimizeQuality; fill-rule:evenodd; clip-rule:evenodd"
viewBox="0 0 387.63 363.4"
 xmlns:xlink="http://www.w3.org/1999/xlink">
 <defs>
  <style type="text/css">
   <![CDATA[
    .fil0 {fill:#FBAD3A}
   ]]>
  </style>
 </defs>
 <g id="Слой_x0020_1">
  <metadata id="CorelCorpID_0Corel-Layer"/>
  <g id="_2430889220352">
   <path class="fil0" d="M165.65 0c0,10.94 0,22.74 0,32.31 6.7,0 13.41,0 20.12,0l0 8.21c-85.16,4.2 -152.91,74.79 -152.91,161.31 0,41.7 15.78,79.77 41.62,108.43l-20.62 20.7c-3.06,2.99 -3.08,8.53 -0.05,11.54 3.04,3.01 8.55,2.92 11.49,-0.18l20.62 -20.7c28.55,25.9 66.38,41.78 107.89,41.78 41.51,0 79.35,-15.88 107.89,-41.78l20.62 20.7c2.95,3.1 8.46,3.19 11.5,0.18 3.03,-3.01 3.01,-8.55 -0.05,-11.54l-20.62 -20.7c25.83,-28.66 41.62,-66.73 41.62,-108.43 0,-86.52 -67.75,-157.11 -152.91,-161.31l0 -8.21c6.71,0 13.41,0 20.12,0 0,-10.94 0,-22.74 0,-32.31 -19.28,0 -39.65,0 -56.33,0l0 0zm-98.84 15.4c-16,-0.36 -32.3,6.04 -46.52,20.32 -28.46,28.56 -25.61,65.68 0,91.39l91.04 -91.39c-12.81,-12.85 -28.51,-19.96 -44.52,-20.32l0 0zm254.01 0c-16.01,0.36 -31.71,7.47 -44.52,20.32l91.04 91.39c25.61,-25.71 28.45,-62.83 0,-91.39 -14.23,-14.28 -30.52,-20.68 -46.52,-20.32zm-135.05 37.11l16.09 0 0 16.16 -16.09 0 0 -16.16zm-62.88 17.92l8.05 14.01 -7.04 4.04 -8.05 -14.01 7.04 -4.04zm141.84 0l7.04 4.04 -8.04 14.01 -7.04 -4.04 8.04 -14.01zm-78.96 22.47l16.09 0 0 86.46c7.08,3.13 12.07,10.17 12.07,18.43 0,2.28 -0.44,4.4 -1.13,6.44l73.69 42.67 -4.03 6.94 -73.68 -42.67c-5.8,5.04 -10.26,6.94 -17.23,6.69l-27.03 46.96 -13.84 -8.08 27.04 -46.95c-2.51,-3.37 -4.03,-7.47 -4.03,-12 0,-8.26 5,-15.3 12.08,-18.42l0 -86.47 0 0zm-118.83 30.8l13.83 8.08 -4.02 6.94 -13.84 -8.08 4.03 -6.94zm253.75 0l4.02 6.94 -13.83 8.08 -4.02 -6.94 13.83 -8.08zm-275.76 70.18l16.1 0 0 16.16 -16.1 0 0 -16.16zm281.67 0l16.1 0 0 16.16 -16.1 0 0 -16.16zm-249.85 71.19l4.02 6.94 -13.83 8.08 -4.03 -6.94 13.84 -8.08zm234.13 0l13.83 8.08 -4.02 6.94 -13.83 -8.08 4.02 -6.94zm-186.98 50.24l7.04 4.04 -8.05 14.01 -7.04 -4.04 8.05 -14.01zm139.83 0l8.05 14.01 -7.05 4.04 -8.04 -14.01 7.04 -4.04zm-77.96 19.94l16.09 0 0 16.16 -16.09 0 0 -16.16z" display="inline"/>
  </g>
 </g>
</svg>
