<?xml version="1.0" encoding="UTF-8"?>
<!DOCTYPE svg PUBLIC "-//W3C//DTD SVG 1.1//EN" "http://www.w3.org/Graphics/SVG/1.1/DTD/svg11.dtd">
<!-- Creator: CorelDRAW 2019 (64-Bit) -->
<svg xmlns="http://www.w3.org/2000/svg" xml:space="preserve" width="480px" height="450px" version="1.1" style="shape-rendering:geometricPrecision; text-rendering:geometricPrecision; image-rendering:optimizeQuality; fill-rule:evenodd; clip-rule:evenodd"
viewBox="0 0 94.06 88.18"
 xmlns:xlink="http://www.w3.org/1999/xlink">
 <defs>
  <style type="text/css">
   <![CDATA[
    .fil0 {fill:white}
   ]]>
  </style>
 </defs>
 <g id="Слой_x0020_1">
  <metadata id="CorelCorpID_0Corel-Layer"/>
  <g id="_2429524410304">
   <path class="fil0" d="M40.2 0c0,2.65 0,5.52 0,7.84 1.62,0 3.25,0 4.88,0l0 1.99c-20.67,1.02 -37.11,18.15 -37.11,39.15 0,10.12 3.83,19.35 10.1,26.31l-5 5.02c-0.74,0.72 -0.75,2.07 -0.01,2.8 0.73,0.73 2.07,0.71 2.79,-0.04l5 -5.03c6.93,6.29 16.11,10.14 26.18,10.14 10.07,0 19.25,-3.85 26.18,-10.14l5 5.03c0.72,0.75 2.06,0.77 2.79,0.04 0.74,-0.73 0.73,-2.08 -0.01,-2.8l-5 -5.02c6.27,-6.96 10.1,-16.19 10.1,-26.31 0,-21 -16.44,-38.13 -37.11,-39.15l0 -1.99c1.63,0 3.26,0 4.89,0 0,-2.65 0,-5.52 0,-7.84 -4.68,0 -9.63,0 -13.67,0l0 0zm-23.99 3.74c-3.88,-0.09 -7.84,1.46 -11.29,4.93 -6.9,6.93 -6.21,15.94 0,22.17l22.09 -22.17c-3.1,-3.12 -6.91,-4.85 -10.8,-4.93l0 0zm61.64 0c-3.89,0.08 -7.7,1.81 -10.8,4.93l22.09 22.17c6.21,-6.23 6.9,-15.24 0,-22.17 -3.45,-3.47 -7.41,-5.02 -11.29,-4.93zm-32.77 9l3.9 0 0 3.92 -3.9 0 0 -3.92zm-15.26 4.35l1.95 3.4 -1.7 0.98 -1.96 -3.4 1.71 -0.98zm34.42 0l1.71 0.98 -1.95 3.4 -1.71 -0.98 1.95 -3.4zm-19.16 5.45l3.9 0 0 20.98c1.72,0.76 2.93,2.47 2.93,4.48 0,0.55 -0.1,1.06 -0.27,1.56l17.88 10.35 -0.98 1.69 -17.88 -10.36c-1.4,1.23 -2.49,1.69 -4.18,1.63l-6.56 11.39 -3.36 -1.96 6.56 -11.39c-0.6,-0.82 -0.97,-1.81 -0.97,-2.91 0,-2.01 1.21,-3.72 2.93,-4.48l0 -20.98 0 0zm-28.84 7.48l3.36 1.96 -0.98 1.68 -3.35 -1.96 0.97 -1.68zm61.58 0l0.97 1.68 -3.35 1.96 -0.98 -1.68 3.36 -1.96zm-66.92 17.03l3.91 0 0 3.92 -3.91 0 0 -3.92zm68.35 0l3.91 0 0 3.92 -3.91 0 0 -3.92zm-60.63 17.27l0.98 1.69 -3.36 1.96 -0.97 -1.69 3.35 -1.96zm56.82 0l3.35 1.96 -0.97 1.69 -3.36 -1.96 0.98 -1.69zm-45.37 12.19l1.7 0.98 -1.95 3.4 -1.71 -0.98 1.96 -3.4zm33.93 0l1.95 3.4 -1.71 0.98 -1.95 -3.4 1.71 -0.98zm-18.92 4.84l3.9 0 0 3.92 -3.9 0 0 -3.92z" display="inline"/>
  </g>
 </g>
</svg>
