<?xml version="1.0" encoding="UTF-8"?>
<!DOCTYPE svg PUBLIC "-//W3C//DTD SVG 1.1//EN" "http://www.w3.org/Graphics/SVG/1.1/DTD/svg11.dtd">
<!-- Creator: CorelDRAW 2019 (64-Bit) -->
<svg xmlns="http://www.w3.org/2000/svg" xml:space="preserve" width="534px" height="440px" version="1.1" style="shape-rendering:geometricPrecision; text-rendering:geometricPrecision; image-rendering:optimizeQuality; fill-rule:evenodd; clip-rule:evenodd"
viewBox="0 0 111.85 92.18"
 xmlns:xlink="http://www.w3.org/1999/xlink">
 <defs>
  <style type="text/css">
   <![CDATA[
    .fil0 {fill:white}
   ]]>
  </style>
 </defs>
 <g id="Слой_x0020_1">
  <metadata id="CorelCorpID_0Corel-Layer"/>
  <path class="fil0" d="M101.2 50.42c1.49,-0.05 2.37,-0.24 3.32,-0.99 0.66,-0.51 1.5,-1.47 1.71,-2.58 2.23,-0.34 4.16,-2.58 4.22,-5.11 0.03,-1.56 0,-3.07 0,-4.57 0,-7.76 0.05,-15.5 0,-23.31 -0.04,-4.87 -0.07,-6.53 -2.79,-10.02 -0.68,-0.88 -2.17,-2.08 -3.29,-2.62 -2.88,-1.37 -4.69,-1.16 -8.14,-1.16 -3.14,0 -6.27,0 -9.41,0 -3.08,0 -5.81,-0.28 -8.51,0.79 -2.26,0.9 -3.97,2.52 -5.11,4.29 -1.47,2.28 -1.81,4.31 -1.81,7.51l0 28.15c0,1.64 0.08,2.55 0.87,3.75 0.69,1.06 1.65,1.83 3.02,2.22 0.58,0.16 0.2,0.11 0.71,1.09 0.27,0.52 0.68,1.04 1.02,1.33 0.94,0.8 1.86,1.21 3.49,1.23 1.62,0.02 20.7,0 20.7,0zm-9.47 -40.17l-0.01 11.72 10.89 0c1.32,0 2.35,0.19 3.11,-0.56 0.73,-0.72 0.6,-1.85 0.6,-3.12l0 -5.91c0,-1.2 -0.86,-2.1 -2.03,-2.13 -2.49,-0.07 -5.87,0 -8.47,0l-4.09 0zm-16.22 2.2l0 7.26c0,1.56 0.96,2.29 2.44,2.29l12.14 -0.04 0.03 -11.71c-4.01,0.09 -8.56,-0.09 -12.57,0 -1.21,0.03 -2.04,0.98 -2.04,2.2zm16.68 18.63l-14.98 0c-1.65,-0.01 -1.31,0.23 -1.32,3.67 0,1.07 -0.01,1.39 1.12,1.39l16.8 0c0.31,0 0.52,0.02 0.69,0.02 1.22,-0.08 4.46,-0.02 5.76,-0.02 1.09,0 2.19,0 3.29,0 2.81,0 2.4,0.58 2.4,-4.34 0,-0.63 -0.46,-0.73 -1.06,-0.72l-12.7 0zm-15.94 4.56c0.23,0.3 0.57,0.21 0.96,0.2l27.9 0c0.73,0 0.55,-0.52 0.55,-1.62 0,-0.72 0,-1.44 0,-2.15 0,-0.5 -0.04,-0.7 -0.57,-0.7l-15.72 0.01c-1.35,-0.09 -5.18,-0.01 -6.71,-0.01 -1.8,0 -3.59,0 -5.38,0 -1.26,0 -1.1,-0.1 -1.1,1.64 0,0.54 -0.1,2.28 0.07,2.63zm20.46 3.53c-1.04,0.28 -0.93,1.17 -0.93,2.3 0,3.49 -0.23,3.48 2.93,3.48 0.63,0 2.73,0.08 3.17,-0.04 0.38,-0.09 0.73,-0.4 0.86,-0.75 0.15,-0.41 0.08,-1.08 0.08,-1.55 0,-0.77 0.17,-2.47 -0.24,-2.99 -0.56,-0.71 -1.64,-0.49 -2.73,-0.49 -0.67,0 -2.65,-0.08 -3.14,0.04zm-17.68 1.12l0 3.45 0.02 0.29c0.08,0.11 0.12,0.35 0.35,0.57 0.23,0.23 0.41,0.2 0.65,0.36l2.25 -0.01 0.39 0c1.37,-0.03 3.04,0.37 3.33,-0.98 0.13,-0.58 0.1,-3.76 -0.12,-4.2 -0.48,-0.94 -2.24,-0.64 -3.58,-0.64 -1.36,0 -3.17,-0.37 -3.29,1.16zm24.27 -8.31c-2.3,0.41 -1.57,3.62 0.52,3.26 2.12,-0.38 1.56,-3.63 -0.52,-3.26zm-21.09 0c-2.22,0.46 -1.51,3.69 0.64,3.24 2.08,-0.44 1.42,-3.66 -0.64,-3.24zm-4.21 0.02c-0.84,0.19 -1.54,0.93 -1.3,1.99 0.18,0.77 1.04,1.48 2.04,1.21 2.1,-0.59 1.23,-3.65 -0.74,-3.2zm21.03 0c-2.28,0.56 -1.34,3.73 0.74,3.21 0.8,-0.21 1.41,-1.06 1.17,-2.02 -0.19,-0.74 -0.97,-1.42 -1.91,-1.19zm-10.54 46.53c-6.25,1.92 -6.95,10.03 -1.12,12.9 1.17,0.59 1.68,0.68 3.33,0.68 2.22,0 3.55,-0.48 5.08,-1.82 2.17,-1.92 2.85,-5.2 1.63,-7.95 -1.41,-3.21 -5.39,-4.88 -8.92,-3.81zm-65.72 -0.03c-1.61,0.54 -3.36,1.99 -4.23,3.53 -0.66,1.16 -0.76,1.58 -0.76,3.16 0,1.58 0.1,2.01 0.73,3.13 2.38,4.3 8.31,5.18 11.89,1.78 3.55,-3.41 2.45,-9.22 -2.17,-11.26 -1.53,-0.68 -3.98,-0.82 -5.46,-0.34zm54.32 -15.19c3.5,0.56 9.41,3.01 10.23,4.25 0.44,0.68 0.3,1.46 -0.38,1.83 -0.61,0.31 -5.04,0.7 -10.53,0.9 -3.87,0.12 -4.55,0.09 -4.45,-0.2 0.07,-0.19 0.34,-1.17 0.63,-2.16 1.53,-5.4 1.41,-5.11 2.14,-4.98 0.37,0.04 1.44,0.21 2.36,0.36zm-4.98 -0.32c0,0.13 -0.46,1.85 -1.02,3.87l-1.02 3.67 -3.43 0.17c-1.87,0.07 -6.49,0.15 -10.26,0.15l-6.85 0 0 -0.81c0.02,-0.41 -0.1,-1.07 -0.22,-1.43 -0.25,-0.58 -0.2,-0.73 0.63,-1.43 1.85,-1.63 6.66,-3.43 10.55,-3.97 2.65,-0.36 11.62,-0.51 11.62,-0.22zm-9.85 -1.63c-6.51,0.56 -10.4,1.8 -17.04,5.5 -3.3,1.84 -4.64,2.21 -10.93,3.13 -9.44,1.36 -17.77,3.24 -20.67,4.67 -1.43,0.71 -2.43,1.97 -3.28,4.21 -0.82,2.16 -0.53,6.95 0.49,7.87 0.44,0.39 3.04,1.12 4.06,1.12l0.7 0 0 -2.51c0,-2.16 0.08,-2.65 0.63,-3.84 1.75,-3.72 5.28,-5.73 9.61,-5.52 1.6,0.08 2.28,0.25 3.55,0.88 4.18,2.07 6.36,6.64 5.15,10.82 -0.12,0.41 0.87,0.43 23.33,0.36l23.48 -0.07 -0.14 -0.73c-0.34,-1.41 -0.15,-3.86 0.39,-5.3 0.75,-1.97 2.74,-4.08 4.83,-5.08 3.8,-1.82 8.63,-0.92 11.43,2.12 1.63,1.77 2.28,3.33 2.4,5.76 0.05,1.19 0.17,2.14 0.27,2.14 0.97,0 7.88,-1.05 9.02,-1.37 2.19,-0.6 2.31,-0.87 2.31,-5.2 -0.02,-3.52 -0.44,-6.54 -1.24,-9.06 -0.44,-1.32 -0.29,-1.27 -4.23,-1.63 -8.53,-0.83 -8.46,-0.8 -12.95,-2.94 -7.73,-3.7 -11.33,-4.82 -17.07,-5.3 -3.25,-0.29 -10.74,-0.29 -14.1,-0.03zm-10.66 -55.61c-0.22,-0.13 -0.83,-0.42 -1.34,-0.63l-0.95 -0.38 -4.58 0.76 -4.59 0.77 -0.37 -0.41c-0.2,-0.25 -0.98,-0.9 -1.7,-1.45 -1.26,-0.95 -1.37,-1.02 -1.81,-0.9 -0.52,0.13 -1.41,1.19 -1.4,1.69 0,0.49 0.27,0.97 0.76,1.34 0.24,0.19 0.41,0.37 0.38,0.42 -0.06,0.05 -1.6,0.33 -3.45,0.62 -3.36,0.54 -3.36,0.54 -3.62,0.11 -0.15,-0.25 -0.83,-0.86 -1.63,-1.45 -1.3,-0.97 -1.39,-1.01 -1.87,-0.91 -0.4,0.08 -0.65,0.26 -1,0.72 -0.65,0.86 -0.56,1.49 0.31,2.16l0.64 0.48 -3.6 0.58 -3.61 0.57 -2.28 -1.73c-1.27,-0.97 -3.63,-2.66 -5.23,-3.77 -2.43,-1.72 -3.22,-2.2 -4.65,-2.85 -2.51,-1.15 -4.17,-1.63 -5.02,-1.46 -0.81,0.18 -0.9,0.27 -0.98,1.05 -0.08,0.79 0.62,2.1 2.08,3.93 1.58,1.98 2.89,3.17 7.77,7l4.23 3.35 0.43 3.65 0.43 3.65 -0.67 -0.45c-0.97,-0.64 -1.47,-0.57 -2.17,0.34 -0.77,1.02 -0.73,1.25 0.48,2.32 0.68,0.62 1.28,1.03 1.89,1.3l0.89 0.42 0.42 3.47 0.42 3.47 -0.71 -0.4c-0.91,-0.54 -1.57,-0.41 -2.17,0.38 -0.35,0.45 -0.41,0.67 -0.34,1.22l0.1 0.66 1.43 0.98c0.79,0.55 1.58,1.05 1.76,1.1 0.27,0.09 0.39,0.79 0.78,4.45 0.25,2.39 0.55,4.5 0.68,4.72 0.63,1.02 1.21,1.59 2.78,2.77 1.86,1.37 3.18,2.04 3.49,1.76 0.23,-0.21 -0.14,-0.79 -1.23,-1.84 -0.43,-0.43 -0.83,-0.86 -0.87,-0.95 -0.14,-0.34 0.48,-9.38 0.65,-9.6 0.03,-0.04 0.41,0.17 0.86,0.48 1.22,0.82 1.27,0.45 0.15,-1.08l-0.91 -1.25 0.1 -1.01c0.06,-0.56 0.13,-1.07 0.15,-1.14 0.02,-0.08 0.35,0.12 0.77,0.44 1.26,0.95 1.35,0.53 0.21,-1.02 -0.4,-0.53 -0.75,-1.13 -0.79,-1.32 -0.05,-0.29 0.88,-3.41 1.11,-3.72 0.04,-0.05 0.42,0.16 0.87,0.47 1.13,0.77 1.26,0.46 0.34,-0.78 -0.73,-0.98 -0.77,-1.19 -0.42,-2.13 0.12,-0.32 0.15,-0.31 0.94,0.29 0.71,0.53 0.84,0.59 0.94,0.38 0.09,-0.17 -0.1,-0.56 -0.61,-1.24 -0.64,-0.89 -0.71,-1.07 -0.58,-1.47l0.16 -0.47 2.8 2.13c4.34,3.29 10.83,7.85 12.51,8.79 0.83,0.47 1.76,0.98 2.06,1.15l0.54 0.31 0.33 3.25c0.19,1.78 0.47,4.23 0.63,5.44l0.27 2.2 1.2 0.91c0.88,0.68 1.28,0.9 1.47,0.85 0.23,-0.04 0.62,-0.97 1.87,-4.38 0.86,-2.36 1.63,-4.38 1.69,-4.49 0.06,-0.11 0.37,-0.07 0.71,0.05 1.11,0.43 1.53,-0.2 0.7,-1.06 -0.23,-0.26 -0.41,-0.46 -0.38,-0.5 0.02,-0.03 1.79,-1.31 3.94,-2.85 4.55,-3.29 4.37,-2.97 2.59,-4.32l-1.11 -0.84 -1.88 0.27c-1.04,0.16 -3.53,0.55 -5.54,0.89l-3.66 0.59 -1.08 -1.13c-1.87,-1.95 -3.84,-3.6 -9.73,-8.2l-5.69 -4.45 0.32 -0.27c0.18,-0.13 0.34,-0.26 0.35,-0.25 0.02,-0.01 0.56,0.19 1.19,0.41 1.48,0.52 1.75,0.3 0.69,-0.58l-0.72 -0.61 0.59 -0.4c0.58,-0.4 0.61,-0.4 1.72,0.01 0.85,0.32 1.16,0.38 1.24,0.21 0.09,-0.17 -0.06,-0.38 -0.57,-0.81 -0.36,-0.31 -0.67,-0.58 -0.65,-0.6 0.12,-0.16 2.91,-1.96 3.18,-2.07 0.25,-0.08 0.79,0.04 1.67,0.39 0.99,0.39 1.32,0.46 1.41,0.3 0.09,-0.17 -0.06,-0.38 -0.58,-0.81 -0.36,-0.31 -0.64,-0.61 -0.59,-0.65 0.03,-0.05 0.51,-0.23 1.03,-0.42 0.94,-0.3 1.01,-0.3 2.18,0.14 1.45,0.55 1.69,0.59 1.85,0.37 0.1,-0.12 -0.07,-0.34 -0.6,-0.79 -0.42,-0.35 -0.73,-0.65 -0.7,-0.69 0.15,-0.19 7.15,-2.72 8.61,-3.1 0.54,-0.14 0.85,-0.12 1.22,0.08 1.28,0.72 2.21,1.14 2.45,1.14 0.4,-0.02 0.29,-0.46 -0.31,-1.17 -0.58,-0.67 -2.81,-2.54 -3.47,-2.9z"/>
 </g>
</svg>
