<?xml version="1.0" encoding="UTF-8"?>
<!DOCTYPE svg PUBLIC "-//W3C//DTD SVG 1.1//EN" "http://www.w3.org/Graphics/SVG/1.1/DTD/svg11.dtd">
<!-- Creator: CorelDRAW 2019 (64-Bit) -->
<svg xmlns="http://www.w3.org/2000/svg" xml:space="preserve" width="534px" height="440px" version="1.1" style="shape-rendering:geometricPrecision; text-rendering:geometricPrecision; image-rendering:optimizeQuality; fill-rule:evenodd; clip-rule:evenodd"
viewBox="0 0 472.21 389.18"
 xmlns:xlink="http://www.w3.org/1999/xlink">
 <defs>
  <style type="text/css">
   <![CDATA[
    .fil0 {fill:#FBAD3A}
   ]]>
  </style>
 </defs>
 <g id="Слой_x0020_1">
  <metadata id="CorelCorpID_0Corel-Layer"/>
  <path class="fil0" d="M427.25 212.88c6.27,-0.22 10,-1.05 14.02,-4.19 2.78,-2.18 6.33,-6.19 7.23,-10.92 9.39,-1.39 17.56,-10.89 17.79,-21.55 0.15,-6.57 0,-12.98 0,-19.29 0,-32.77 0.24,-65.44 0,-98.41 -0.14,-20.58 -0.28,-27.59 -11.76,-42.32 -2.88,-3.69 -9.15,-8.76 -13.91,-11.04 -12.16,-5.8 -19.8,-4.89 -34.37,-4.89 -13.24,0 -26.47,0 -39.71,0 -13.02,0 -24.54,-1.21 -35.92,3.32 -9.57,3.81 -16.75,10.63 -21.58,18.12 -6.2,9.6 -7.62,18.18 -7.62,31.7l0 118.84c0,6.92 0.33,10.78 3.63,15.82 2.94,4.49 6.98,7.72 12.77,9.37 2.47,0.7 0.85,0.5 3.01,4.63 1.13,2.17 2.84,4.38 4.32,5.62 3.96,3.34 7.81,5.08 14.69,5.18 6.88,0.09 87.41,0.01 87.41,0.01zm-39.97 -169.62l-0.06 49.5 45.97 -0.02c5.6,0 9.94,0.81 13.15,-2.36 3.09,-3.04 2.52,-7.79 2.54,-13.14l0 -24.96c0,-5.07 -3.62,-8.87 -8.59,-9 -10.51,-0.29 -24.77,0 -35.74,0l-17.27 -0.02zm-68.47 9.3l0 30.63c0,6.59 4.02,9.7 10.3,9.69l51.26 -0.15 0.1 -49.47c-16.91,0.4 -36.16,-0.37 -53.07,0.02 -5.09,0.11 -8.59,4.11 -8.59,9.28zm70.42 78.64l-63.25 0c-6.96,-0.01 -5.56,1 -5.58,15.52 -0.01,4.5 -0.04,5.86 4.73,5.86l70.91 0c1.32,0 2.22,0.1 2.91,0.06 5.17,-0.31 18.84,-0.06 24.32,-0.06 4.63,0 9.26,0 13.89,0 11.86,0 10.15,2.44 10.15,-18.34 0,-2.64 -1.96,-3.06 -4.47,-3.04l-53.61 0zm-67.31 19.28c0.97,1.24 2.42,0.86 4.06,0.85l117.78 0c3.08,0 2.31,-2.19 2.31,-6.88 0,-3.02 0,-6.05 0.01,-9.07 -0.01,-2.11 -0.17,-2.94 -2.39,-2.94l-66.36 0.03c-5.7,-0.36 -21.91,-0.03 -28.37,-0.03 -7.56,0 -15.13,0.01 -22.69,0 -5.32,-0.01 -4.65,-0.41 -4.65,6.91 0,2.29 -0.41,9.64 0.3,11.13zm86.39 14.91c-4.39,1.15 -3.92,4.91 -3.92,9.69 0,14.75 -0.99,14.69 12.35,14.69 2.66,0 11.52,0.33 13.4,-0.15 1.59,-0.4 3.06,-1.72 3.61,-3.2 0.64,-1.72 0.36,-4.54 0.36,-6.51 0,-3.27 0.69,-10.45 -1.03,-12.64 -2.35,-2.99 -6.92,-2.09 -11.52,-2.09 -2.83,0 -11.2,-0.34 -13.25,0.21zm-74.64 4.7l0 14.57 0.06 1.23c0.36,0.48 0.53,1.48 1.47,2.4 1,0.97 1.73,0.87 2.78,1.54l9.5 -0.08 1.63 0.04c5.78,-0.16 12.81,1.54 14.07,-4.16 0.54,-2.45 0.42,-15.87 -0.52,-17.73 -2.01,-3.99 -9.46,-2.72 -15.12,-2.72 -5.72,0 -13.39,-1.54 -13.87,4.91zm102.43 -35.08c-9.67,1.73 -6.63,15.3 2.19,13.75 8.98,-1.58 6.61,-15.33 -2.19,-13.75zm-89.02 0.03c-9.37,1.92 -6.35,15.56 2.69,13.65 8.79,-1.85 6.02,-15.44 -2.69,-13.65zm-17.77 0.05c-3.55,0.81 -6.52,3.95 -5.49,8.4 0.75,3.26 4.4,6.28 8.6,5.11 8.89,-2.47 5.22,-15.41 -3.11,-13.51zm88.77 0.03c-9.62,2.36 -5.65,15.73 3.12,13.51 3.39,-0.85 5.99,-4.44 4.96,-8.49 -0.8,-3.14 -4.11,-6 -8.08,-5.02zm-44.48 196.4c-26.38,8.11 -29.35,42.39 -4.72,54.5 4.93,2.46 7.08,2.87 14.06,2.87 9.34,0 14.98,-2.05 21.45,-7.69 9.13,-8.11 12.01,-21.97 6.87,-33.56 -5.95,-13.54 -22.78,-20.63 -37.66,-16.12zm-277.49 -0.1c-6.77,2.26 -14.16,8.42 -17.86,14.88 -2.76,4.93 -3.18,6.67 -3.18,13.34 0,6.67 0.42,8.52 3.08,13.24 10.06,18.16 35.1,21.86 50.18,7.49 14.99,-14.37 10.37,-38.89 -9.13,-47.51 -6.47,-2.87 -16.83,-3.49 -23.09,-1.44zm229.36 -64.14c14.77,2.37 39.72,12.73 43.2,17.96 1.85,2.88 1.23,6.16 -1.64,7.7 -2.57,1.33 -21.24,2.97 -44.44,3.79 -16.32,0.52 -19.19,0.42 -18.78,-0.82 0.31,-0.81 1.44,-4.92 2.67,-9.13 6.46,-22.78 5.95,-21.55 9.03,-21.03 1.54,0.2 6.06,0.92 9.96,1.53zm-21.04 -1.33c0,0.52 -1.95,7.8 -4.31,16.32l-4.31 15.5 -14.47 0.72c-7.91,0.31 -27.4,0.61 -43.31,0.61l-28.94 0 0 -3.38c0.1,-1.75 -0.41,-4.52 -0.92,-6.06 -1.03,-2.46 -0.82,-3.08 2.67,-6.05 7.8,-6.88 28.11,-14.47 44.53,-16.73 11.19,-1.55 49.06,-2.16 49.06,-0.93zm-41.56 -6.88c-27.5,2.37 -43.92,7.6 -71.94,23.19 -13.96,7.8 -19.6,9.34 -46.18,13.24 -39.82,5.75 -75.02,13.65 -87.23,19.71 -6.05,2.97 -10.26,8.31 -13.86,17.75 -3.48,9.13 -2.25,29.35 2.05,33.25 1.85,1.64 12.83,4.72 17.14,4.72l2.98 0 0 -10.58c0,-9.13 0.31,-11.18 2.67,-16.21 7.39,-15.71 22.26,-24.22 40.53,-23.3 6.78,0.31 9.65,1.03 14.99,3.7 17.65,8.72 26.88,28.01 21.75,45.66 -0.51,1.75 3.7,1.85 98.52,1.54l99.13 -0.3 -0.62 -3.08c-1.43,-5.95 -0.61,-16.32 1.65,-22.37 3.18,-8.31 11.59,-17.24 20.42,-21.45 16.01,-7.7 36.43,-3.9 48.23,8.93 6.88,7.49 9.65,14.06 10.16,24.32 0.21,5.03 0.72,9.03 1.13,9.03 4.1,0 33.25,-4.41 38.07,-5.75 9.24,-2.56 9.75,-3.69 9.75,-21.96 -0.1,-14.88 -1.85,-27.61 -5.23,-38.28 -1.85,-5.54 -1.23,-5.33 -17.86,-6.87 -36.02,-3.5 -35.71,-3.39 -54.69,-12.42 -32.63,-15.61 -47.83,-20.32 -72.05,-22.37 -13.74,-1.22 -45.35,-1.22 -59.51,-0.1zm-45.03 -234.8c-0.91,-0.53 -3.51,-1.76 -5.63,-2.64l-4.01 -1.64 -19.35 3.22 -19.4 3.27 -1.55 -1.75c-0.84,-1.05 -4.11,-3.78 -7.19,-6.11 -5.32,-4.03 -5.77,-4.3 -7.62,-3.81 -2.21,0.54 -5.94,5.02 -5.93,7.16 0.01,2.06 1.17,4.09 3.21,5.63 1.04,0.79 1.76,1.58 1.6,1.79 -0.25,0.22 -6.72,1.39 -14.54,2.6 -14.21,2.28 -14.21,2.28 -15.3,0.47 -0.61,-1.04 -3.49,-3.63 -6.86,-6.11 -5.51,-4.1 -5.86,-4.28 -7.91,-3.86 -1.67,0.37 -2.74,1.12 -4.2,3.05 -2.77,3.65 -2.4,6.3 1.3,9.11l2.71 2.06 -15.22 2.41 -15.22 2.42 -9.64 -7.31c-5.37,-4.08 -15.31,-11.21 -22.08,-15.93 -10.28,-7.22 -13.59,-9.24 -19.62,-12.01 -10.61,-4.85 -17.61,-6.87 -21.2,-6.15 -3.45,0.76 -3.82,1.13 -4.16,4.4 -0.34,3.36 2.62,8.89 8.81,16.63 6.66,8.33 12.2,13.36 32.77,29.54l17.86 14.12 1.84 15.43 1.8 15.4 -2.82 -1.9c-4.11,-2.71 -6.22,-2.42 -9.15,1.44 -3.28,4.32 -3.1,5.28 2.01,9.81 2.87,2.59 5.4,4.35 7.99,5.49l3.74 1.77 1.78 14.65 1.78 14.65 -2.99 -1.69c-3.86,-2.28 -6.64,-1.75 -9.17,1.58 -1.46,1.93 -1.75,2.86 -1.44,5.15l0.43 2.79 6.04 4.16c3.35,2.3 6.67,4.41 7.4,4.64 1.18,0.39 1.67,3.31 3.33,18.77 1.05,10.08 2.33,19.01 2.87,19.92 2.65,4.31 5.08,6.73 11.74,11.69 7.84,5.79 13.41,8.62 14.7,7.46 1,-0.88 -0.59,-3.32 -5.18,-7.78 -1.83,-1.8 -3.48,-3.63 -3.68,-4.02 -0.56,-1.42 2.04,-39.59 2.75,-40.53 0.12,-0.16 1.74,0.74 3.64,2.02 5.15,3.49 5.35,1.93 0.64,-4.53l-3.86 -5.3 0.44 -4.27c0.24,-2.36 0.55,-4.51 0.6,-4.79 0.1,-0.34 1.52,0.49 3.29,1.83 5.32,4.04 5.68,2.26 0.86,-4.27 -1.66,-2.24 -3.18,-4.79 -3.33,-5.56 -0.22,-1.23 3.72,-14.43 4.7,-15.73 0.16,-0.21 1.78,0.69 3.68,1.97 4.75,3.27 5.32,1.98 1.42,-3.28 -3.09,-4.15 -3.26,-5.02 -1.79,-9 0.51,-1.33 0.66,-1.3 3.99,1.23 2.97,2.25 3.52,2.5 3.96,1.6 0.37,-0.7 -0.42,-2.37 -2.59,-5.25 -2.66,-3.74 -3,-4.49 -2.44,-6.2l0.67 -1.96 11.83 8.98c18.34,13.91 45.73,33.12 52.81,37.1 3.5,2 7.44,4.16 8.7,4.88l2.28 1.32 1.42 13.72c0.79,7.5 1.98,17.84 2.64,22.93l1.13 9.32 5.06 3.84c3.75,2.85 5.42,3.78 6.24,3.58 0.95,-0.18 2.61,-4.09 7.87,-18.49 3.62,-9.98 6.89,-18.51 7.15,-18.96 0.27,-0.46 1.55,-0.31 2.97,0.2 4.69,1.83 6.47,-0.84 2.98,-4.47 -0.99,-1.08 -1.71,-1.96 -1.6,-2.12 0.08,-0.1 7.56,-5.52 16.61,-12.04 19.24,-13.89 18.45,-12.52 10.94,-18.21l-4.69 -3.56 -7.92 1.13c-4.39,0.7 -14.9,2.33 -23.39,3.77l-15.43 2.5 -4.58 -4.79c-7.9,-8.21 -16.23,-15.19 -41.08,-34.61l-24.01 -18.79 1.34 -1.12c0.76,-0.57 1.43,-1.13 1.48,-1.09 0.09,-0.01 2.35,0.8 5.01,1.75 6.28,2.22 7.41,1.26 2.93,-2.46l-3.06 -2.57 2.51 -1.7c2.43,-1.69 2.58,-1.66 7.25,0.08 3.59,1.32 4.89,1.57 5.26,0.86 0.37,-0.7 -0.27,-1.59 -2.43,-3.4 -1.54,-1.33 -2.81,-2.46 -2.73,-2.56 0.51,-0.68 12.26,-8.27 13.41,-8.71 1.08,-0.33 3.34,0.15 7.05,1.65 4.19,1.62 5.58,1.94 5.96,1.23 0.37,-0.7 -0.27,-1.59 -2.43,-3.4 -1.54,-1.33 -2.73,-2.56 -2.53,-2.73 0.16,-0.21 2.16,-1 4.38,-1.77 3.94,-1.29 4.26,-1.29 9.19,0.56 6.11,2.33 7.11,2.52 7.83,1.58 0.39,-0.52 -0.3,-1.45 -2.56,-3.34 -1.75,-1.48 -3.09,-2.75 -2.97,-2.9 0.63,-0.84 30.22,-11.48 36.39,-13.12 2.25,-0.59 3.57,-0.49 5.14,0.37 5.41,3.04 9.34,4.79 10.32,4.79 1.72,-0.1 1.23,-1.94 -1.28,-4.91 -2.45,-2.84 -11.89,-10.74 -14.67,-12.27z"/>
 </g>
</svg>
