<?xml version="1.0" encoding="UTF-8"?>
<!DOCTYPE svg PUBLIC "-//W3C//DTD SVG 1.1//EN" "http://www.w3.org/Graphics/SVG/1.1/DTD/svg11.dtd">
<!-- Creator: CorelDRAW 2019 (64-Bit) -->
<svg xmlns="http://www.w3.org/2000/svg" xml:space="preserve" width="414px" height="461px" version="1.1" style="shape-rendering:geometricPrecision; text-rendering:geometricPrecision; image-rendering:optimizeQuality; fill-rule:evenodd; clip-rule:evenodd"
viewBox="0 0 73.4 81.75"
 xmlns:xlink="http://www.w3.org/1999/xlink">
 <defs>
  <style type="text/css">
   <![CDATA[
    .str0 {stroke:white;stroke-width:1.42;stroke-miterlimit:22.9256}
    .fil0 {fill:none}
    .fil1 {fill:#FBAD3A}
    .fil2 {fill:white}
   ]]>
  </style>
 </defs>
 <g id="Слой_x0020_1">
  <metadata id="CorelCorpID_0Corel-Layer"/>
  <g id="_2430885351312">
   <path class="fil0 str0" d="M72.69 23.07c0,-0.04 -0.01,-0.08 -0.01,-0.12 0,-0.03 0,-0.06 0,-0.1 -0.01,-0.04 -0.02,-0.08 -0.03,-0.11 0,-0.04 -0.01,-0.07 -0.02,-0.1 -0.01,-0.04 -0.02,-0.07 -0.03,-0.11 -0.02,-0.03 -0.02,-0.06 -0.04,-0.09 -0.01,-0.04 -0.03,-0.07 -0.04,-0.1 -0.02,-0.03 -0.03,-0.06 -0.05,-0.1 -0.02,-0.02 -0.03,-0.04 -0.05,-0.07 -0.02,-0.04 -0.04,-0.07 -0.07,-0.11 -0.02,-0.02 -0.04,-0.04 -0.06,-0.06 -0.02,-0.03 -0.05,-0.07 -0.08,-0.1 -0.05,-0.04 -0.1,-0.09 -0.15,-0.13 -0.01,0 -0.01,-0.01 -0.01,-0.01 -0.06,-0.04 -0.12,-0.09 -0.19,-0.12l-35.86 -20.71c-0.52,-0.3 -1.15,-0.29 -1.66,0l-32.78 19.05c-0.03,0.02 -0.06,0.04 -0.09,0.06 -0.03,0.02 -0.06,0.04 -0.09,0.06 -0.02,0.02 -0.04,0.04 -0.06,0.06 -0.03,0.03 -0.07,0.05 -0.1,0.09 -0.02,0.01 -0.03,0.03 -0.05,0.05 -0.03,0.03 -0.06,0.07 -0.09,0.11 -0.02,0.01 -0.03,0.03 -0.04,0.05 -0.03,0.04 -0.06,0.08 -0.08,0.13 -0.01,0.02 -0.02,0.04 -0.03,0.05 -0.02,0.05 -0.05,0.09 -0.07,0.14 -0.01,0.02 -0.01,0.05 -0.02,0.07 -0.02,0.04 -0.04,0.09 -0.05,0.13 -0.01,0.03 -0.01,0.06 -0.02,0.09 0,0.04 -0.02,0.08 -0.02,0.12 0,0.04 0,0.07 -0.01,0.11 0,0.03 -0.01,0.07 -0.01,0.11l-0.02 8.69c0,0.59 0.31,1.14 0.83,1.44l0.6 0.35 -0.08 28.44c0,0.6 0.32,1.15 0.83,1.44l32.99 19.05c0.26,0.15 0.55,0.22 0.83,0.22 0.08,0 0.15,0 0.22,-0.01 0.02,0 0.05,-0.01 0.07,-0.01 0.05,-0.01 0.09,-0.02 0.14,-0.03 0.03,-0.01 0.05,-0.02 0.08,-0.03 0.04,-0.01 0.09,-0.02 0.13,-0.04 0.03,-0.01 0.06,-0.03 0.09,-0.05 0.03,-0.01 0.07,-0.03 0.1,-0.05 0,0 0,0 0,0 0,0 0.01,0 0.01,0l32.77 -19.05c0.51,-0.29 0.83,-0.84 0.83,-1.43l0.07 -26.79 0.62 -0.36c0.51,-0.29 0.83,-0.84 0.83,-1.43l0.02 -8.68c0,0 0,-0.01 0,-0.01 0,0 0,0 0,0z"/>
   <polygon class="fil1" points="69.37,25.96 69.36,30.8 39.9,47.92 39.91,43.07 63.37,29.44 "/>
   <polygon class="fil1" points="36.58,47.94 4.03,29.15 4.04,24.28 36.6,43.07 "/>
   <polygon class="fil1" points="35.17,4.28 67.73,23.08 38.25,40.2 5.7,21.41 "/>
   <polygon class="fil2" points="5.45,33.8 35.14,50.93 35.06,76.52 5.38,59.39 "/>
   <path class="fil2" d="M67.84 59.38l-29.46 17.12 0.07 -24.05c0.02,0 0.04,-0.01 0.07,-0.01 0.04,-0.01 0.09,-0.02 0.14,-0.03 0.03,-0.01 0.05,-0.02 0.08,-0.03 0.04,-0.01 0.08,-0.02 0.12,-0.04 0.03,-0.01 0.06,-0.03 0.09,-0.05 0.04,-0.01 0.07,-0.03 0.11,-0.05 0,0 0,0 0,0 0,0 0,0 0,0l28.85 -16.76 -0.07 23.9z"/>
  </g>
 </g>
</svg>
