<?xml version="1.0" encoding="UTF-8"?>
<!DOCTYPE svg PUBLIC "-//W3C//DTD SVG 1.1//EN" "http://www.w3.org/Graphics/SVG/1.1/DTD/svg11.dtd">
<!-- Creator: CorelDRAW 2019 (64-Bit) -->
<svg xmlns="http://www.w3.org/2000/svg" xml:space="preserve" width="480px" height="450px" version="1.1" style="shape-rendering:geometricPrecision; text-rendering:geometricPrecision; image-rendering:optimizeQuality; fill-rule:evenodd; clip-rule:evenodd"
viewBox="0 0 105.52 98.92"
 xmlns:xlink="http://www.w3.org/1999/xlink">
 <defs>
  <style type="text/css">
   <![CDATA[
    .fil1 {fill:#FBAD3A}
    .fil0 {fill:white}
   ]]>
  </style>
 </defs>
 <g id="Слой_x0020_1">
  <metadata id="CorelCorpID_0Corel-Layer"/>
  <g id="_2429520779120">
   <path class="fil0" d="M50.57 91.26l4.38 0 0 4.4 -4.38 0 0 -4.4zm21.22 -5.43l2.19 3.82 -1.91 1.1 -2.2 -3.82 1.92 -1.1zm-38.06 0l1.91 1.1 -2.19 3.82 -1.91 -1.1 2.19 -3.82zm50.9 -13.67l3.76 2.2 -1.09 1.89 -3.77 -2.2 1.1 -1.89zm-63.74 0l1.1 1.89 -3.77 2.2 -1.09 -1.89 3.76 -2.2zm68.02 -19.38l4.38 0 0 4.4 -4.38 0 0 -4.4zm-76.68 0l4.38 0 0 4.4 -4.38 0 0 -4.4zm75.07 -19.11l1.09 1.89 -3.76 2.2 -1.1 -1.89 3.77 -2.2zm-69.08 0l3.77 2.2 -1.1 1.89 -3.76 -2.2 1.09 -1.89zm32.35 -8.38l4.38 0 0 23.54c1.93,0.85 3.29,2.76 3.29,5.01 0,0.62 -0.12,1.2 -0.31,1.76l20.06 11.61 -1.1 1.89 -20.06 -11.61c-1.57,1.37 -2.79,1.88 -4.69,1.82l-7.36 12.78 -3.76 -2.2 7.36 -12.78c-0.68,-0.92 -1.1,-2.03 -1.1,-3.27 0,-2.25 1.36,-4.16 3.29,-5.01l0 -23.54 0 0zm21.5 -6.12l1.91 1.1 -2.19 3.82 -1.92 -1.1 2.2 -3.82zm-38.62 0l2.19 3.82 -1.91 1.1 -2.19 -3.82 1.91 -1.1zm17.12 -4.88l4.38 0 0 4.4 -4.38 0 0 -4.4zm-5.48 -14.29c0,2.98 0,6.19 0,8.8 1.83,0 3.65,0 5.48,0l0 2.23c-23.18,1.14 -41.62,20.36 -41.62,43.91 0,11.35 4.29,21.72 11.33,29.52l-5.62 5.63c-0.83,0.82 -0.84,2.32 -0.01,3.14 0.82,0.82 2.33,0.8 3.13,-0.04l5.61 -5.64c7.77,7.05 18.07,11.37 29.37,11.37 11.3,0 21.6,-4.32 29.37,-11.37l5.61 5.64c0.8,0.84 2.31,0.86 3.13,0.04 0.83,-0.82 0.82,-2.32 -0.01,-3.14l-5.62 -5.63c7.04,-7.8 11.33,-18.17 11.33,-29.52 0,-23.55 -18.44,-42.77 -41.62,-43.91l0 -2.23c1.83,0 3.65,0 5.48,0 0,-2.98 0,-6.19 0,-8.8 -5.25,0 -10.8,0 -15.34,0l0 0z" display="inline"/>
   <g>
    <path class="fil1" d="M87.33 3.74c-4.35,0.1 -8.63,2.03 -12.12,5.53l24.79 24.88c6.97,-7 7.74,-17.1 0,-24.88 -3.88,-3.89 -8.31,-5.63 -12.67,-5.53z" display="inline"/>
    <path class="fil1" d="M18.19 3.74c-4.36,-0.1 -8.79,1.64 -12.67,5.53 -7.74,7.78 -6.97,17.88 0,24.88l24.79 -24.88c-3.49,-3.5 -7.77,-5.43 -12.12,-5.53l0 0z" display="inline"/>
   </g>
  </g>
 </g>
</svg>
