<?xml version="1.0" encoding="UTF-8"?>
<!DOCTYPE svg PUBLIC "-//W3C//DTD SVG 1.1//EN" "http://www.w3.org/Graphics/SVG/1.1/DTD/svg11.dtd">
<!-- Creator: CorelDRAW 2019 (64-Bit) -->
<svg xmlns="http://www.w3.org/2000/svg" xml:space="preserve" width="600px" height="676px" version="1.1" style="shape-rendering:geometricPrecision; text-rendering:geometricPrecision; image-rendering:optimizeQuality; fill-rule:evenodd; clip-rule:evenodd"
viewBox="0 0 165.34 186.32"
 xmlns:xlink="http://www.w3.org/1999/xlink">
 <defs>
  <style type="text/css">
   <![CDATA[
    .fil0 {fill:#FBAD3A}
   ]]>
  </style>
 </defs>
 <g id="Слой_x0020_1">
  <metadata id="CorelCorpID_0Corel-Layer"/>
  <path class="fil0" d="M128.87 0c-10.98,0.13 -19.82,9.07 -19.82,20.05 0,0.63 0.03,1.26 0.09,1.88 1.06,0.37 2.09,0.76 3.13,1.26 14.99,7.12 21.49,25.25 14.41,40.25 -2.16,4.53 -5.42,8.17 -9.24,10.97l27.02 -14.49 4.7 8.77 -32.35 17.38c3.31,5.94 3.9,13.23 0.78,19.82 -2.28,4.85 -14.16,29.85 -16.68,35.09 0,0.01 -0.07,0.06 -0.08,0.07 -1.72,3.62 -3.99,6.83 -6.65,9.56l5.09 11.12 -9.09 4.15 -4.15 -9.08c-9.83,5.52 -22.06,6.39 -32.97,1.25l-0.08 -0.08c-5.91,-2.85 -10.29,-7.05 -13.7,-11.35 -3.34,-4.22 -4.95,-8.98 -6.27,-13.4 -4.94,3.24 -10.14,6.59 -12.76,8.46l-0.08 0.08c-5.07,3.53 -11.44,3.95 -16.84,1.72 -0.36,1.52 -0.55,3.08 -0.55,4.64 0,4.72 1.67,9.29 4.7,12.9l15.11 18.1c3.81,4.56 9.45,7.2 15.4,7.2 0.01,0 0.02,0 0.03,0l56.47 0c7.75,-0.02 14.79,-4.5 18.09,-11.51l50.83 -107.45c1.27,-2.69 1.93,-5.62 1.93,-8.59 0,-2.64 -0.52,-5.26 -1.54,-7.7l-16.05 -38.54c-3.07,-7.57 -10.42,-12.53 -18.59,-12.53 -0.09,0 -0.2,0 -0.29,0l0 0zm-30.78 27.8c-8.04,0.45 -15.64,5.23 -19.34,13.01 -5.38,11.36 -0.48,24.87 10.89,30.23 11.32,5.39 24.84,0.51 30.23,-10.81 5.35,-11.35 0.54,-24.84 -10.81,-30.23 -3.54,-1.68 -7.31,-2.4 -10.97,-2.2l0 0zm-47.54 21.23c-1.26,0.1 -2.48,0.47 -3.68,1.1 -4.81,2.49 -6.65,8.36 -4.15,13.15l11.52 22.17c1.25,2.38 3.36,4.12 5.95,4.85l11.75 3.45 -3.45 6.97 34.15 -18.33c-0.28,-0.12 -0.57,-0.22 -0.87,-0.31 0,0 -25.77,-7.54 -32.11,-9.4 -2.67,-5.13 -9.55,-18.48 -9.55,-18.48 -1.89,-3.58 -5.76,-5.48 -9.56,-5.17l0 0zm59.84 40.57l-35.56 19.11 15.9 34.46c1.29,-1.64 2.44,-3.44 3.37,-5.41 2.43,-5.06 14.44,-30.32 16.68,-35.08 2.06,-4.35 1.74,-9.16 -0.39,-13.08zm-71.58 8.53c-2.58,0.06 -5.17,0.84 -7.44,2.43 0,0 -19.91,13.54 -27.1,18.56 -4.52,3.21 -5.65,9.48 -2.43,14.02 3.2,4.54 9.48,5.6 14.02,2.43 4.99,-3.55 17.05,-11.16 21.77,-14.49 0,0 3.03,15.16 7.52,20.83 2.96,3.74 6.52,7.1 11.12,9.32 8.88,4.19 18.79,3.46 26.63,-1.17l-18.8 -40.49 -5.64 11.43 -8.45 -17.23c-2.67,-3.8 -6.91,-5.73 -11.2,-5.64z" display="inline"/>
 </g>
</svg>
