<?xml version="1.0" encoding="UTF-8"?>
<!DOCTYPE svg PUBLIC "-//W3C//DTD SVG 1.1//EN" "http://www.w3.org/Graphics/SVG/1.1/DTD/svg11.dtd">
<!-- Creator: CorelDRAW 2019 (64-Bit) -->
<svg xmlns="http://www.w3.org/2000/svg" xml:space="preserve" width="600px" height="577px" version="1.1" style="shape-rendering:geometricPrecision; text-rendering:geometricPrecision; image-rendering:optimizeQuality; fill-rule:evenodd; clip-rule:evenodd"
viewBox="0 0 155.66 149.8"
 xmlns:xlink="http://www.w3.org/1999/xlink">
 <defs>
  <style type="text/css">
   <![CDATA[
    .fil0 {fill:#FBAD3A}
   ]]>
  </style>
 </defs>
 <g id="Слой_x0020_1">
  <metadata id="CorelCorpID_0Corel-Layer"/>
  <g id="_1291372679200">
   <polygon class="fil0" points="48.75,85.97 50.4,79 47.6,78.34 45.95,85.31 "/>
   <polygon class="fil0" points="54.32,87.3 55.97,80.33 53.18,79.67 51.53,86.64 "/>
   <polygon class="fil0" points="37.27,83.46 38.91,76.51 36.13,75.85 34.48,82.8 "/>
   <polygon class="fil0" points="43.17,84.68 44.82,77.71 42.02,77.05 40.37,84.02 "/>
   <polygon class="fil0" points="39.6,99.77 40.6,95.58 37.8,94.92 36.81,99.11 "/>
   <polygon class="fil0" points="34.01,98.44 35,94.25 32.21,93.59 31.21,97.78 "/>
   <polygon class="fil0" points="55.16,103.46 56.15,99.27 53.35,98.61 52.36,102.8 "/>
   <polygon class="fil0" points="49.6,102.13 50.59,97.94 47.8,97.28 46.8,101.47 "/>
   <polygon class="fil0" points="74.79,92.14 76.44,85.17 73.65,84.51 72,91.48 "/>
   <polygon class="fil0" points="69.2,90.82 70.85,83.86 68.06,83.19 66.41,90.16 "/>
   <polygon class="fil0" points="79.99,93.71 81.64,86.76 78.86,86.1 77.21,93.05 "/>
   <polygon class="fil0" points="63.63,89.49 65.27,82.52 62.48,81.86 60.83,88.83 "/>
   <polygon class="fil0" points="132.78,105.87 134.43,98.9 131.64,98.24 129.99,105.2 "/>
   <polygon class="fil0" points="127.21,104.55 128.86,97.59 126.06,96.92 124.41,103.89 "/>
   <path class="fil0" d="M146.17 61.19l-9.33 -2.2 -15.98 -50.5c-1.6,-5.05 -6.3,-8.49 -11.6,-8.49 -1.25,0 -2.49,0.19 -3.67,0.57l-97.1 30.73c-5.05,1.6 -8.49,6.3 -8.49,11.6 0,1.24 0.19,2.48 0.57,3.67l16.78 52.94 -2.61 11.02c-0.21,0.92 -0.32,1.86 -0.32,2.8 0,5.79 4,10.82 9.64,12.12l101.2 24.04c0.92,0.21 1.86,0.31 2.8,0.31 5.79,0 10.82,-4 12.12,-9.64l15.16 -64.07c0.21,-0.92 0.32,-1.87 0.32,-2.82 0,-5.73 -3.92,-10.73 -9.49,-12.08l0 0zm-22.81 -30.86l8.71 27.52 -54.73 -12.96 46.02 -14.56zm-118.8 14.92c-0.25,-0.78 -0.37,-1.59 -0.37,-2.4 0,-3.47 2.24,-6.54 5.55,-7.6l97.12 -30.69c0.77,-0.25 1.58,-0.37 2.39,-0.37 3.47,0 6.55,2.24 7.6,5.55l1.42 4.51 -72.89 23.09 -0.55 -0.13c-0.93,-0.22 -1.89,-0.33 -2.85,-0.33 -3.73,0 -7.28,1.68 -9.64,4.58l-26.35 8.35 -1.43 -4.56zm131.5 94c-0.88,3.66 -4.16,6.24 -7.92,6.24 -0.61,0 -1.21,-0.07 -1.8,-0.2l-101.4 -23.98c-3.67,-0.87 -6.26,-4.15 -6.26,-7.93 0,-0.63 0.07,-1.26 0.22,-1.88l1.26 -5.31 1.57 -6.68 0 0 12.33 -52.08c0.85,-3.7 4.14,-6.31 7.94,-6.31 0.62,0 1.24,0.07 1.85,0.21l89.75 21.29 0 0 1.15 0.28 10.43 2.47c3.67,0.87 6.26,4.15 6.26,7.92 0,0.64 -0.07,1.27 -0.22,1.88l-15.16 64.08z"/>
   <polygon class="fil0" points="137.78,80.64 139.43,73.67 114.85,67.85 113.2,74.82 "/>
   <polygon class="fil0" points="106.76,99.7 108.41,92.73 105.61,92.07 103.96,99.04 "/>
   <polygon class="fil0" points="95.58,97.08 97.23,90.11 94.44,89.45 92.79,96.41 "/>
   <polygon class="fil0" points="101.16,98.39 102.81,91.42 100.01,90.76 98.36,97.73 "/>
   <polygon class="fil0" points="90.01,95.74 91.66,88.78 88.86,88.11 87.21,95.08 "/>
   <polygon class="fil0" points="116.05,101.91 117.7,94.94 114.91,94.28 113.26,101.25 "/>
   <polygon class="fil0" points="121.59,103.21 123.24,96.25 120.45,95.59 118.8,102.55 "/>
   <polygon class="fil0" points="41.64,102.05 46.79,95.88 45.69,94.96 40.54,101.13 "/>
   <polygon class="fil0" points="66.47,106.14 67.46,101.94 64.67,101.28 63.68,105.47 "/>
   <polygon class="fil0" points="72.05,107.47 73.04,103.28 70.24,102.61 69.25,106.81 "/>
   <polygon class="fil0" points="82.04,109.83 83.04,105.64 80.24,104.98 79.25,109.17 "/>
   <polygon class="fil0" points="87.62,111.16 88.61,106.96 85.82,106.3 84.82,110.49 "/>
   <polygon class="fil0" points="74.08,109.73 79.23,103.56 78.13,102.64 72.98,108.81 "/>
   <polygon class="fil0" points="129.38,135.19 130.38,131 28.78,106.94 27.78,111.14 "/>
  </g>
 </g>
</svg>
