<?xml version="1.0" encoding="UTF-8"?>
<!DOCTYPE svg PUBLIC "-//W3C//DTD SVG 1.1//EN" "http://www.w3.org/Graphics/SVG/1.1/DTD/svg11.dtd">
<!-- Creator: CorelDRAW 2019 (64-Bit) -->
<svg xmlns="http://www.w3.org/2000/svg" xml:space="preserve" width="600px" height="380px" version="1.1" style="shape-rendering:geometricPrecision; text-rendering:geometricPrecision; image-rendering:optimizeQuality; fill-rule:evenodd; clip-rule:evenodd"
viewBox="0 0 8396.69 5314.84"
 xmlns:xlink="http://www.w3.org/1999/xlink">
 <defs>
  <style type="text/css">
   <![CDATA[
    .fil0 {fill:#FBAD3A}
   ]]>
  </style>
 </defs>
 <g id="Слой_x0020_1">
  <metadata id="CorelCorpID_0Corel-Layer"/>
  <g id="_1291210205440">
   <path class="fil0" d="M4190.36 3330.02l263.19 -123.54c2.07,-0.98 3.49,-2.61 5.26,-3.9 46.45,-26.2 78.23,-75.44 78.23,-132.46 0,-84.15 -68.48,-152.63 -152.68,-152.63 -0.69,0 -1.32,0.2 -2.01,0.2 -0.3,0.01 -0.56,-0.12 -0.86,-0.1l-265.06 21.86c-52.71,4.37 -98.38,37.29 -119.22,85.95l-42.81 96.83c-21.77,-50.1 -42.63,-98.36 -62.14,-143.59 -390.69,-906.21 -436.21,-932.38 -1623.76,-933.37 -0.04,0 -0.07,0 -0.1,0 -1187.56,0.99 -1233.08,27.16 -1623.77,933.37 -19.49,45.19 -40.32,93.43 -62.05,143.44l-42.76 -96.68c-20.84,-48.66 -66.51,-81.58 -119.21,-85.95l-265.06 -21.86c-0.29,-0.04 -0.56,0.11 -0.86,0.1 -0.69,0 -1.33,-0.2 -2.03,-0.2 -84.2,0 -152.66,68.46 -152.66,152.63 0,57.02 31.79,106.26 78.23,132.46 1.77,1.29 3.19,2.92 5.24,3.88l263.21 123.56c-99.59,66.67 -183.74,158.81 -217.39,259.58 -114.78,355.84 -114.84,725.97 0.08,1072.96 24.98,72.76 77.87,138.84 144.12,192.65l0 345.3c0,62.88 51.44,114.33 114.31,114.33l584.23 0c62.88,0 114.33,-51.45 114.33,-114.31l0 -206.5c788.1,0 1576.22,0 2364.32,0l0 206.5c0,62.87 51.44,114.31 114.31,114.31l584.25 0c62.88,0 114.31,-51.45 114.31,-114.31l0 -345.32c66.25,-53.81 119.14,-119.87 144.12,-192.65 114.93,-346.97 114.86,-717.12 0.08,-1072.96 -33.65,-100.77 -117.8,-192.91 -217.39,-259.58zm-3067 891.81c-12.8,0.57 -230.55,9.56 -426.37,9.56 -102.23,0 -198.51,-2.41 -256.54,-9.82 -52.91,-6.73 -90.58,-28.99 -112,-66.13 -47.67,-82.56 6.86,-212.42 36.15,-282.13 15.76,-37.56 57.61,-137.21 179.04,-160.98 254.92,-50.26 485.15,28.03 636.18,90.93 96.25,40.18 153.73,122.66 153.73,220.72 0,114.63 -88.39,197.85 -210.19,197.85zm-352.25 -1004.26c23.68,-54.45 46.2,-106.58 67.25,-155.42 177.14,-410.89 266.09,-617.13 426.58,-708.88 168.58,-96.29 465.14,-96.59 1003.51,-97.04 538.39,0.45 834.95,0.75 1003.47,97.04 160.56,91.75 249.5,297.99 426.61,708.88 21.07,48.84 43.6,100.97 67.29,155.42 -997.56,-52.74 -1997.16,-52.73 -2994.71,0zm2432.38 806.41c0,-98.06 57.49,-180.54 153.73,-220.72 151.01,-62.9 381.24,-141.19 636.17,-90.93 121.42,23.77 163.29,123.42 179.04,160.98 29.29,69.71 83.82,199.57 36.17,282.13 -21.44,37.14 -59.11,59.4 -112.02,66.13 -58.03,7.41 -154.32,9.82 -256.53,9.82 -195.84,0 -413.57,-8.99 -426.38,-9.56 -121.8,0 -210.18,-83.22 -210.18,-197.85z"/>
   <g>
    <path class="fil0" d="M6900.31 1194.56l-44.72 0 0 -108.59c0,-159.71 -127.76,-287.47 -287.46,-287.47l-153.3 0 0 -166.09c0,-351.34 -281.08,-632.41 -632.43,-632.41l-3181.24 0c-351.34,0 -632.4,281.07 -632.4,632.41l0 166.09 -153.32 0c-159.7,0 -287.46,127.76 -287.46,287.47l0 108.59 -25.55 0c-95.83,0 -178.88,76.66 -178.88,178.86l0 544.51c144.05,-32.31 318.86,-47.75 543,-54.19l0 -496.7c0,-95.82 -76.67,-178.86 -178.86,-178.86l-19.18 -0.01 0 -108.58c0,-83.06 70.27,-153.33 153.31,-153.33l153.32 0 0 935.44c90.98,-1.57 186.63,-2.51 293.09,-2.59 0.27,0 0.5,0 0.76,0l0 -555.95c0,-153.31 127.75,-274.7 274.68,-274.7l3315.39 0c153.3,0 281.07,127.77 274.69,274.7l0 2082.49c0,108.6 -89.44,229.97 -198.03,261.92 -417.75,115.64 -845.11,188.26 -1275.27,218.46 40.21,288.35 15.53,578.68 -76.02,855.13 -24.26,70.53 -65.24,137.12 -119.36,197.62l876.57 0 0 217.2c0,102.2 83.04,178.86 178.86,178.86l453.55 0c102.2,0 178.86,-83.04 178.86,-178.86l0 -223.58c146.92,-31.94 261.92,-166.09 261.92,-325.79l0 -3653.95 153.3 0c83.04,0 153.31,70.25 153.31,153.31l0 108.59 -12.76 0c-95.84,0 -178.88,76.66 -178.88,178.86l0 753.8c0,95.82 76.66,178.86 178.88,178.86l185.24 0c95.83,0 178.87,-76.66 178.87,-178.86l0 -760.18c6.38,-95.82 -76.66,-172.48 -172.48,-172.48zm-1290.39 -523.82c0,70.27 -57.49,121.38 -121.36,121.38l-2523.27 0c-70.27,0 -121.37,-57.49 -121.37,-121.38l0 -191.63c0,-70.27 57.48,-121.37 121.37,-121.37l2523.27 0c70.27,0 121.37,57.48 121.37,121.37l-0.01 191.63zm447.17 3717.84l-619.64 0c-38.33,-6.38 -76.66,-44.71 -76.66,-89.44l6.38 -172.48c0,-38.31 25.56,-63.87 63.89,-70.26l606.86 -102.2c44.71,-6.4 89.44,25.55 89.44,76.64l6.38 281.08c0.01,44.72 -31.94,76.66 -76.65,76.66z"/>
   </g>
   <g>
    <path class="fil0" d="M8050.03 3330.02l263.19 -123.56c2.05,-0.96 3.47,-2.59 5.26,-3.88 46.43,-26.2 78.21,-75.44 78.21,-132.46 0,-84.17 -68.48,-152.63 -152.66,-152.63 -0.69,0 -1.34,0.2 -2.03,0.2 -0.3,0.01 -0.56,-0.14 -0.86,-0.1l-265.06 21.86c-52.71,4.37 -98.38,37.29 -119.22,85.95l-42.81 96.81c-21.77,-50.08 -42.63,-98.34 -62.12,-143.57 -190.56,-442 -299.67,-673.75 -498.56,-796.24 -11.27,73.4 -43.95,139.37 -92.18,191.57 142.12,100.03 231.37,303.88 397.01,688.18 21.06,48.83 43.59,100.97 67.27,155.42 -341.29,-18.05 -682.83,-27.62 -1024.43,-33.32l0 1402.36c0,162.13 -77.09,310.93 -198.66,407.42l907.95 0 0 206.5c0,62.86 51.46,114.31 114.33,114.31l584.23 0c62.88,0 114.33,-51.45 114.33,-114.31l0 -345.32c66.23,-53.81 119.13,-119.87 144.12,-192.65 114.92,-346.97 114.84,-717.12 0.06,-1072.96 -33.65,-100.77 -117.8,-192.91 -217.37,-259.58zm18.22 825.42c-21.42,37.16 -59.09,59.4 -112,66.13 -58.04,7.41 -154.32,9.82 -256.55,9.82 -195.83,0 -413.57,-8.99 -426.38,-9.54 -121.8,0 -210.18,-83.24 -210.18,-197.87 0,-98.06 57.49,-180.54 153.74,-220.72 151.02,-62.9 381.25,-141.19 636.18,-90.93 121.4,23.77 163.27,123.42 179.02,160.98 29.31,69.71 83.84,199.58 36.17,282.13z"/>
   </g>
  </g>
 </g>
</svg>
