<?xml version="1.0" encoding="UTF-8"?>
<!DOCTYPE svg PUBLIC "-//W3C//DTD SVG 1.1//EN" "http://www.w3.org/Graphics/SVG/1.1/DTD/svg11.dtd">
<!-- Creator: CorelDRAW 2019 (64-Bit) -->
<svg xmlns="http://www.w3.org/2000/svg" xml:space="preserve" width="600px" height="545px" version="1.1" style="shape-rendering:geometricPrecision; text-rendering:geometricPrecision; image-rendering:optimizeQuality; fill-rule:evenodd; clip-rule:evenodd"
viewBox="0 0 1001.57 909.12"
 xmlns:xlink="http://www.w3.org/1999/xlink">
 <defs>
  <style type="text/css">
   <![CDATA[
    .fil0 {fill:#FBAD3A}
   ]]>
  </style>
 </defs>
 <g id="Слой_x0020_1">
  <metadata id="CorelCorpID_0Corel-Layer"/>
  <g id="_1291210040352">
   <rect class="fil0" x="324.6" y="653.29" width="676.97" height="14.52"/>
   <path class="fil0" d="M897.81 346.48l0.4 1.06 0.69 1.81 3.24 0.01 8.1 0 56.71 0c8.93,0 16.19,-7.26 16.19,-16.2l0 -16.2c0,-8.95 -7.26,-16.2 -16.19,-16.2l-48.61 0c-8.95,0 -16.2,7.25 -16.2,16.2l0 8.1 -12.42 0c2.94,7.81 5.31,14.07 6.7,17.76l1.39 3.66z"/>
   <path class="fil0" d="M657.78 238.41l-37.79 0c-5.22,0 -9.45,4.22 -9.45,9.45 0,5.21 4.23,9.45 9.45,9.45l37.79 0c5.22,0 9.46,-4.24 9.46,-9.45 0,-5.22 -4.24,-9.45 -9.46,-9.45z"/>
   <path class="fil0" d="M405.76 553.65c-1.57,26.84 -23.84,47.86 -50.71,47.86 -1.07,0 -2.15,-0.04 -3.21,-0.1 -1.53,-0.09 -3.05,-0.27 -4.56,-0.5l0 30.06c0,8.96 7.25,16.21 16.2,16.21l64.81 0c8.93,0 16.19,-7.25 16.19,-16.21l0 -32.4c96.63,0 310.76,0 398.68,0l0 33.47c0,8.36 6.77,15.14 15.13,15.14l60.53 0c8.35,0 15.14,-6.78 15.14,-15.14l0 -60.46c0.73,0 1.4,0 1.94,0 26.99,0 26.99,-42 26.99,-42l-324.01 0 -231.96 0c-0.32,7.91 -0.69,15.92 -1.16,24.07z"/>
   <path class="fil0" d="M545.73 519.46l0 -81 24.31 0 0 81 16.2 0 0 -81 24.3 0 0 81 16.2 0 0 -81 24.3 0 0 81 16.19 0 0 -81 24.31 0 0 81 16.19 0 0 -81 24.3 0 0 81 221.86 0c0,0 0,-52.2 0,-97.2 0,-35.31 -40.61,-59.53 -58.12,-68.33l-2.21 -5.83c-0.04,-0.12 -42.04,-111.15 -47.92,-128.76 -3.58,-11.25 -12.97,-17.49 -23.93,-20.18 -11.07,-2.87 -24.69,-3.56 -41.33,-4.95 -36.24,-3.03 -102.22,-6.03 -141.5,-6.03 -39.3,0 -105.26,3 -141.5,6.03 -16.64,1.39 -30.26,2.08 -41.34,4.95 -10.94,2.68 -20.36,8.93 -23.93,20.18 -4.38,13.13 -28.85,78.21 -41.03,110.5 5.87,21.31 10.18,45.4 12.97,72.38 4.95,-2.15 10.4,-3.36 16.14,-3.36 22.35,0 40.49,18.12 40.49,40.5 0,22.36 -18.14,40.5 -40.49,40.5 -4.29,0 -8.42,-0.67 -12.3,-1.91 0.01,1.64 0.05,3.22 0.05,4.88 0,11.78 -0.23,24.04 -0.64,36.63l138.43 0zm311.87 -39.6c-22.38,0 -40.51,-18.13 -40.51,-40.5 0,-22.37 18.13,-40.5 40.51,-40.5 22.36,0 40.49,18.13 40.49,40.5 0,22.37 -18.13,40.5 -40.49,40.5zm-413.95 -232.93c2.42,-6.74 6.29,-9.61 15.49,-12.25 9.08,-2.41 22.45,-3.22 39.25,-4.61 35.74,-2.98 101.77,-5.98 140.49,-5.98 38.72,0 104.75,2.99 140.49,5.98 16.8,1.4 30.19,2.2 39.25,4.61 9.19,2.64 13.09,5.51 15.5,12.25 5.12,15.33 35.14,71.22 44.96,97.24l-480.41 0c9.83,-26.02 39.87,-81.91 44.98,-97.24z"/>
   <path class="fil0" d="M451.69 439.37c0,-17.4 -14.13,-31.51 -31.49,-31.51 -5.51,0 -10.69,1.43 -15.19,3.91 1.55,17.63 2.46,36.5 2.78,56.54 3.81,1.63 8,2.54 12.41,2.54 17.36,0 31.49,-14.11 31.49,-31.48z"/>
   <circle class="fil0" cx="857.6" cy="439.36" r="31.49"/>
   <path class="fil0" d="M152.46 54.34c1.28,2.29 2.26,4.66 3.01,7.06 13.56,-3.38 30.63,-5.4 49.21,-5.4 44.09,0 79.84,11.38 79.84,25.4 0,2.09 -0.8,4.12 -2.3,6.05 -8.53,-11.11 -40,-19.35 -77.54,-19.35 -17.87,0 -34.36,1.87 -47.66,5.02 -0.37,12.32 -6.97,24.17 -18.48,30.63 -4.8,2.68 -9.25,5.29 -13.42,7.82 -1.36,5.91 -2.1,12.05 -2.1,18.38 0,40.59 29.62,74.24 68.42,80.57 4.31,0.7 8.73,1.09 13.24,1.09 4.51,0 8.92,-0.39 13.24,-1.09 38.79,-6.33 68.42,-39.98 68.42,-80.57 0,-10.22 -1.89,-19.98 -5.32,-29 1.95,-2.02 3.12,-4.14 3.41,-6.35 9.5,0.34 16.81,-1.2 20.04,-6.28 10.82,-17.07 -16.93,-88.32 -99.8,-88.32 -40.09,0 -67.24,16.68 -83.4,35.82 12.94,0.18 24.86,7.22 31.19,18.52z"/>
   <path class="fil0" d="M196.26 536.62l16.83 0 0 327.63c0,24.78 20.09,44.86 44.87,44.86 24.78,0 44.87,-20.08 44.87,-44.86l0 -355.68 0 -68.74 0 -119.85c2.15,4.42 4.32,9.48 6.46,15.38 10.23,28.36 18.83,74.88 18.81,147.5 0,20.02 -0.64,42 -2.06,66.14 -0.93,16.01 11.29,29.75 27.3,30.68 0.57,0.04 1.15,0.05 1.71,0.05 15.27,0 28.07,-11.91 28.97,-27.35 1.46,-25.16 2.13,-48.27 2.15,-69.52 -0.15,-109.54 -17.66,-170.17 -41.51,-206.63 -11.92,-18.09 -25.87,-29.7 -38.76,-36.13 -12.42,-6.26 -23.34,-7.66 -29.87,-7.74 -0.42,-0.02 -0.83,-0.06 -1.25,-0.06l-31.13 0c4.92,28.11 16.83,110.12 -8.42,126.41 -4.22,2.72 -7.81,5.04 -11.02,7.01l-8.64 -86.43c-3.56,0.97 -7.21,1.49 -10.87,1.49l-0.02 0 -0.01 0c-3.66,0 -7.32,-0.52 -10.88,-1.48l-8.65 86.42c-3.21,-1.97 -6.81,-4.28 -11.03,-7.01 -25.24,-16.29 -13.33,-98.3 -8.41,-126.41l-25.87 0c-8.57,-2.94 -29.15,-10.69 -47.36,-21.9 -10.7,-6.49 -20.4,-14.19 -26.33,-21.38 -6.07,-7.38 -8.05,-12.93 -8.06,-18.07 0.05,-5.13 1.83,-13.18 13.06,-26.23 11.12,-12.84 31.5,-29.22 63.85,-47.31 13.99,-7.84 18.98,-25.53 11.14,-39.52 -7.84,-13.99 -25.54,-18.97 -39.53,-11.13 -36.08,20.27 -61.59,39.65 -79.24,59.81 -17.54,19.94 -27.41,42.15 -27.36,64.39 0,23.79 11.01,43.63 23.99,58.1 19.75,21.91 45.01,35.76 65.62,45.5 6.13,2.85 11.85,5.26 16.9,7.28l0 157.99 0 68.74 0 41.14 0 314.54c0,24.79 20.09,44.87 44.87,44.87 19.17,0 35.49,-12.04 41.92,-28.96 1.88,-4.95 2.95,-10.3 2.95,-15.91l0 -327.63 0.01 0z"/>
   <path class="fil0" d="M219.92 261.11l-5.08 -27.22 -10.16 0 -10.16 0 -5.09 27.22 2.88 6.15c3.93,1.73 8.13,2.62 12.36,2.63 4.23,-0.01 8.45,-0.9 12.39,-2.64l2.86 -6.14z"/>
  </g>
 </g>
</svg>
