<?xml version="1.0" encoding="UTF-8"?>
<!DOCTYPE svg PUBLIC "-//W3C//DTD SVG 1.1//EN" "http://www.w3.org/Graphics/SVG/1.1/DTD/svg11.dtd">
<!-- Creator: CorelDRAW 2019 (64-Bit) -->
<svg xmlns="http://www.w3.org/2000/svg" xml:space="preserve" width="600px" height="596px" version="1.1" style="shape-rendering:geometricPrecision; text-rendering:geometricPrecision; image-rendering:optimizeQuality; fill-rule:evenodd; clip-rule:evenodd"
viewBox="0 0 500.75 497.37"
 xmlns:xlink="http://www.w3.org/1999/xlink">
 <defs>
  <style type="text/css">
   <![CDATA[
    .fil0 {fill:#FBAD3A}
   ]]>
  </style>
 </defs>
 <g id="Слой_x0020_1">
  <metadata id="CorelCorpID_0Corel-Layer"/>
  <g id="_1291370611040">
   <path class="fil0" d="M430.79 395.36l-4.76 0c-4.79,-13.55 -17.59,-22.63 -31.96,-22.67l-96.69 0c-14.9,0.04 -28.04,9.78 -32.41,24.03 -5.12,-0.87 -10.33,-1.32 -15.53,-1.32 -5.2,0 -10.41,0.45 -15.53,1.32 -4.37,-14.25 -17.51,-23.99 -32.41,-24.03l-96.8 0c-14.37,0.04 -27.17,9.12 -31.96,22.67l-4.65 0c-6.25,0 -11.33,5.08 -11.33,11.33 0,6.26 5.08,11.34 11.33,11.34l3.74 0 4.31 38.99c2.54,22.96 21.95,40.35 45.06,40.35 0.09,0 0.19,0 0.28,0l63.81 0c0.09,0 0.19,0 0.27,0 23.11,0 42.52,-17.39 45.07,-40.35l4.08 -37.06c4.99,-1.15 10.12,-1.74 15.24,-1.74 5.12,0 10.26,0.59 15.24,1.73l4.08 37.06c2.55,22.97 21.96,40.36 45.07,40.36 0.09,0 0.19,0 0.27,0l63.81 0c0.09,0 0.19,0 0.28,0 23.11,0 42.52,-17.39 45.06,-40.35l3.29 -38.99 3.74 0c6.26,0 11.33,-5.08 11.33,-11.34 0,-6.25 -5.07,-11.33 -11.33,-11.33l0 0z"/>
   <path class="fil0" d="M491.09 304.69c-18.37,-6.12 -36.95,-12.24 -56.67,-18.03 -7.6,-2.26 -15.42,-4.53 -23.35,-6.68 -51.49,-13.65 -104.79,-20.64 -158.09,-20.64 -1.13,0 -2.41,0 -3.54,0 -0.7,0.01 -1.53,0.01 -2.2,0.01 -54.02,0 -108.05,7.17 -160.13,21.29 -7.93,2.15 -15.75,4.42 -23.35,6.69 -19.26,5.67 -37.74,11.33 -55.99,17.91 -4.62,1.54 -7.77,5.88 -7.77,10.78 0,6.26 5.08,11.33 11.33,11.33 0.03,0 0.06,0 0.09,0l476.04 0c0.6,0.1 1.21,0.15 1.81,0.15 6.34,0 11.48,-5.14 11.48,-11.48 0,-5.64 -4.1,-10.44 -9.66,-11.33l0 0z"/>
   <path class="fil0" d="M417.07 236.68c0.03,0 0.05,0 0.07,0 6.26,0 11.34,-5.07 11.34,-11.33 0,-0.42 -0.03,-0.84 -0.07,-1.25 -10.66,-98.49 -24.94,-194.95 -40.81,-210.82 -22.66,-22.66 -52.59,-11.33 -79.33,-2.49 -13.31,5.72 -27.51,9.3 -41.94,10.54 -16.21,-1.38 -32.23,-4.39 -47.84,-8.94 -42.16,-10.2 -85.68,-20.86 -107.56,0.9 -13.37,13.38 -27.2,84.33 -40.8,210.71 -0.05,0.44 -0.08,0.89 -0.08,1.35 0,6.26 5.08,11.33 11.34,11.33 0.02,0 0.05,0 0.08,0l335.6 0z"/>
  </g>
 </g>
</svg>
