<?xml version="1.0" encoding="UTF-8"?>
<!DOCTYPE svg PUBLIC "-//W3C//DTD SVG 1.1//EN" "http://www.w3.org/Graphics/SVG/1.1/DTD/svg11.dtd">
<!-- Creator: CorelDRAW 2019 (64-Bit) -->
<svg xmlns="http://www.w3.org/2000/svg" xml:space="preserve" width="600px" height="447px" version="1.1" style="shape-rendering:geometricPrecision; text-rendering:geometricPrecision; image-rendering:optimizeQuality; fill-rule:evenodd; clip-rule:evenodd"
viewBox="0 0 437.96 326.01"
 xmlns:xlink="http://www.w3.org/1999/xlink">
 <defs>
  <style type="text/css">
   <![CDATA[
    .fil0 {fill:#FBAD3A}
   ]]>
  </style>
 </defs>
 <g id="Слой_x0020_1">
  <metadata id="CorelCorpID_0Corel-Layer"/>
  <g id="_1291220061424">
   <path class="fil0" d="M25.78 256.56c0,3.02 2.45,5.47 5.47,5.47l10.94 0c3.02,0 5.48,-2.45 5.48,-5.47l0 -16.41 87.53 0 0 16.41c0,3.02 2.44,5.47 5.47,5.47l10.94 0c3.02,0 5.47,-2.45 5.47,-5.47l0 -16.41 5.47 0 0 -10.94 -142.24 0 0 10.94 5.47 0 0 16.41z"/>
   <path class="fil0" d="M162.55 198.3c0,0 -2.06,-0.68 -5.75,-1.71l-17.59 -46.93c0,0 -36.52,-6.08 -47.77,-6.08 -11.26,0 -47.79,6.08 -47.79,6.08l-17.59 46.93c-3.69,1.03 -5.75,1.71 -5.75,1.71l0 27.87 142.24 0 0 -27.87zm-123.22 21.77c-4.97,0 -9,-4.03 -9,-9 0,-4.97 4.03,-9.01 9,-9.01 4.98,0 9.01,4.04 9.01,9.01 0,4.97 -4.03,9 -9.01,9zm-0.2 -27.25l12.55 -33.39c8.36,-1.35 31.3,-4.9 39.76,-4.9 8.44,0 31.38,3.55 39.75,4.89l12.52 33.4c0,0 -33.17,-5.45 -52.28,-5.45 -19.11,-0.01 -52.3,5.45 -52.3,5.45zm104.4 27.25c-4.97,0 -9.01,-4.03 -9.01,-9 0,-4.97 4.04,-9.01 9.01,-9.01 4.97,0 9,4.04 9,9.01 0,4.97 -4.03,9 -9,9z"/>
   <path class="fil0" d="M309.6 8.97c6.54,-4.94 19.13,-9.02 22.34,-8.97 3.22,0.05 16.66,3.86 23.01,9.08 6.35,5.21 10.33,14.59 12.49,20.06l-9.83 10.63c0.41,1.85 0.64,3.77 0.64,5.74 0,14.54 -11.78,26.31 -26.31,26.31 -14.53,0 -26.31,-11.78 -26.31,-26.31 0,-1.97 0.23,-3.89 0.64,-5.74l-9.83 -10.63c2.17,-5.47 6.63,-15.23 13.16,-20.17zm48.06 24.41c0,0.67 -0.26,1.33 -0.74,1.95 -2.74,-3.58 -12.88,-6.23 -24.98,-6.23 -12.09,0 -22.23,2.65 -24.98,6.23 -0.48,-0.62 -0.74,-1.28 -0.74,-1.95 0,-4.52 11.52,-8.18 25.72,-8.18 14.21,0 25.72,3.66 25.72,8.18z"/>
   <rect class="fil0" x="267.74" y="265.38" width="24.67" height="7.01"/>
   <rect class="fil0" y="265.38" width="187.71" height="7.01"/>
   <rect class="fil0" x="373.66" y="265.38" width="64.3" height="7.01"/>
   <path class="fil0" d="M381.24 175.42c8.31,-19.61 11.72,-35.39 11.73,-48.41 0.01,-10.1 -2.12,-18.54 -5.58,-25.27 -5.19,-10.14 -13.13,-16.02 -19.52,-19.17 -5.09,-2.51 -9.29,-3.47 -11.17,-3.81 -0.69,-0.17 -1.42,-0.28 -2.17,-0.28l-5.86 0 -0.3 2.34c-1.66,1.45 -2.82,3.47 -3.13,5.83 -0.32,2.38 0.3,4.66 1.56,6.5l-0.63 4.94 -11.4 -13.74 5.29 -5.87 -16.24 0 5.3 5.87 -11.4 13.74 -0.63 -4.94c1.25,-1.84 1.87,-4.12 1.56,-6.5 -0.31,-2.36 -1.48,-4.38 -3.14,-5.83l-0.3 -2.34 -5.85 0c-0.78,0 -1.53,0.11 -2.24,0.29 -2.71,0.5 -10.06,2.21 -17.85,7.91 -4.62,3.4 -9.33,8.32 -12.78,15.06 -0.15,0.3 -0.29,0.63 -0.44,0.94l23.15 0c0.37,-0.31 0.75,-0.61 1.12,-0.89l0 0.89 46.2 0c7.74,0 14.04,6.3 14.04,14.03 0,7.74 -6.3,14.03 -14.04,14.03l-46.2 0 0 14.6 0 15.32 40.1 0 0 -3.32 7.4 0 0 3.32 3.12 0 0 -3.32 7.41 0 0 3.32 5.21 0 0 -15.32 0 -43.56c1.44,1.06 2.86,2.35 4.15,3.9 3.46,4.21 6.5,10.36 6.55,21.33 0.01,8.81 -2.17,20.76 -8.31,36.38 -0.22,0.55 -0.43,1.09 -0.66,1.65 -0.41,1.01 -0.83,2.03 -1.27,3.07 -0.2,0.46 -0.34,0.93 -0.46,1.4l0 -2.03 0 -2.44 -5.21 0 0 13.35 -7.41 0 0 -13.35 -3.12 0 0 13.35 -7.4 0 0 -13.35 -40.1 0 0 2.44 0 2.03c-0.12,-0.47 -0.26,-0.94 -0.45,-1.4 -0.45,-1.04 -0.87,-2.06 -1.28,-3.07 -0.05,-0.14 -0.11,-0.28 -0.16,-0.41 -5.67,-14.11 -8.15,-25.27 -8.69,-33.89l-18.72 0c0.59,12.28 4.09,26.91 11.62,44.68 1.51,3.56 4.97,5.7 8.61,5.7 1.22,0 2.46,-0.24 3.65,-0.74 2.82,-1.2 4.73,-3.61 5.42,-6.36l0 108.04c0,7.98 6.47,14.45 14.45,14.45 7.99,0 14.46,-6.47 14.46,-14.45l0 -94.32 5.42 0 0 94.32c0,7.98 6.47,14.45 14.45,14.45 7.99,0 14.46,-6.47 14.46,-14.45l0 -108.04c0.69,2.75 2.6,5.16 5.42,6.36 1.19,0.5 2.42,0.74 3.64,0.74 3.65,0 7.11,-2.14 8.62,-5.7z"/>
   <circle class="fil0" cx="226.1" cy="75.02" r="26.31"/>
   <path class="fil0" d="M346.52 126.06c5.17,0 9.36,-4.19 9.36,-9.35 0,-5.17 -4.19,-9.35 -9.36,-9.35l-240.84 0c-5.17,0 -9.35,4.18 -9.35,9.35 0,5.16 4.18,9.35 9.35,9.35l88.8 0 0 48.78 0 22.14 0 114.58c0,7.98 6.48,14.45 14.46,14.45 7.98,0 14.45,-6.47 14.45,-14.45l0 -105.54 5.42 0 0 105.54c0,7.98 6.48,14.45 14.46,14.45 7.98,0 14.45,-6.47 14.45,-14.45l0 -114.58 0 -22.14 0 -48.78 88.8 0 0 0z"/>
  </g>
 </g>
</svg>
