<?xml version="1.0" encoding="UTF-8"?>
<!DOCTYPE svg PUBLIC "-//W3C//DTD SVG 1.1//EN" "http://www.w3.org/Graphics/SVG/1.1/DTD/svg11.dtd">
<!-- Creator: CorelDRAW 2019 (64-Bit) -->
<svg xmlns="http://www.w3.org/2000/svg" xml:space="preserve" width="528px" height="440px" version="1.1" style="shape-rendering:geometricPrecision; text-rendering:geometricPrecision; image-rendering:optimizeQuality; fill-rule:evenodd; clip-rule:evenodd"
viewBox="0 0 132.15 110.27"
 xmlns:xlink="http://www.w3.org/1999/xlink">
 <defs>
  <style type="text/css">
   <![CDATA[
    .fil1 {fill:#FBAD3A}
    .fil0 {fill:white}
    .fil2 {fill:white}
   ]]>
  </style>
 </defs>
 <g id="Слой_x0020_1">
  <metadata id="CorelCorpID_0Corel-Layer"/>
  <g id="_2430885883536">
   <path class="fil0" d="M61.72 6.88c-0.25,-0.15 -0.99,-0.5 -1.59,-0.75l-1.14 -0.47 -5.48 0.92 -5.5 0.92 -0.44 -0.49c-0.24,-0.3 -1.16,-1.07 -2.03,-1.73 -1.51,-1.15 -1.64,-1.22 -2.16,-1.08 -0.63,0.15 -1.69,1.42 -1.68,2.03 0,0.58 0.33,1.15 0.9,1.59 0.3,0.23 0.5,0.45 0.46,0.51 -0.07,0.06 -1.91,0.39 -4.12,0.74 -4.03,0.64 -4.03,0.64 -4.34,0.13 -0.17,-0.3 -0.98,-1.03 -1.94,-1.73 -1.56,-1.17 -1.66,-1.22 -2.24,-1.1 -0.48,0.11 -0.78,0.32 -1.19,0.87 -0.78,1.03 -0.68,1.78 0.37,2.58l0.76 0.58 -4.31 0.68 -4.31 0.69 -2.73 -2.07c-1.52,-1.16 -4.34,-3.18 -6.26,-4.51 -2.91,-2.05 -3.85,-2.62 -5.56,-3.41 -3,-1.37 -4.99,-1.95 -6,-1.74 -0.98,0.21 -1.08,0.32 -1.18,1.25 -0.1,0.95 0.74,2.51 2.5,4.71 1.88,2.36 3.45,3.78 9.28,8.37l5.06 4 0.52 4.37 0.51 4.36 -0.8 -0.54c-1.16,-0.76 -1.76,-0.68 -2.59,0.41 -0.93,1.23 -0.88,1.5 0.57,2.78 0.81,0.74 1.53,1.24 2.26,1.56l1.06 0.5 0.51 4.15 0.5 4.15 -0.85 -0.48c-1.09,-0.64 -1.88,-0.49 -2.59,0.45 -0.42,0.55 -0.5,0.81 -0.41,1.46l0.12 0.79 1.71 1.18c0.95,0.65 1.89,1.25 2.1,1.31 0.33,0.12 0.47,0.94 0.94,5.32 0.3,2.86 0.66,5.39 0.82,5.65 0.74,1.22 1.43,1.9 3.32,3.31 2.22,1.64 3.8,2.44 4.17,2.11 0.28,-0.25 -0.17,-0.94 -1.47,-2.2 -0.52,-0.51 -0.99,-1.03 -1.04,-1.14 -0.16,-0.4 0.57,-11.22 0.78,-11.49 0.03,-0.04 0.49,0.22 1.03,0.58 1.45,0.99 1.51,0.54 0.18,-1.28l-1.1 -1.51 0.13 -1.21c0.07,-0.67 0.15,-1.27 0.17,-1.36 0.03,-0.09 0.43,0.14 0.93,0.53 1.51,1.14 1.61,0.63 0.25,-1.22 -0.48,-0.63 -0.9,-1.35 -0.95,-1.57 -0.06,-0.35 1.05,-4.09 1.33,-4.46 0.05,-0.06 0.51,0.2 1.05,0.56 1.34,0.93 1.5,0.56 0.4,-0.93 -0.88,-1.18 -0.92,-1.42 -0.51,-2.55 0.15,-0.38 0.19,-0.37 1.13,0.35 0.84,0.64 1,0.71 1.12,0.45 0.11,-0.2 -0.12,-0.67 -0.73,-1.48 -0.75,-1.06 -0.85,-1.28 -0.69,-1.76l0.19 -0.56 3.35 2.55c5.2,3.94 12.96,9.38 14.96,10.51 0.99,0.57 2.11,1.18 2.47,1.38l0.64 0.38 0.41 3.88c0.22,2.13 0.56,5.06 0.74,6.5l0.33 2.64 1.43 1.09c1.06,0.81 1.53,1.07 1.77,1.01 0.27,-0.05 0.74,-1.16 2.23,-5.24 1.02,-2.82 1.95,-5.24 2.02,-5.37 0.08,-0.13 0.44,-0.08 0.84,0.06 1.33,0.52 1.84,-0.24 0.85,-1.27 -0.28,-0.3 -0.49,-0.55 -0.45,-0.6 0.02,-0.03 2.14,-1.56 4.7,-3.41 5.45,-3.93 5.23,-3.55 3.1,-5.16l-1.33 -1.01 -2.24 0.32c-1.25,0.2 -4.22,0.66 -6.63,1.07l-4.37 0.71 -1.3 -1.36c-2.24,-2.32 -4.6,-4.3 -11.64,-9.8l-6.8 -5.33 0.38 -0.32c0.21,-0.16 0.4,-0.31 0.42,-0.3 0.02,-0.01 0.66,0.22 1.42,0.49 1.78,0.63 2.1,0.36 0.83,-0.7l-0.87 -0.72 0.71 -0.49c0.69,-0.47 0.73,-0.47 2.06,0.03 1.01,0.37 1.38,0.44 1.49,0.24 0.1,-0.2 -0.08,-0.45 -0.69,-0.96 -0.44,-0.38 -0.8,-0.7 -0.78,-0.73 0.15,-0.19 3.48,-2.34 3.8,-2.47 0.31,-0.09 0.95,0.05 2,0.47 1.19,0.46 1.58,0.55 1.69,0.35 0.1,-0.2 -0.08,-0.45 -0.69,-0.96 -0.44,-0.38 -0.77,-0.73 -0.71,-0.78 0.04,-0.06 0.61,-0.28 1.24,-0.5 1.11,-0.36 1.2,-0.36 2.6,0.16 1.73,0.66 2.02,0.71 2.22,0.45 0.11,-0.15 -0.09,-0.41 -0.73,-0.95 -0.49,-0.42 -0.87,-0.78 -0.84,-0.82 0.18,-0.24 8.56,-3.25 10.31,-3.72 0.64,-0.16 1.01,-0.14 1.46,0.11 1.53,0.86 2.64,1.35 2.92,1.35 0.49,-0.02 0.35,-0.55 -0.36,-1.39 -0.69,-0.8 -3.37,-3.04 -4.16,-3.47z"/>
   <path class="fil1" d="M69.47 73.41c-7.79,0.67 -12.44,2.15 -20.38,6.57 -3.96,2.21 -5.56,2.64 -13.09,3.75 -11.28,1.63 -21.25,3.86 -24.71,5.58 -1.72,0.84 -2.91,2.36 -3.93,5.03 -0.99,2.59 -0.64,8.32 0.58,9.42 0.53,0.47 3.64,1.34 4.86,1.34l0.84 0 0 -3c0,-2.58 0.09,-3.17 0.76,-4.59 2.09,-4.45 6.31,-6.86 11.48,-6.6 1.92,0.08 2.74,0.29 4.25,1.04 5,2.48 7.62,7.94 6.16,12.94 -0.14,0.5 1.05,0.53 27.92,0.44l28.08 -0.09 -0.17 -0.87c-0.41,-1.69 -0.17,-4.62 0.47,-6.34 0.9,-2.35 3.28,-4.88 5.78,-6.07 4.54,-2.19 10.33,-1.11 13.67,2.52 1.95,2.13 2.73,3.99 2.88,6.9 0.05,1.42 0.2,2.55 0.32,2.55 1.16,0 9.42,-1.25 10.78,-1.62 2.62,-0.73 2.77,-1.05 2.77,-6.23 -0.03,-4.21 -0.53,-7.82 -1.49,-10.84 -0.52,-1.57 -0.34,-1.51 -5.06,-1.95 -10.2,-0.99 -10.11,-0.96 -15.49,-3.52 -9.25,-4.42 -13.55,-5.76 -20.42,-6.34 -3.89,-0.34 -12.85,-0.34 -16.86,-0.02zm11.78 1.94c0,0.15 -0.55,2.21 -1.22,4.63l-1.22 4.39 -4.11 0.2c-2.24,0.09 -7.76,0.18 -12.27,0.18l-8.2 0 0 -0.96c0.03,-0.5 -0.11,-1.28 -0.26,-1.72 -0.29,-0.7 -0.23,-0.87 0.76,-1.71 2.21,-1.95 7.97,-4.1 12.62,-4.74 3.17,-0.44 13.9,-0.61 13.9,-0.27zm5.96 0.38c4.19,0.67 11.25,3.61 12.24,5.09 0.52,0.82 0.35,1.75 -0.47,2.18 -0.72,0.38 -6.01,0.84 -12.59,1.08 -4.62,0.14 -5.43,0.11 -5.32,-0.24 0.09,-0.23 0.41,-1.39 0.76,-2.58 1.83,-6.46 6.69,-6.11 7.57,-5.96 0.43,0.05 -3.3,0.26 -2.19,0.43zm-64.99 18.18c-1.92,0.64 -4.01,2.38 -5.06,4.21 -0.78,1.4 -0.9,1.89 -0.9,3.78 0,1.89 0.12,2.41 0.87,3.75 2.85,5.15 9.95,6.19 14.22,2.12 4.25,-4.07 2.94,-11.01 -2.58,-13.46 -1.84,-0.81 -4.78,-0.99 -6.55,-0.4zm78.63 0.02c-7.48,2.3 -8.32,12.01 -1.34,15.44 1.4,0.7 2.01,0.82 3.98,0.82 2.65,0 4.25,-0.58 6.08,-2.18 2.59,-2.3 3.4,-6.22 1.95,-9.51 -1.69,-3.84 -6.46,-5.84 -10.67,-4.57z"/>
   <path class="fil2" d="M118.46 38.28c-2.73,0.67 -1.6,4.46 0.88,3.83 0.96,-0.24 1.7,-1.25 1.41,-2.4 -0.23,-0.89 -1.17,-1.7 -2.29,-1.43zm-25.15 0c-1.01,0.23 -1.85,1.12 -1.56,2.38 0.21,0.92 1.25,1.78 2.44,1.44 2.52,-0.7 1.48,-4.36 -0.88,-3.82zm5.03 -0.02c-2.65,0.55 -1.8,4.41 0.76,3.87 2.49,-0.52 1.71,-4.38 -0.76,-3.87zm25.22 -0.01c-2.74,0.49 -1.87,4.34 0.63,3.9 2.54,-0.45 1.87,-4.34 -0.63,-3.9zm-29.02 9.94l0 4.13 0.02 0.35c0.1,0.14 0.15,0.42 0.42,0.68 0.28,0.28 0.49,0.25 0.78,0.44l2.69 -0.03 0.47 0.02c1.63,-0.05 3.63,0.43 3.98,-1.18 0.16,-0.7 0.12,-4.5 -0.14,-5.03 -0.57,-1.13 -2.68,-0.77 -4.29,-0.77 -1.62,0 -3.79,-0.43 -3.93,1.39zm21.15 -1.33c-1.24,0.33 -1.11,1.39 -1.11,2.75 0,4.18 -0.28,4.16 3.5,4.16 0.75,0 3.26,0.09 3.8,-0.04 0.45,-0.12 0.86,-0.49 1.02,-0.91 0.18,-0.49 0.1,-1.29 0.1,-1.85 0,-0.92 0.19,-2.95 -0.29,-3.58 -0.67,-0.84 -1.96,-0.59 -3.26,-0.59 -0.81,0 -3.18,-0.09 -3.76,0.06zm-24.48 -4.22c0.28,0.35 0.69,0.24 1.15,0.24l33.37 0c0.88,0 0.66,-0.62 0.66,-1.95 0,-0.86 0,-1.71 0,-2.57 0,-0.6 -0.04,-0.84 -0.68,-0.84l-18.8 0.02c-1.61,-0.11 -6.2,-0.02 -8.04,-0.02 -2.14,0 -4.28,0.01 -6.43,0 -1.5,0 -1.31,-0.11 -1.31,1.96 0,0.65 -0.12,2.73 0.08,3.16zm19.07 -5.47l-17.92 0c-1.97,0 -1.57,0.29 -1.58,4.4 0,1.28 -0.01,1.66 1.34,1.66l20.09 0c0.38,0 0.63,0.03 0.83,0.02 1.46,-0.09 5.34,-0.02 6.89,-0.02 1.31,0 2.62,0 3.94,0 3.35,0 2.87,0.69 2.87,-5.19 0,-0.75 -0.56,-0.87 -1.26,-0.87l-15.2 0zm-19.95 -22.28l0 8.68c0,1.87 1.14,2.75 2.92,2.75l14.52 -0.05 0.03 -14.01c-4.79,0.11 -10.24,-0.11 -15.04,0 -1.44,0.03 -2.43,1.17 -2.43,2.63zm19.4 -2.63l-0.02 14.02 13.03 0c1.59,0 2.82,0.23 3.73,-0.67 0.87,-0.86 0.71,-2.21 0.71,-3.73l0 -7.07c0,-1.43 -1.02,-2.51 -2.43,-2.55 -2.98,-0.08 -7.02,0 -10.13,0l-4.89 0zm11.33 48.06c1.77,-0.07 2.83,-0.3 3.97,-1.19 0.79,-0.62 1.79,-1.75 2.05,-3.09 2.66,-0.4 4.97,-3.09 5.04,-6.11 0.04,-1.86 0,-3.68 0,-5.46 0,-9.29 0.07,-18.55 0,-27.89 -0.04,-5.83 -0.08,-7.82 -3.33,-11.99 -0.82,-1.05 -2.6,-2.48 -3.95,-3.13 -3.44,-1.64 -5.6,-1.38 -9.73,-1.38 -3.75,0 -7.5,0 -11.25,0 -3.69,0 -6.96,-0.35 -10.18,0.94 -2.71,1.08 -4.75,3.01 -6.12,5.13 -1.75,2.72 -2.16,5.15 -2.16,8.98l0 33.67c0,1.97 0.1,3.06 1.03,4.49 0.84,1.27 1.98,2.19 3.62,2.65 0.7,0.2 0.24,0.14 0.85,1.32 0.32,0.61 0.81,1.23 1.23,1.59 1.12,0.94 2.21,1.44 4.16,1.46 1.95,0.03 24.77,0.01 24.77,0.01z"/>
  </g>
 </g>
</svg>
