<?xml version="1.0" encoding="UTF-8"?>
<!DOCTYPE svg PUBLIC "-//W3C//DTD SVG 1.1//EN" "http://www.w3.org/Graphics/SVG/1.1/DTD/svg11.dtd">
<!-- Creator: CorelDRAW 2019 (64-Bit) -->
<svg xmlns="http://www.w3.org/2000/svg" xml:space="preserve" width="530px" height="417px" version="1.1" style="shape-rendering:geometricPrecision; text-rendering:geometricPrecision; image-rendering:optimizeQuality; fill-rule:evenodd; clip-rule:evenodd"
viewBox="0 0 836.61 658.07"
 xmlns:xlink="http://www.w3.org/1999/xlink">
 <defs>
  <style type="text/css">
   <![CDATA[
    .fil0 {fill:#FBAD3A}
   ]]>
  </style>
 </defs>
 <g id="Слой_x0020_1">
  <metadata id="CorelCorpID_0Corel-Layer"/>
  <g id="_1713602341840">
   <path class="fil0" d="M818.4 445.39c-99.84,65.2 -327.36,193.56 -327.36,193.56 0,0 0,0 -0.68,0 -33.96,20.38 -69.95,22.41 -105.95,15.62 -3.4,-0.68 -230.92,-28.52 -264.2,-32.6l-0.68 -21.05 0 -249.94c17.66,-1.36 51.62,-2.72 55.7,-3.4 96.44,-6.11 190.16,16.3 284.57,34.64 19.69,4.08 33.96,21.06 33.96,41.43 0,1.36 0,3.4 0,4.76 -1.36,9.51 -5.44,18.33 -12.23,25.13 -7.47,7.47 -18.34,12.22 -29.88,12.22l-169.79 0c-7.48,0 -13.59,6.11 -13.59,12.91 0,4.75 2.72,8.82 6.11,10.86 2.04,1.36 4.08,2.04 6.8,2.04l148.74 0c4.75,0 31.24,-0.68 48.9,-2.04 8.15,-0.68 16.3,-2.04 24.45,-4.07l22.41 -6.79 253.33 -106.63c16.98,-6.8 36,-2.04 47.54,12.22 16.3,19.7 12.23,47.54 -8.15,61.13z"/>
   <polygon class="fil0" points="0,622.65 91.69,622.65 91.69,321.78 0,321.78 "/>
   <g>
    <path class="fil0" d="M483.28 0l-58.57 0c-52.27,0 -94.82,51.74 -94.82,115.57 0,63.83 42.55,115.57 94.82,115.57l58.83 0c53.06,0 96.14,-51.74 96.14,-115.57 -0.26,-63.83 -43.34,-115.57 -96.4,-115.57zm-120.03 53.58l39.39 0c-3.41,6.57 -6.3,13.66 -8.66,21.02l0 -1.84 -40.19 0c2.63,-7.09 5.78,-13.4 9.46,-19.18zm-14.19 34.94l41.24 0c-1.31,6.04 -2.1,12.6 -2.36,18.91l-41.77 0c0.53,-6.31 1.58,-12.87 2.89,-18.91zm-2.89 35.19l41.5 0c0.27,6.57 1.32,12.87 2.37,18.92l-40.98 0c-1.31,-6.05 -2.36,-12.61 -2.89,-18.92zm17.08 53.85c-3.68,-5.78 -6.83,-12.08 -9.46,-18.91l39.92 0 0 -1.84c2.37,7.35 5.26,14.45 8.67,21.01l-39.13 0 0 -0.26zm61.46 37.56c-18.39,0 -35.2,-8.14 -48.59,-21.28l36.51 0 0 -0.26c6.3,8.41 13.92,15.76 22.06,21.54l-9.98 0zm-12.08 -177.56l0 0 -36.51 -0.26c13.39,-13.4 30.2,-21.28 48.59,-21.28l10.24 0c-8.4,5.78 -15.76,13.13 -22.32,21.54zm80.9 89.83l-19.7 0 0 12.87 27.31 0c1.84,0 2.89,1.31 2.89,2.89l0 12.87c0,1.84 -1.31,3.15 -2.89,3.15l-27.58 0 0 14.19c0,1.57 -1.31,2.89 -2.89,2.89l-12.87 0c-1.83,0 -3.15,-1.32 -3.15,-2.89l0 -14.45 -11.56 0c-1.83,0 -3.15,-1.31 -3.15,-3.15l0 -12.87c0,-1.58 1.32,-2.89 3.15,-2.89l11.56 0 0 -12.87 -11.56 0c-1.83,0 -3.15,-1.32 -3.15,-2.89l0 -12.87c0,-1.84 1.32,-3.15 3.15,-3.15l11.56 0 0 -50.43c0,-1.58 1.32,-2.89 3.15,-2.89l34.68 0c19.7,0 36.24,15.23 37.29,34.93 0.53,20.49 -15.76,37.56 -36.24,37.56z"/>
    <path class="fil0" d="M493.53 73.81l-19.7 0 0 34.67 19.7 0c9.72,0 17.33,-7.62 17.33,-17.34 0,-9.71 -7.88,-17.33 -17.33,-17.33z"/>
   </g>
  </g>
 </g>
</svg>
