<?xml version="1.0" encoding="UTF-8"?>
<!DOCTYPE svg PUBLIC "-//W3C//DTD SVG 1.1//EN" "http://www.w3.org/Graphics/SVG/1.1/DTD/svg11.dtd">
<!-- Creator: CorelDRAW 2019 (64-Bit) -->
<svg xmlns="http://www.w3.org/2000/svg" xml:space="preserve" width="476px" height="476px" version="1.1" style="shape-rendering:geometricPrecision; text-rendering:geometricPrecision; image-rendering:optimizeQuality; fill-rule:evenodd; clip-rule:evenodd"
viewBox="0 0 96.63 96.63"
 xmlns:xlink="http://www.w3.org/1999/xlink">
 <defs>
  <style type="text/css">
   <![CDATA[
    .fil1 {fill:#FBAD3A}
    .fil0 {fill:white}
   ]]>
  </style>
 </defs>
 <g id="Слой_x0020_1">
  <metadata id="CorelCorpID_0Corel-Layer"/>
  <g id="_1852016330368">
   <path class="fil0" d="M34.94 37.7c-0.55,0 -1.08,-0.27 -1.39,-0.75 -0.32,-0.48 -7.79,-12.03 -7.79,-22.36 0,-10.71 4.74,-11.68 5.69,-11.77 0.63,-0.06 1.25,0.25 1.57,0.79 0.32,0.54 0.3,1.21 -0.05,1.73 -0.32,0.45 -0.47,1.02 -0.47,1.75 0,3.89 10.38,14.7 16.93,20.6 0.45,0.4 0.64,1.03 0.48,1.61 -0.16,0.58 -0.64,1.03 -1.23,1.16 -1.1,0.27 -7.42,3.78 -12.9,7.01 -0.26,0.15 -0.56,0.23 -0.84,0.23zm-5.29 -28.44c-0.35,1.27 -0.6,3 -0.6,5.33 0,7.47 4.55,16.02 6.45,19.27 2.61,-1.52 6.97,-4.02 9.87,-5.47 -4.39,-4.11 -13.61,-13.22 -15.72,-19.13z"/>
   <path class="fil0" d="M61.7 37.7c-0.29,0 -0.58,-0.08 -0.85,-0.23 -5.47,-3.23 -11.8,-6.74 -12.9,-7.01 -0.6,-0.15 -1.08,-0.62 -1.22,-1.21 -0.13,-0.57 0.04,-1.17 0.48,-1.56l0 0c7.02,-6.32 16.92,-16.89 16.92,-20.6 0,-0.73 -0.15,-1.3 -0.46,-1.75 -0.36,-0.51 -0.38,-1.19 -0.06,-1.73 0.33,-0.54 0.94,-0.85 1.57,-0.79 0.95,0.09 5.7,1.06 5.7,11.77 0,10.33 -7.48,21.88 -7.79,22.36 -0.32,0.48 -0.85,0.75 -1.39,0.75zm-10.43 -9.3c2.9,1.44 7.25,3.94 9.86,5.46 1.9,-3.25 6.45,-11.82 6.45,-19.27 0,-2.32 -0.24,-4.05 -0.59,-5.32 -2.15,6.01 -11.63,15.31 -15.72,19.13z"/>
   <path class="fil0" d="M18.31 28.88c-2.04,-2.21 -4.39,-4.88 -4.39,-4.88 1.59,-3.19 3.77,-6.17 5.97,-8.75l0 0c0,0 -14.26,5.8 -19.89,11.61l0 69.77 30.86 0c-3.46,-13.41 -20.08,-62.4 -20.08,-62.4 3.14,-1.49 7.53,-5.35 7.53,-5.35z"/>
   <polygon class="fil1" points="43.51,17.21 53.12,17.21 53.12,13.29 43.51,13.29 "/>
   <path class="fil0" d="M32.73 13.38c-0.57,0 -1.1,-0.29 -1.4,-0.77 -1.43,-2.25 -2.12,-4.06 -2.12,-5.52 0,-7.09 8.39,-7.09 14.52,-7.09 0.73,0 1.47,0 2.23,0.01 1.55,0.01 3.17,0.01 4.72,0 0.75,-0.01 1.5,-0.01 2.23,-0.01 6.12,0 14.52,0 14.52,7.09 0,1.46 -0.7,3.27 -2.12,5.52 -0.32,0.5 -0.88,0.79 -1.47,0.77 -0.57,-0.03 -1.08,-0.33 -1.36,-0.81 -0.15,-0.19 -2.52,-2.85 -14.16,-2.85 -11.65,0 -14.02,2.66 -14.17,2.85 -0.28,0.48 -0.79,0.78 -1.36,0.81 -0.02,0 -0.04,0 -0.06,0zm15.59 -6.9c8.71,0 13.03,1.42 15.15,2.72 0.56,-1.14 0.66,-1.79 0.66,-2.11 0,-2.95 -2.62,-3.85 -11.22,-3.85 -0.73,0 -1.46,0 -2.21,0.01 -1.57,0.01 -3.2,0.01 -4.76,0 -0.75,-0.01 -1.49,-0.01 -2.21,-0.01 -8.6,0 -11.23,0.9 -11.23,3.85 0,0.32 0.11,0.97 0.66,2.11 2.13,-1.3 6.44,-2.72 15.16,-2.72z"/>
   <path class="fil0" d="M76.74 15.25l0 0c2.21,2.58 4.38,5.56 5.98,8.75 0,0 -2.36,2.67 -4.39,4.88 0,0 4.39,3.86 7.52,5.35 0,0 -5.8,17.11 -11.26,33.87l16.6 0 0 5.14 -18.27 0c-3.14,9.73 -5.94,18.72 -7.14,23.39l30.85 0 0 -69.77c-5.62,-5.81 -19.89,-11.61 -19.89,-11.61z"/>
   <path class="fil1" d="M48.32 32.37c-1.1,0.52 -2.98,1.52 -5.12,2.71 1,1.44 2.09,3.18 2.5,4.49l2.62 0 0 0 2.61 0c0.41,-1.31 1.5,-3.05 2.51,-4.49 -2.15,-1.19 -4.02,-2.19 -5.12,-2.71z"/>
   <path class="fil0" d="M77.23 30.09c-0.33,-0.29 -0.53,-0.69 -0.55,-1.12 -0.02,-0.43 0.13,-0.86 0.43,-1.18 1.31,-1.43 2.78,-3.07 3.63,-4.03 -2.24,-4.11 -5.45,-7.87 -8.25,-10.72 0.02,0.5 0.03,1.01 0.03,1.55 0,6.68 -2.95,13.79 -5.28,18.36 -1.49,22.85 -10.62,55.42 -13.02,63.68l9.75 0c3.67,-13.55 17.27,-53.9 19.89,-61.63 -3.07,-1.79 -6.47,-4.77 -6.63,-4.91z"/>
   <path class="fil0" d="M24.11 14.59c0,-0.54 0.02,-1.05 0.04,-1.55 -2.8,2.85 -6.02,6.61 -8.26,10.72 0.85,0.96 2.32,2.6 3.64,4.03 0.29,0.32 0.45,0.74 0.42,1.18 -0.02,0.43 -0.22,0.83 -0.54,1.12 -0.17,0.14 -3.57,3.12 -6.63,4.91 2.61,7.73 16.21,48.08 19.89,61.63l9.74 0c-2.39,-8.26 -11.53,-40.83 -13.02,-63.68 -2.33,-4.57 -5.28,-11.68 -5.28,-18.36z"/>
   <path class="fil1" d="M50.65 95.82l0.82 0.81 1.1 0c0,0 1.21,-3.96 2.88,-10.21l-0.15 0.14 -1.16 -1.14 1.16 -1.14 0.56 0.55 -1.69 -15.5 -0.03 -0.04 0.03 -0.03 -0.23 -2.06 -0.96 0.95 -1.17 -1.15 1.17 -1.14 0.91 0.9 -1.69 -15.5 -0.39 -0.39 0.32 -0.31 -1.02 -9.37 -5.58 0 -0.26 2.37 0.72 -0.7 1.16 1.14 -1.16 1.15 -0.81 -0.8 -1.36 12.5 1 0.99 -1.16 1.15 -0.07 -0.07 -1.36 12.5 0.26 0.26 -0.32 0.32 -1.41 12.87c0.18,0.64 0.34,1.25 0.5,1.86l0.07 -0.07 1.16 1.14 -0.74 0.73c1.38,5.02 2.31,8.1 2.31,8.1l4.26 0 1.5 0 0.83 -0.81zm-6.99 -4.58l-1.17 -1.14 1.17 -1.15 1.16 1.15 -1.16 1.14zm0 -16.13l-1.17 -1.14 1.17 -1.15 1.16 1.15 -1.16 1.14zm2.33 18.42l-1.17 -1.14 1.17 -1.15 1.16 1.15 -1.16 1.14zm0 -16.13l-1.17 -1.14 1.17 -1.15 1.16 1.15 -1.16 1.14zm0 -16.12l-1.17 -1.15 1.17 -1.14 1.16 1.14 -1.16 1.15zm6.99 20.7l1.16 1.15 -1.16 1.14 -1.17 -1.14 1.17 -1.15zm-2.33 -34.54l1.16 1.14 -1.16 1.15 -1.17 -1.15 1.17 -1.14zm0 16.13l1.16 1.14 -1.16 1.15 -1.17 -1.15 1.17 -1.14zm0 16.12l1.16 1.15 -1.16 1.14 -1.17 -1.14 1.17 -1.15zm-2.33 16.13l-1.17 -1.14 1.17 -1.15 1.16 1.15 -1.16 1.14zm0 -16.13l-1.17 -1.14 1.17 -1.15 1.16 1.15 -1.16 1.14zm0 -16.12l-1.17 -1.15 1.17 -1.14 1.16 1.14 -1.16 1.15zm0 -16.13l-1.17 -1.15 1.17 -1.14 1.16 1.14 -1.16 1.15z"/>
  </g>
 </g>
</svg>
