<?xml version="1.0" encoding="UTF-8"?>
<!DOCTYPE svg PUBLIC "-//W3C//DTD SVG 1.1//EN" "http://www.w3.org/Graphics/SVG/1.1/DTD/svg11.dtd">
<!-- Creator: CorelDRAW 2019 (64-Bit) -->
<svg xmlns="http://www.w3.org/2000/svg" xml:space="preserve" width="333px" height="76px" version="1.1" style="shape-rendering:geometricPrecision; text-rendering:geometricPrecision; image-rendering:optimizeQuality; fill-rule:evenodd; clip-rule:evenodd"
viewBox="0 0 333 75.682"
 xmlns:xlink="http://www.w3.org/1999/xlink">
 <defs>
  <style type="text/css">
   <![CDATA[
    .str0 {stroke:black;stroke-width:1.001;stroke-miterlimit:22.9256}
    .fil0 {fill:black}
   ]]>
  </style>
 </defs>
 <g id="Слой_x0020_1">
  <metadata id="CorelCorpID_0Corel-Layer"/>
  <path class="fil0 str0" d="M205.838 37.158l127.153 -36.669 -114.513 23.778 -12.64 12.891zm-79.188 0.334l-127.153 -36.669 114.513 23.778 12.64 12.891zm61.704 19.331l126.793 -28.944 -119.686 22.527 -7.107 6.417zm-44.798 0.149l-127.539 -29.618 119.686 22.528 7.853 7.09zm16.096 17.707l-110.07 -26.056 102.217 18.966 7.853 7.09zm12.287 0.189l109.72 -25.74 -102.217 18.966 -7.503 6.774zm-51.885 -58.628l16.918 1.962 27.385 32.829 27.95 -32.622 16.688 -2.128 -44.137 49.101 -44.804 -49.142z"/>
 </g>
</svg>
