<?xml version="1.0" encoding="UTF-8"?>
<!DOCTYPE svg PUBLIC "-//W3C//DTD SVG 1.1//EN" "http://www.w3.org/Graphics/SVG/1.1/DTD/svg11.dtd">
<!-- Creator: CorelDRAW 2019 (64-Bit) -->
<svg xmlns="http://www.w3.org/2000/svg" xml:space="preserve" width="373px" height="417px" version="1.1" style="shape-rendering:geometricPrecision; text-rendering:geometricPrecision; image-rendering:optimizeQuality; fill-rule:evenodd; clip-rule:evenodd"
viewBox="0 0 76.58 85.56"
 xmlns:xlink="http://www.w3.org/1999/xlink">
 <defs>
  <style type="text/css">
   <![CDATA[
    .str0 {stroke:#FBAD3A;stroke-width:1.64;stroke-miterlimit:22.9256}
    .str1 {stroke:#FBAD3A;stroke-width:0.48;stroke-miterlimit:22.9256}
    .fil0 {fill:none}
    .fil1 {fill:#FBAD3A}
    .fil2 {fill:white}
   ]]>
  </style>
 </defs>
 <g id="Слой_x0020_1">
  <metadata id="CorelCorpID_0Corel-Layer"/>
  <g id="_2429754379008">
   <path class="fil0 str0" d="M65.82 81.66c-3.58,2.25 -7.71,3.29 -12.08,3.05 -3.15,-0.21 -6.27,-0.92 -9.19,-2.24 -1.2,-0.54 -2.45,-1.16 -3.85,-1.44 -1.3,-0.34 -2.44,-1.15 -3.47,-2.16 -1.2,-1.26 -2.31,-2.58 -3.41,-3.89 -0.31,-0.28 -0.53,-0.62 -0.92,-0.84 -2.39,-1.43 -3.92,-3.56 -5.5,-5.77 -0.39,-0.58 -0.97,-0.92 -1.52,-1.4 -1.39,-1.37 -2.19,-3.13 -3.33,-4.67 -1.61,-2.07 -2.6,-4.66 -4.88,-6.29 -1.28,-0.84 -1.97,-2.07 -2.64,-3.44 -0.71,-1.45 -0.8,-1.4 -2.42,-0.93 -0.78,0.28 -1.53,0.41 -2.42,0.16 -1.92,-0.54 -3.28,-2.41 -3.22,-4.5 0.04,-1.59 0.04,-1.59 -1.55,-1.99 -1.45,-0.37 -2.87,-0.87 -3.73,-2.36 -0.94,-1.42 -1.32,-2.73 -0.09,-4.15 0.28,-0.3 0.5,-0.69 0.23,-1.11 -1.34,-1.65 -0.6,-3.46 -0.12,-5.11 0.22,-0.75 0.25,-1.25 -0.11,-1.98 -1.46,-3.12 -0.47,-6.19 1.79,-7.68 0.84,-0.56 1.01,-1.03 0.85,-2.01 -0.27,-1.87 0.23,-3.65 2.16,-4.56 1.85,-0.86 2.44,-2.33 2.61,-4.25 0.32,-2.99 2.03,-4.96 4.88,-5.75 0.83,-0.2 1.48,-0.5 1.87,-1.36 1.49,-2.67 4.31,-3.69 7.23,-2.73 0.47,0.17 0.95,0.34 1.34,0.56 0.39,0.22 0.69,0.14 1.06,-0.22 1.65,-1.33 3.52,-1.96 5.63,-0.95 0.53,0.25 1.06,0.14 1.62,-0.11 1.96,-1.05 3.96,-0.93 5.91,0.2 1.03,0.64 2.09,0.78 3.34,0.32 1.57,-0.56 3.15,-0.16 4.35,1.1 0.66,0.64 1.36,1.15 2.42,1.29 1.06,0.15 2,0.85 2.67,1.85 0.61,0.93 1.36,1.52 2.36,1.94 1.2,0.53 2.36,1.21 2.16,2.91 -0.11,0.55 0.39,0.58 0.72,0.72 2.26,0.68 2.84,1.38 3.03,3.67 0.08,0.67 0.41,1.17 0.83,1.62 1.8,2.54 1.48,5.16 -0.35,8.42 -0.11,0.19 -0.36,0.36 -0.28,0.66 0.91,2.29 1.6,4.61 3.15,6.6 1.42,1.95 2.5,4.13 3.27,6.39 0.19,0.48 0.3,1.01 0.61,1.29 2.3,2.94 2.98,6.7 4.72,9.89 2.8,5.14 3.53,10.8 4.17,16.52 0.24,2.37 -0.85,4.54 -1.67,6.77 -0.73,1.8 -1.97,3.22 -3.31,4.47 -1.65,1.33 -2.99,2.58 -4.92,3.49z"/>
   <g>
    <path class="fil1 str1" d="M59.23 31.2c-0.23,1.12 -1.66,2.06 -0.38,3.26 0.36,0.37 0.33,0.87 0.08,1.4 -0.96,1.47 -1.55,3.31 -3.25,4.19 -0.42,0.28 -0.84,0.56 -1.01,1.03 -0.2,0.61 -0.4,1.23 0.58,1.43 0.97,0.2 1.86,0.45 2.7,0.62 0.33,-0.22 0.25,-0.53 0.36,-0.72 0.8,-2.81 0.61,-5.83 2.07,-8.36 0.15,-0.33 0.03,-0.5 -0.13,-0.75 -0.28,-0.78 -0.64,-1.51 -1.02,-2.1z"/>
    <g>
     <path class="fil1 str1" d="M23.22 54.75c-1.59,0.69 -1.59,0.69 -1.48,1.22 0.05,0.09 0.16,0.25 0.3,0.28 0.67,-0.08 1.12,-0.49 1.18,-1.5z"/>
     <path class="fil1 str1" d="M63.29 73.46c0.09,-1.15 -0.86,-1.85 -1.41,-2.69 -0.72,-1.09 -1.75,-2.09 -2.64,-3.07 -0.16,-0.25 -0.64,-0.42 -0.92,-0.12 -0.28,0.31 -0.19,0.61 0.11,0.89 1.08,1.46 2.19,2.77 3.27,4.23 0.42,0.44 0.84,0.89 1.59,0.76z"/>
     <path class="fil1 str1" d="M64.28 48.34c0.53,0.98 1.17,1.76 1.5,2.63 0.44,1.03 0.97,0.92 1.7,0.56 1.03,-0.44 1.12,-0.86 0.67,-1.89 -1.02,-2.09 -1.02,-2.09 -3.17,-1.52 -0.14,-0.03 -0.3,0.08 -0.7,0.22z"/>
     <path class="fil1 str1" d="M52.09 57.24c-1.26,0.83 -1.4,1.17 -0.26,2.34 0.47,0.53 0.89,0.98 1.56,1.26 0.47,0.17 0.97,0.2 1.28,-0.24 0.65,-0.67 0.57,-1.7 0.6,-2.57 0.03,-0.86 -0.81,-0.31 -1.31,-0.34 -0.14,-0.02 -0.47,-0.16 -0.53,-0.25 -0.27,-1.14 -0.81,-0.31 -1.34,-0.2z"/>
     <path class="fil1 str1" d="M67.51 64.16c-1.83,-2.04 -4.12,-2.94 -6.68,-2.81 -0.14,-0.03 -0.22,0.02 -0.45,0.05 -0.61,0.17 -0.84,0.56 -0.28,1.03 1.17,1.04 2.61,1.77 4.17,1.94 1.01,0.06 2.1,-0.3 3.24,-0.21z"/>
     <path class="fil1 str1" d="M66.53 45.54c-1.55,-3.08 -3.05,-6.07 -4.65,-9.22 -0.31,0.44 -0.48,0.55 -0.45,0.78 -0.57,2.42 -0.49,4.9 -1.2,7.29 -0.09,0.42 0.08,0.67 0.25,0.93 1.05,1.59 1.94,1.84 3.67,1.18 0.84,-0.19 1.57,-0.55 2.38,-0.96z"/>
     <path class="fil1 str1" d="M52.38 82.11c-0.1,-1.62 0.01,-3.26 0.27,-4.88 0.15,-1.06 0.23,-2.2 0.38,-3.26 0.06,-1 -0.3,-1.37 -1.42,-1.23 -1.92,0.19 -2.29,0.55 -2.77,2.55 -0.43,2.09 -0.71,4.21 -1.09,6.38 1.37,0.43 2.87,0.88 4.63,0.44z"/>
     <path class="fil1 str1" d="M23.16 57.21c-0.12,0.19 -0.23,0.38 -0.31,0.44 0.99,1.51 2.05,3.1 3.04,4.61 0.72,1.09 1.64,1.57 3.01,1.27 0.98,-0.16 2.04,-0.02 3.07,-0.1 1.03,-0.08 2.06,-0.16 3.09,-0.24 0.76,-0.13 1.2,-0.55 0.98,-1.25 -0.33,-0.86 0.15,-1.42 0.71,-2.03 0.7,-0.58 1.26,-1.19 2.07,-1.97 -5.38,0.42 -10.57,0.6 -15.66,-0.73z"/>
     <path class="fil1 str1" d="M50.74 46.08c-0.86,0.34 -1.47,0.5 -2.17,0.72 -0.31,0.08 -0.56,0.25 -0.65,0.67 -0.76,2.67 -3.19,3.55 -5.42,4.18 -1.48,0.5 -2.93,0.86 -4.14,1.77 -1.34,0.89 -2.7,1.19 -4.29,1.15 -1.87,-0.09 -1.87,-0.09 -3.49,1.47 0.75,0.22 1.56,0.17 2.28,0.17 2.04,-0.02 4.1,-0.17 6.16,-0.33 3.63,-0.35 7.17,-1.01 10.61,-2.55 0.72,-0.36 1.09,-0.72 1.17,-1.5 0.18,-1.93 -0.4,-3.71 -0.06,-5.75z"/>
     <path class="fil1 str1" d="M63.33 50.9c-1.11,-1.31 -2.78,-2.74 -4.31,-4.14 -0.86,-0.76 -1.75,-1.37 -2.72,-1.94 -1.62,-0.98 -2.65,-0.54 -3.16,1.25 -0.54,2.28 -0.99,4.51 -0.75,6.88 0.08,1.03 0.49,1.84 1.72,1.87 1.23,0.04 2.2,0.6 2.84,1.74 0.36,0.73 1.05,0.87 1.75,0.65 1.26,-0.47 2.65,-0.91 3.85,-1.46 1.85,-0.86 2.21,-1.94 1.3,-3.87 0.03,-0.14 -0.14,-0.39 -0.52,-0.98z"/>
     <path class="fil1 str1" d="M45.57 56.85c0.67,0.65 1.28,0.48 1.89,0.68 0.28,0.06 0.45,0.31 0.45,0.67 0,0.36 -0.23,0.39 -0.53,0.47 -0.48,0.19 -0.92,-0.11 -1.43,-0.14 -2.5,-0.15 -4.96,0.14 -7.08,1.67 -1.37,1.02 -1.55,2.22 -0.16,3.23 1.34,0.93 2.56,2.05 3.73,3.08 1.66,1.43 3.44,2.66 5.39,3.79 2.53,1.46 4.07,0.68 4.94,-1.82 0.45,-1.14 0.62,-2.34 1.41,-3.34 0.7,-0.95 0.29,-1.76 -1,-2.24 -1.28,-0.47 -2.33,-1.34 -3.08,-2.29 -0.58,-0.7 -0.89,-1.71 -1.13,-2.63 -0.19,-0.84 0.92,-0.97 1.12,-1.58 0.08,-0.42 0.5,-0.7 0.39,-1.23 -1.48,0.5 -3.04,1.05 -4.91,1.68z"/>
     <path class="fil1 str1" d="M45.64 80.66c1.04,-2.62 1.72,-5.23 1.98,-7.94 0.06,-0.64 -0.16,-0.97 -0.74,-1.31 -2.03,-1.07 -3.78,-2.44 -5.59,-3.9 -1,-0.78 -2.09,-1.51 -3.22,-2.33 -0.45,-0.3 -0.92,-0.47 -1.57,-0.17 -2.12,0.8 -4.35,0.71 -6.52,0.7 -0.36,0 -0.89,-0.26 -1.15,0.27 -0.16,0.48 0.14,0.76 0.45,1.04 1.97,2.07 3.99,4.22 5.8,6.4 2.02,2.52 4.55,4.34 7.25,6.06 1.11,0.59 2.14,1.23 3.31,1.18z"/>
     <path class="fil1 str1" d="M54.64 82.43c0.67,0.28 1.42,0.14 2,0.12 2.43,-0.16 4.64,-1.02 6.7,-1.9 4.61,-1.96 7.78,-5.38 8.94,-10.36 0.48,-2.01 0.55,-4.1 0.16,-6.14 -0.57,-3.59 -1.17,-7.05 -2.35,-10.49 -0.14,-0.39 -0.08,-1.03 -0.81,-1.03 -0.94,0.02 -2.59,1.35 -2.65,2.36 -0.09,1.14 -0.79,1.72 -1.74,2.11 -1.84,0.86 -3.72,1.85 -5.84,1.93 -0.8,0.05 -1.59,0.32 -1.84,1.21 0.58,0.34 0.89,-0.1 1.2,-0.19 3.85,-1.09 7.56,-0.77 10.7,1.97 0.36,0.37 0.89,0.62 0.63,1.15 -0.62,1.25 -1.09,2.53 -2.8,2.69 -0.8,0.05 -1.61,0.11 -2.42,0.16 -1.23,-0.04 -2.42,-0.57 -3.76,-0.77 0.25,0.56 0.64,0.78 0.94,1.06 1.28,1.21 2.47,2.47 3.25,4 0.72,1.46 1.29,2.88 2.27,4.17 0.63,0.78 0.29,2.09 -0.6,2.2 -1.42,0.21 -2.93,1.21 -4.29,-0.66 -0.97,-1.29 -2.44,-2.24 -3.69,-3.22 -0.87,-0.76 -1.61,-1.71 -2.2,-2.77 -0.22,-0.34 -0.35,-0.73 -0.66,-1.01 -0.39,-0.59 -0.81,-0.31 -1.12,0.14 -0.22,0.38 -0.08,0.78 -0.08,1.14 -0.04,1.22 0.85,2.2 0.46,3.43 -0.74,2.9 -0.53,5.77 -0.4,8.7z"/>
    </g>
   </g>
   <path class="fil2" d="M37.98 38.25c-1.68,1.11 -3.35,1.86 -5.08,2.16 -0.53,0.11 -1.12,0.13 -1.62,0.1 -0.5,-0.03 -0.72,-0.36 -0.86,-0.75 -0.11,-0.53 0.23,-0.76 0.62,-0.89 0.47,-0.2 1,-0.31 1.53,-0.42 2.88,-0.57 5.22,-1.76 6.38,-4.57 0.25,-0.53 0.53,-1.56 1.4,-1.16 0.86,0.39 0.33,1.22 0.13,1.84 -0.2,1.7 -0.94,3.14 -2.5,3.69zm1.43 -16.24c0.61,0.92 0.24,3.09 -0.63,3.79 -1.34,0.88 -3.57,0.79 -4.34,-0.38 -0.7,-0.87 -0.13,-3.66 0.88,-4.32 0.95,-0.75 3.37,-0.18 4.09,0.91zm-2.04 1.47c-0.16,-0.26 -0.36,-0.37 -0.69,-0.15 -0.34,0.22 -0.67,0.45 -0.57,0.98 0.09,0.3 0.34,0.5 0.59,0.33 0.56,-0.24 0.64,-0.66 0.67,-1.16zm-4.49 -4.62c-0.17,0.11 -0.51,0.33 -0.81,0.41 -0.62,0.17 -1.06,-0.14 -1.01,-0.78 0.09,-1.15 2.13,-2.61 3.3,-2.3 0.56,0.11 0.7,0.5 0.39,0.95 -0.42,0.64 -1.17,1.13 -1.87,1.72zm-0.12 14.05c-0.25,0.16 -0.59,0.39 -0.89,0.47 -0.42,0.27 -0.92,0.24 -1.26,-0.26 -0.35,-0.72 0.18,-0.83 0.62,-0.89 0.84,-0.19 1.2,-0.91 1.49,-1.58 0.25,-0.53 0.58,-0.75 1.2,-0.55 0.66,0.28 0.19,0.83 0.1,1.25 -0.22,0.75 -0.67,1.17 -1.26,1.56zm-12.24 -6.13c0.25,0.2 0.19,0.47 0,0.72 -0.79,1 -1.54,1.87 -2.13,2.98 -0.23,0.39 -0.67,0.44 -1.09,0.36 -0.48,-0.17 -0.61,-0.56 -0.53,-0.98 0.17,-0.84 2.22,-3.03 3.05,-3.22 0.31,-0.09 0.51,0.03 0.7,0.14zm-5.67 22.42c-0.97,-1.29 -1.69,-2.74 -0.82,-4.16 0.57,-0.97 0.09,-1.5 -0.35,-2.18 -1.91,-2.71 -3.66,-5.53 -4.37,-8.79 -0.11,-0.54 -0.3,-1.01 -0.72,-1.46 -0.91,-1.2 -1.16,-2.85 -0.76,-4.07 0.68,-2.26 1.08,-4.57 2.23,-6.65 0.81,-1.51 1.99,-2.64 2.86,-4.06 2.61,-4.62 6.53,-7.81 11.69,-9.29 8.01,-2.28 15.28,-0.94 21.81,4.38 1.31,1.06 2.53,1.82 4.31,1.97 2.65,0.18 3.48,2.16 2.13,4.5 -0.03,0.13 -0.17,0.47 -0.34,0.58 -0.28,0.31 -0.28,0.67 -0.08,1.14 1.35,2.96 0.25,5.86 -0.18,8.67 -0.4,2.31 -1.88,4.26 -2.81,6.32 -1.35,3.06 -3.68,5.2 -6.22,7 -3.13,2.19 -6.46,3.9 -10.2,4.81 -3.34,0.76 -6.64,1.25 -10.06,0.62 -0.84,-0.17 -2.23,-0.09 -2.09,-1.15 0.17,-1.2 1.45,-0.72 2.23,-0.63 3.21,0.29 6.5,0.17 9.6,-0.8 4.55,-1.32 8.65,-3.31 11.96,-6.69 3.3,-3.39 4.82,-7.65 5.68,-12.19 0.51,-2.87 0.08,-5.72 0.37,-8.56 0.03,-0.86 -0.5,-1.11 -1.14,-1.17 -2.09,-0.43 -3.59,-1.97 -5.31,-3.12 -2.47,-1.74 -5.15,-3.23 -8.13,-3.91 -5.04,-1.25 -9.75,-0.54 -14.28,1.73 -0.97,0.52 -2.06,0.88 -2.87,1.66 -0.17,0.11 -0.23,0.39 -0.12,0.56 0.11,0.16 0.31,0.28 0.53,0.25 0.28,0.06 0.59,-0.03 0.73,-0.36 0.59,-1.48 1.84,-1.22 3.01,-1.27 0.45,-0.06 1.06,-0.22 1.06,0.51 0.03,0.58 -0.12,1.28 -0.95,1.47 -0.53,0.11 -0.98,0.16 -1.43,0.22 -0.61,0.16 -0.89,0.47 -0.28,1.03 0.36,0.36 0.89,0.61 0.55,1.2 -0.33,0.58 -0.92,0.61 -1.45,0.35 -1.19,-0.53 -1,0.31 -1.15,1 -0.14,0.7 0,1.81 -0.81,1.87 -0.81,0.05 -0.72,-1.09 -1.14,-1.9 -0.61,0.52 -0.81,1.14 -1.37,1.39 -0.56,0.24 -1,0.3 -0.92,-0.48 0.06,-0.28 0.12,-0.56 -0.22,-0.7 -0.08,0.05 -0.14,-0.03 -0.22,0.03 -0.08,0.05 -0.25,0.16 -0.28,0.3 -3.62,4.92 -4.06,10.27 -2.46,15.97 0.79,2.84 2.23,5.39 3.7,7.79 0.47,0.89 1.05,1.59 0.52,2.79 -0.56,0.97 0.16,1.7 1.22,1.84 0.22,-0.02 0.36,0.01 0.58,-0.02 0.59,-0.03 1.23,0.03 1.31,0.7 0.14,0.75 -0.51,1.06 -1.06,1.31 -0.81,0.41 -1.71,0.16 -2.65,0.18 0.44,0.67 0.35,1.45 0.83,1.98 2.38,2.89 2.44,2.97 5.68,0.95 0.84,-0.56 1.65,-0.61 2.45,0.06 0.06,0.09 0.17,0.25 0.31,0.28 1.05,0.87 2.25,1.04 3.51,0.94 1.11,-0.14 1.67,-0.75 2.09,-1.75 0.31,-0.81 1.12,-0.86 1.99,-0.47 2.16,1.1 4.34,0.38 5.99,-0.95 1.15,-1 2.15,-1.3 3.63,-1.43 2.15,-0.22 4.02,-1.21 4.45,-3.66 0.14,-1.06 0.79,-1.37 1.73,-1.39 1.31,-0.02 2.18,-0.72 3.13,-1.46 0.62,-0.53 0.73,-1.09 0.29,-1.76 -0.77,-1.54 -0.69,-1.59 0.87,-2.14 1.17,-0.42 2.15,-0.94 2.99,-1.86 0.65,-0.66 1.04,-1.53 0.46,-2.23 -1.42,-1.59 -0.66,-2.81 0.54,-4.09 0.17,-0.11 0.23,-0.39 0.4,-0.5 1.12,-1.59 1.15,-1.73 -0.24,-3.1 -0.78,-0.81 -0.58,-1.42 0.06,-2.09 0.2,-0.25 0.51,-0.33 0.62,-0.53 1.87,-2.08 2.11,-5.01 0.17,-6.85 -0.42,-0.45 -0.84,-0.9 -0.83,-1.62 -0.02,-2.04 -0.08,-2.12 -2.03,-1.43 -0.23,0.02 -0.39,0.13 -0.56,0.24 -0.56,0.25 -1.01,0.31 -1.48,-0.22 -0.39,-0.59 -0.16,-0.98 0.09,-1.51 1.26,-1.92 0.85,-2.73 -1.38,-2.82 -1.09,-0.01 -1.64,-0.48 -1.95,-1.49 -0.57,-2.15 -0.71,-2.17 -2.72,-1.93 -1.34,0.16 -1.59,-0.04 -2.2,-1.32 -0.66,-1.73 -1.22,-1.85 -2.78,-0.93 -1.59,1.05 -1.59,1.05 -3.12,-0.35 -1.61,-1.34 -3.42,-1.71 -5.18,-0.55 -1.35,0.89 -2.29,0.91 -3.49,0.01 -0.94,-0.7 -1.84,-0.59 -2.82,0.3 -1.17,1.14 -2.62,1.49 -4.18,0.59 -0.53,-0.25 -1.14,-0.45 -1.78,-0.5 -1.17,0.05 -2.57,0.12 -2.91,1.43 -0.42,1.73 -1.46,2.17 -3.05,2.5 -2.56,0.49 -4.44,3.66 -4.01,6.14 0.36,1.82 0.22,2.15 -1.49,2.67 -2.96,1 -3.63,2.53 -2.25,5.35 0.47,0.89 0.11,1.25 -0.56,1.7 -0.34,0.22 -0.84,0.19 -1.15,0.27 -1.37,0.3 -2.32,1.41 -2.3,2.72 -0.03,1.23 0.11,2.34 0.91,3.38 0.83,0.89 0.8,1.76 -0.04,2.68 -1.23,1.41 -1.15,2.08 0.15,3.51 0.7,0.87 0.64,1.51 0,2.17 -0.2,0.25 -0.37,0.36 -0.56,0.61 -0.79,1 -0.71,2.04 0.35,2.91 0.86,0.75 1.86,1.17 3,1.26 0.78,0.09 1.48,0.23 2.2,0.6 0.53,0.25 0.89,0.61 0.53,1.34 -0.15,0.33 -0.34,0.58 -0.48,0.91 -0.37,1.45 0.9,3.74 2.16,3.64 1,0.06 2.14,0.15 3.12,-0.74zm9.98 -12.62c-1.43,0.94 -2.99,0.77 -3.82,-0.49 -0.88,-1.34 -0.48,-3.65 0.69,-4.43 1.17,-0.77 3.79,-0.09 4.48,1.14 0.61,0.92 -0.18,3.01 -1.35,3.78zm-0.72 -2.54c-0.27,-0.42 -0.63,-0.42 -1.03,-0.28 -0.55,0.25 -0.5,0.69 -0.31,1.17 0.14,0.39 0.56,0.48 0.81,0.31 0.42,-0.28 0.64,-0.67 0.53,-1.2z"/>
  </g>
 </g>
</svg>
