<?xml version="1.0" encoding="UTF-8"?>
<!DOCTYPE svg PUBLIC "-//W3C//DTD SVG 1.1//EN" "http://www.w3.org/Graphics/SVG/1.1/DTD/svg11.dtd">
<!-- Creator: CorelDRAW 2019 (64-Bit) -->
<svg xmlns="http://www.w3.org/2000/svg" xml:space="preserve" width="1831px" height="477px" version="1.1" style="shape-rendering:geometricPrecision; text-rendering:geometricPrecision; image-rendering:optimizeQuality; fill-rule:evenodd; clip-rule:evenodd"
viewBox="0 0 1900 494.46"
 xmlns:xlink="http://www.w3.org/1999/xlink">
 <defs>
  <style type="text/css">
   <![CDATA[
    .fil0 {fill:#D73786}
    .fil2 {fill:#FEFEFE;fill-rule:nonzero}
    .fil1 {fill:#FEFEFE;fill-rule:nonzero}
   ]]>
  </style>
 </defs>
 <g id="Слой_x0020_1">
  <metadata id="CorelCorpID_0Corel-Layer"/>
  <path class="fil0" d="M66.22 114.23c8.53,17.26 22.03,31.83 34.11,46.98l68.54 63.06c7.49,6.96 15.67,16.59 22.8,24.15 2.08,2.2 3.08,4.04 5,6.45 2.63,3.54 24.38,35.39 24.55,35.51 -1.32,-14.84 -20.72,-42.72 -30.23,-56.18l-17.85 -21.34c-10.32,-12.36 -21.74,-24.36 -32.59,-36.35 -6.96,-7.3 -11.24,-14.03 -16.68,-22.45 -19.46,-30.17 -28.02,-70.85 -3.92,-102.12 5.55,-7.21 15.1,-14.91 23.34,-19.01 23.88,-11.85 56.58,-7.92 75.69,9.99 12.1,10.44 20.55,22.31 24.16,37.62 0.74,3.16 0.91,8.51 0.91,15.02l1.99 0c4.81,-19.28 27.03,-34.33 48.64,-34.33 39.54,0 67.51,37.19 67.51,71.44 0,34.43 -25.88,75.55 -56.19,94.06l-46.2 30.12c-7.55,5.64 -13.99,11.3 -20.56,17.9 -3.46,3.48 -15.04,17.73 -15.04,23.05 0,2.71 3.58,8.59 3.97,12.99l1.99 0c3.36,-13.5 24.14,-31.43 35.94,-38.77 12.04,-7.49 22.5,-13.32 35.22,-19.97 30.14,-15.77 57.85,-26.65 79.86,-52.47 22.43,-26.29 35.58,-61.61 23.68,-94.73 -5.31,-14.78 -16.64,-27.02 -29.06,-36.85 -21.47,-17 -62.02,-29.48 -90.34,-20.03 -9.87,3.29 -18.44,8.43 -25.57,15.07 -4.72,4.4 -8.49,10.66 -12.86,15.82 0,-13.07 -5.93,-22.68 -11.35,-31.14 -10.79,-16.88 -29.58,-32.25 -49.05,-39.51 -20.32,-7.59 -32.86,-8.21 -54.76,-8.21 -12.39,0 -31.03,6.58 -40.92,12.79 -10.8,6.78 -20.75,15.86 -27.18,26.55 -13.85,23.04 -8.89,51.94 2.45,74.89z"/>
  <g id="_2534645327168">
   <polygon class="fil0" points="354.25,386.83 322.25,388.11 346.69,405.99 338.89,436.76 364.46,420.52 391.38,436.76 382.42,406.04 406.74,388.11 374.74,386.83 364.46,358.71 "/>
   <polygon class="fil0" points="266.67,386.83 234.67,388.11 259.11,405.99 251.31,436.76 276.88,420.52 303.8,436.76 294.84,406.04 319.16,388.11 287.15,386.83 276.87,358.71 "/>
   <polygon class="fil0" points="178.85,386.83 146.85,388.11 171.29,405.99 163.49,436.76 189.06,420.52 215.98,436.76 207.02,406.04 231.34,388.11 199.34,386.83 189.05,358.71 "/>
   <polygon class="fil0" points="91.27,386.83 59.27,388.11 83.71,405.99 75.91,436.76 101.47,420.52 128.39,436.76 119.43,406.04 143.76,388.11 111.75,386.83 101.47,358.71 "/>
  </g>
  <polygon class="fil1" points="0,217.3 0,41.14 18.63,41.14 18.63,217.3 "/>
  <path class="fil2" d="M459.26 217.3l0 -176.16 26.22 0 31.27 124.7c2.89,11.6 4.99,20.29 6.31,26.08 1.51,-6.4 3.88,-15.83 7.08,-28.25l31.82 -122.53 23.43 0 0 176.16 -16.81 0 0 -147.37 -38.59 147.37 -15.76 0 -38.17 -150.08 0 150.08 -16.8 0zm214.77 -15.99c-6.03,6.85 -11.85,11.64 -17.42,14.47 -5.57,2.83 -11.54,4.23 -17.95,4.23 -10.52,0 -18.62,-3.41 -24.28,-10.26 -5.66,-6.8 -8.5,-15.54 -8.5,-26.16 0,-6.23 1.08,-11.93 3.21,-17.09 2.15,-5.17 4.95,-9.27 8.4,-12.39 3.48,-3.12 7.35,-5.49 11.69,-7.09 3.2,-1.11 8.04,-2.18 14.47,-3.24 13.11,-2.05 22.81,-4.55 28.99,-7.42 0.07,-2.96 0.1,-4.84 0.1,-5.62 0,-8.78 -1.54,-14.97 -4.62,-18.58 -4.16,-4.88 -10.34,-7.3 -18.53,-7.3 -7.66,0 -13.33,1.81 -16.96,5.38 -3.66,3.56 -6.34,9.88 -8.09,18.98l-15.88 -2.95c1.44,-9.06 3.81,-16.4 7.13,-21.98 3.33,-5.58 8.13,-9.84 14.41,-12.87 6.25,-3 13.54,-4.52 21.79,-4.52 8.19,0 14.87,1.28 20.01,3.86 5.11,2.58 8.89,5.78 11.29,9.67 2.4,3.9 4.1,8.82 5.08,14.77 0.52,3.69 0.8,10.33 0.8,19.89l0 28.7c0,20.05 0.34,32.72 1.02,38.09 0.64,5.37 2,10.5 3.97,15.42l-16.99 0c-1.63,-4.55 -2.68,-9.88 -3.14,-15.99zm-1.29 -47.98c-5.91,3.2 -14.78,5.91 -26.6,8.12 -6.71,1.27 -11.45,2.71 -14.22,4.31 -2.77,1.6 -4.89,3.93 -6.4,6.97 -1.51,3.07 -2.28,6.48 -2.28,10.25 0,5.7 1.64,10.5 4.93,14.31 3.29,3.81 8.09,5.74 14.4,5.74 6.25,0 11.82,-1.8 16.71,-5.45 4.87,-3.61 8.47,-8.57 10.75,-14.85 1.75,-4.88 2.61,-12.05 2.61,-21.52l0.1 -7.88zm41.21 63.97l0 -127.69 14.59 0 0 19.56c3.72,-9.06 7.17,-15.05 10.34,-17.92 3.17,-2.91 6.65,-4.35 10.43,-4.35 5.48,0 11.05,2.3 16.72,6.85l-5.79 19.97c-3.94,-2.95 -7.88,-4.43 -11.82,-4.43 -3.54,0 -6.71,1.44 -9.51,4.27 -2.8,2.83 -4.8,6.76 -6,11.81 -1.82,7.66 -2.71,16.07 -2.71,25.22l0 66.71 -16.25 0zm61.68 -151.56l0 -24.6 16.25 0 0 24.6 -16.25 0zm0 151.56l0 -127.69 16.25 0 0 127.69 -16.25 0zm41.03 0l0 -127.69 14.58 0 0 18.13c7.02,-13.91 17.18,-20.84 30.45,-20.84 5.78,0 11.08,1.4 15.91,4.15 4.83,2.74 8.46,6.39 10.86,10.86 2.4,4.47 4.09,9.8 5.05,15.95 0.59,4.02 0.89,11.03 0.89,21.04l0 78.4 -16.25 0 0 -77.58c0,-8.82 -0.62,-15.42 -1.88,-19.77 -1.26,-4.34 -3.5,-7.83 -6.71,-10.45 -3.2,-2.59 -6.98,-3.9 -11.29,-3.9 -6.9,0 -12.84,2.91 -17.85,8.78 -5.02,5.82 -7.51,16.93 -7.51,33.25l0 69.67 -16.25 0zm96.24 -38.14l16.07 -3.44c0.89,8.57 3.41,15.13 7.54,19.72 4.12,4.56 9.91,6.85 17.3,6.85 7.47,0 13.02,-2.01 16.65,-6.07 3.6,-4.02 5.41,-8.77 5.41,-14.22 0,-4.88 -1.63,-8.74 -4.86,-11.53 -2.28,-1.93 -7.82,-4.34 -16.62,-7.34 -11.88,-3.98 -20.1,-7.42 -24.72,-10.33 -4.58,-2.95 -8.06,-6.97 -10.43,-12.14 -2.37,-5.12 -3.57,-10.82 -3.57,-17.06 0,-5.7 0.99,-10.95 2.93,-15.78 1.96,-4.84 4.61,-8.86 7.97,-12.06 2.52,-2.46 5.97,-4.55 10.31,-6.27 4.37,-1.72 9.01,-2.59 14,-2.59 7.51,0 14.1,1.44 19.76,4.35 5.7,2.87 9.88,6.81 12.59,11.73 2.68,4.96 4.55,11.56 5.57,19.84l-15.88 2.96c-0.71,-6.64 -2.8,-11.85 -6.25,-15.58 -3.45,-3.74 -8.31,-5.58 -14.62,-5.58 -7.42,0 -12.74,1.64 -15.91,4.92 -3.17,3.28 -4.77,7.13 -4.77,11.52 0,2.79 0.64,5.33 1.97,7.59 1.32,2.29 3.38,4.22 6.21,5.74 1.64,0.82 6.38,2.66 14.32,5.53 11.45,4.06 19.45,7.42 24,10.01 4.56,2.58 8.13,6.39 10.71,11.32 2.62,4.96 3.91,11.11 3.91,18.49 0,7.17 -1.57,13.94 -4.74,20.3 -3.17,6.35 -7.72,11.27 -13.66,14.76 -5.97,3.48 -12.71,5.21 -20.22,5.21 -12.44,0 -21.95,-3.45 -28.47,-10.3 -6.53,-6.89 -10.68,-17.05 -12.5,-30.55zm152.14 38.14l0 -176.16 49.92 0c8.77,0 15.48,0.58 20.13,1.68 6.5,1.44 11.94,4.19 16.34,8.2 4.41,4.06 7.95,9.72 10.62,16.98 2.68,7.26 4,15.26 4,23.99 0,14.92 -3.57,27.6 -10.74,37.93 -7.14,10.37 -20.1,15.54 -38.81,15.54l-33.92 0 0 71.84 -17.54 0zm17.54 -92.51l34.17 0c11.32,0 19.33,-2.78 24.1,-8.4 4.74,-5.62 7.11,-13.49 7.11,-23.7 0,-7.34 -1.39,-13.66 -4.19,-18.91 -2.8,-5.24 -6.49,-8.73 -11.05,-10.41 -2.96,-1.03 -8.4,-1.56 -16.31,-1.56l-33.83 0 0 62.98zm166.21 76.52c-6.04,6.85 -11.85,11.64 -17.42,14.47 -5.58,2.83 -11.55,4.23 -17.95,4.23 -10.52,0 -18.62,-3.41 -24.28,-10.26 -5.67,-6.8 -8.5,-15.54 -8.5,-26.16 0,-6.23 1.08,-11.93 3.2,-17.09 2.16,-5.17 4.96,-9.27 8.41,-12.39 3.47,-3.12 7.35,-5.49 11.69,-7.09 3.2,-1.11 8.04,-2.18 14.47,-3.24 13.11,-2.05 22.81,-4.55 28.99,-7.42 0.06,-2.96 0.09,-4.84 0.09,-5.62 0,-8.78 -1.54,-14.97 -4.61,-18.58 -4.16,-4.88 -10.34,-7.3 -18.53,-7.3 -7.67,0 -13.33,1.81 -16.96,5.38 -3.66,3.56 -6.34,9.88 -8.09,18.98l-15.89 -2.95c1.45,-9.06 3.82,-16.4 7.14,-21.98 3.33,-5.58 8.13,-9.84 14.41,-12.87 6.25,-3 13.54,-4.52 21.79,-4.52 8.19,0 14.86,1.28 20.01,3.86 5.1,2.58 8.89,5.78 11.29,9.67 2.4,3.9 4.09,8.82 5.08,14.77 0.52,3.69 0.8,10.33 0.8,19.89l0 28.7c0,20.05 0.34,32.72 1.01,38.09 0.65,5.37 2.01,10.5 3.98,15.42l-16.99 0c-1.64,-4.55 -2.68,-9.88 -3.14,-15.99zm-1.3 -47.98c-5.91,3.2 -14.77,5.91 -26.59,8.12 -6.71,1.27 -11.45,2.71 -14.22,4.31 -2.77,1.6 -4.89,3.93 -6.4,6.97 -1.51,3.07 -2.28,6.48 -2.28,10.25 0,5.7 1.63,10.5 4.93,14.31 3.29,3.81 8.09,5.74 14.4,5.74 6.25,0 11.82,-1.8 16.71,-5.45 4.87,-3.61 8.47,-8.57 10.75,-14.85 1.75,-4.88 2.61,-12.05 2.61,-21.52l0.09 -7.88zm41.22 63.97l0 -127.69 14.58 0 0 19.56c3.73,-9.06 7.18,-15.05 10.35,-17.92 3.17,-2.91 6.65,-4.35 10.43,-4.35 5.48,0 11.05,2.3 16.71,6.85l-5.78 19.97c-3.94,-2.95 -7.88,-4.43 -11.82,-4.43 -3.54,0 -6.71,1.44 -9.51,4.27 -2.8,2.83 -4.8,6.76 -6,11.81 -1.82,7.66 -2.71,16.07 -2.71,25.22l0 66.71 -16.25 0zm61.74 0l0 -176.16 16.25 0 0 100.34 38.41 -51.87 20.99 0 -36.56 47.44 40.25 80.25 -20 0 -31.83 -65.24 -11.26 14.6 0 50.64 -16.25 0zm146.35 0l0 -176.16 17.54 0 0 72.58 68.33 0 0 -72.58 17.54 0 0 176.16 -17.54 0 0 -82.91 -68.33 0 0 82.91 -17.54 0zm124.5 -63.85c0,-23.57 4.92,-41.04 14.8,-52.4 8.22,-9.43 18.29,-14.15 30.13,-14.15 13.15,0 23.92,5.74 32.29,17.23 8.34,11.44 12.53,27.3 12.53,47.52 0,16.4 -1.85,29.28 -5.54,38.67 -3.69,9.39 -9.08,16.69 -16.16,21.89 -7.05,5.21 -14.77,7.8 -23.12,7.8 -13.42,0 -24.25,-5.7 -32.53,-17.14 -8.28,-11.44 -12.4,-27.93 -12.4,-49.42zm16.62 0.05c0,16.32 2.68,28.53 8.03,36.61 5.39,8.12 12.13,12.18 20.28,12.18 8.07,0 14.78,-4.06 20.16,-12.22 5.36,-8.16 8.04,-20.58 8.04,-37.27 0,-15.75 -2.71,-27.68 -8.1,-35.76 -5.38,-8.12 -12.09,-12.18 -20.1,-12.18 -8.15,0 -14.89,4.02 -20.28,12.1 -5.35,8.08 -8.03,20.26 -8.03,36.54zm127.45 44.49l2.22 19.11c-4.56,1.27 -8.65,1.92 -12.22,1.92 -5.88,0 -10.43,-1.23 -13.7,-3.73 -3.23,-2.5 -5.51,-5.74 -6.83,-9.8 -1.32,-4.06 -1.97,-12.59 -1.97,-25.59l0 -73.56 -12 0 0 -16.73 12 0 0 -31.57 16.25 -13 0 44.57 16.25 0 0 16.73 -16.25 0 0 74.79c0,6.19 0.28,10.17 0.86,11.94 0.56,1.76 1.48,3.15 2.77,4.22 1.3,1.02 3.14,1.56 5.54,1.56 1.79,0 4.16,-0.29 7.08,-0.86zm81.41 -22.02l16.81 2.95c-2.62,13 -7.51,23.12 -14.65,30.3 -7.15,7.18 -16.26,10.79 -27.37,10.79 -13.97,0 -25.05,-5.75 -33.24,-17.23 -8.18,-11.44 -12.28,-27.55 -12.28,-48.26 0,-21.4 4.13,-38.05 12.41,-49.86 8.28,-11.85 19.02,-17.76 32.22,-17.76 12.77,0 23.21,5.79 31.3,17.39 8.1,11.61 12.16,27.92 12.16,48.96 0,1.27 -0.03,3.2 -0.09,5.74l-71.38 0c0.62,13.98 3.57,24.73 8.93,32.15 5.32,7.42 12,11.15 19.97,11.15 5.94,0 11.02,-2.09 15.21,-6.27 4.21,-4.18 7.54,-10.87 10,-20.05zm-53.18 -34.69l53.37 0c-0.71,-10.75 -2.77,-18.78 -6.13,-24.16 -5.14,-8.32 -11.85,-12.5 -20.07,-12.5 -7.44,0 -13.69,3.32 -18.77,9.96 -5.05,6.65 -7.85,15.54 -8.4,26.7zm90.15 76.02l0 -176.16 16.25 0 0 176.16 -16.25 0z"/>
  <path class="fil1" d="M456.74 450.64l0 -157.68 16.59 0 0 64.96 64.64 0 0 -64.96 16.59 0 0 157.68 -16.59 0 0 -74.22 -64.64 0 0 74.22 -16.59 0zm123.53 -114.3l15.37 0 0 87.17 42.71 -87.17 16.5 0 0 114.3 -15.37 0 0 -86.62 -42.65 86.62 -16.56 0 0 -114.3zm152.43 0l0 49.33c4.95,0 8.45,-1.17 10.45,-3.49 2.01,-2.34 4.89,-9.21 8.62,-20.66 3.49,-10.86 6.67,-17.76 9.52,-20.77 2.8,-2.94 7.22,-4.41 13.3,-4.41l5.62 0 0 15.97 -4.16 -0.11c-4.1,0 -6.7,0.77 -7.83,2.27 -1.19,1.58 -3.03,6.28 -5.47,14.1 -2.27,7.49 -4.37,12.62 -6.29,15.52 -1.92,2.87 -4.95,5.47 -9.03,7.86 6.64,2.24 13.1,9.98 19.42,23.27l16.86 35.42 -16.89 0 -16.42 -35.39c-3.35,-7.19 -6.29,-11.89 -8.76,-14.13 -2.5,-2.24 -5.47,-3.34 -8.94,-3.34l0 52.86 -15.72 0 0 -52.86c-3.41,0 -6.35,1.1 -8.82,3.31 -2.5,2.2 -5.42,6.93 -8.73,14.2l-16.57 35.35 -16.88 0 16.79 -35.42c6.38,-13.29 12.9,-21.03 19.54,-23.27 -4.54,-2.65 -7.75,-5.55 -9.55,-8.66 -1.83,-3.12 -4.54,-10.58 -8.18,-22.36 -1.25,-3.96 -2.59,-6.38 -4.02,-7.26 -1.48,-0.92 -3.67,-1.36 -6.58,-1.36 -0.73,0 -2.24,0.03 -4.51,0.11l0 -16.08 2.12 0c5.94,0 10.11,0.44 12.52,1.36 2.42,0.88 4.57,2.79 6.5,5.69 1.89,2.9 4.36,8.92 7.39,18.13 3.7,11.27 6.55,18.1 8.53,20.52 1.98,2.42 5.47,3.63 10.45,3.63l0 -49.33 15.72 0zm62.01 0l15.37 0 0 47.57 42.62 0 0 -47.57 15.38 0 0 114.3 -15.38 0 0 -50.65 -42.62 0 0 50.65 -15.37 0 0 -114.3zm96.45 0l15.37 0 0 87.17 42.71 -87.17 16.51 0 0 114.3 -15.37 0 0 -86.62 -42.65 86.62 -16.57 0 0 -114.3zm97.59 0l15.37 0 0 87.17 42.71 -87.17 16.5 0 0 114.3 -15.37 0 0 -86.62 -42.65 86.62 -16.56 0 0 -114.3zm53.1 -42.28l10.48 0c-0.84,9.07 -3.46,16.04 -7.83,20.88 -4.37,4.89 -10.16,7.31 -17.41,7.31 -7.28,0 -13.1,-2.42 -17.44,-7.23 -4.34,-4.85 -6.96,-11.82 -7.8,-20.96l10.48 0c0.79,4.96 2.39,8.66 4.74,11.08 2.36,2.46 5.56,3.67 9.55,3.67 4.63,0 8.13,-1.17 10.48,-3.55 2.36,-2.35 3.96,-6.1 4.75,-11.2zm95.64 156.58l0 -157.68 16.59 0 0 64.96 64.63 0 0 -64.96 16.59 0 0 157.68 -16.59 0 0 -74.22 -64.63 0 0 74.22 -16.59 0zm117.76 -57.15c0,-21.1 4.65,-36.74 14,-46.91 7.77,-8.44 17.29,-12.66 28.5,-12.66 12.43,0 22.62,5.14 30.54,15.41 7.89,10.24 11.85,24.45 11.85,42.54 0,14.68 -1.75,26.21 -5.24,34.62 -3.49,8.4 -8.59,14.93 -15.28,19.59 -6.67,4.66 -13.98,6.98 -21.87,6.98 -12.69,0 -22.94,-5.1 -30.77,-15.34 -7.83,-10.24 -11.73,-25 -11.73,-44.23zm15.72 0.04c0,14.6 2.53,25.54 7.6,32.77 5.09,7.27 11.47,10.9 19.18,10.9 7.63,0 13.98,-3.63 19.07,-10.94 5.06,-7.3 7.6,-18.42 7.6,-33.36 0,-14.09 -2.56,-24.77 -7.66,-32 -5.09,-7.27 -11.44,-10.91 -19.01,-10.91 -7.71,0 -14.09,3.6 -19.18,10.83 -5.07,7.23 -7.6,18.13 -7.6,32.71zm87.19 -57.19l35.37 0c8.68,0 15.14,0.92 19.39,2.75 4.22,1.84 7.86,5.18 10.89,10.06 3.05,4.92 4.57,10.76 4.57,17.58 0,5.47 -0.9,10.24 -2.68,14.28 -1.8,4.07 -4.48,7.49 -8.09,10.2 4.25,1.8 7.77,5.14 10.59,10.06 2.8,4.88 4.2,10.72 4.2,17.43 -0.56,10.83 -3.64,18.87 -9.2,24.08 -5.56,5.25 -13.66,7.86 -24.25,7.86l-40.79 0 0 -114.3zm15.37 48.23l16.3 0c6.5,0 10.98,-0.44 13.4,-1.28 2.44,-0.89 4.63,-2.61 6.55,-5.25 1.92,-2.61 2.88,-5.76 2.88,-9.43 0,-6.06 -1.69,-10.25 -5.04,-12.63 -3.37,-2.39 -9.14,-3.56 -17.29,-3.56l-16.8 0 0 32.15zm0 50.21l20.18 0c8.67,0 14.64,-1.28 17.87,-3.82 3.23,-2.56 4.92,-6.93 5.1,-13.21 0,-3.63 -0.93,-7.05 -2.8,-10.17 -1.89,-3.12 -4.34,-5.1 -7.33,-5.91 -3,-0.84 -7.84,-1.24 -14.47,-1.24l-18.55 0 0 34.35zm77.44 -98.44l52.23 0 0 16.08 -36.86 0 0 98.22 -15.37 0 0 -114.3zm54.09 57.15c0,-21.1 4.66,-36.74 14,-46.91 7.78,-8.44 17.3,-12.66 28.5,-12.66 12.44,0 22.63,5.14 30.54,15.41 7.89,10.24 11.85,24.45 11.85,42.54 0,14.68 -1.74,26.21 -5.24,34.62 -3.49,8.4 -8.59,14.93 -15.28,19.59 -6.67,4.66 -13.98,6.98 -21.87,6.98 -12.69,0 -22.94,-5.1 -30.77,-15.34 -7.83,-10.24 -11.73,-25 -11.73,-44.23zm15.72 0.04c0,14.6 2.53,25.54 7.6,32.77 5.1,7.27 11.47,10.9 19.18,10.9 7.63,0 13.98,-3.63 19.07,-10.94 5.07,-7.3 7.6,-18.42 7.6,-33.36 0,-14.09 -2.56,-24.77 -7.65,-32 -5.1,-7.27 -11.45,-10.91 -19.02,-10.91 -7.71,0 -14.08,3.6 -19.18,10.83 -5.07,7.23 -7.6,18.13 -7.6,32.71zm87.19 100.93l0 -158.12 13.98 0 0 15.01c3.29,-5.79 7.01,-10.16 11.18,-13.06 4.13,-2.9 9.17,-4.37 15.08,-4.37 7.74,0 14.55,2.5 20.46,7.52 5.91,5 10.37,12.08 13.4,21.18 2.99,9.14 4.51,19.12 4.51,30.02 0,11.64 -1.66,22.14 -4.98,31.5 -3.32,9.32 -8.15,16.48 -14.5,21.47 -6.32,4.95 -12.98,7.45 -19.97,7.45 -5.12,0 -9.72,-1.36 -13.77,-4.07 -4.08,-2.72 -7.39,-6.14 -10.01,-10.28l0 55.75 -15.38 0zm13.98 -100.27c0,14.64 2.36,25.47 7.04,32.48 4.72,7.01 10.43,10.53 17.12,10.53 6.81,0 12.64,-3.63 17.47,-10.9 4.86,-7.27 7.28,-18.5 7.28,-33.73 0,-14.53 -2.36,-25.4 -7.11,-32.63 -4.74,-7.23 -10.39,-10.82 -16.97,-10.82 -6.52,0 -12.28,3.85 -17.29,11.52 -5.04,7.71 -7.54,18.87 -7.54,33.55zm77.41 -0.7c0,-21.1 4.66,-36.74 14,-46.91 7.78,-8.44 17.3,-12.66 28.5,-12.66 12.43,0 22.63,5.14 30.54,15.41 7.89,10.24 11.85,24.45 11.85,42.54 0,14.68 -1.74,26.21 -5.24,34.62 -3.49,8.4 -8.59,14.93 -15.28,19.59 -6.67,4.66 -13.98,6.98 -21.87,6.98 -12.69,0 -22.94,-5.1 -30.77,-15.34 -7.83,-10.24 -11.73,-25 -11.73,-44.23zm15.72 0.04c0,14.6 2.53,25.54 7.6,32.77 5.09,7.27 11.47,10.9 19.18,10.9 7.63,0 13.98,-3.63 19.07,-10.94 5.07,-7.3 7.6,-18.42 7.6,-33.36 0,-14.09 -2.56,-24.77 -7.66,-32 -5.09,-7.27 -11.44,-10.91 -19.01,-10.91 -7.71,0 -14.09,3.6 -19.18,10.83 -5.07,7.23 -7.6,18.13 -7.6,32.71zm95.4 -57.19l63.23 0 0 98.44 9.79 0 0 48.23 -12.58 0 0 -32.37 -71.44 0 0 32.37 -12.58 0 0 -48.23 8.04 0c10.83,-18.53 16.01,-51.35 15.54,-98.44zm12.75 16.08c-1.13,37.11 -5.67,64.56 -13.62,82.36l48.73 0 0 -82.36 -35.11 0z"/>
 </g>
</svg>
