<?xml version="1.0" encoding="UTF-8"?>
<!DOCTYPE svg PUBLIC "-//W3C//DTD SVG 1.1//EN" "http://www.w3.org/Graphics/SVG/1.1/DTD/svg11.dtd">
<!-- Creator: CorelDRAW 2019 (64-Bit) -->
<svg xmlns="http://www.w3.org/2000/svg" xml:space="preserve" width="1833px" height="479px" version="1.1" style="shape-rendering:geometricPrecision; text-rendering:geometricPrecision; image-rendering:optimizeQuality; fill-rule:evenodd; clip-rule:evenodd"
viewBox="0 0 1910.14 499.39"
 xmlns:xlink="http://www.w3.org/1999/xlink">
 <defs>
  <style type="text/css">
   <![CDATA[
    .fil3 {fill:black}
    .fil2 {fill:red}
    .fil1 {fill:#FEFEFE;fill-rule:nonzero}
    .fil4 {fill:black;fill-rule:nonzero}
    .fil0 {fill:#FFCC00;fill-rule:nonzero}
   ]]>
  </style>
 </defs>
 <g id="Слой_x0020_1">
  <metadata id="CorelCorpID_0Corel-Layer"/>
  <path class="fil0" d="M937.83 0l823.79 0c49.38,86.2 99.16,163.68 148.52,249.89 -49.44,80.26 -99.26,169.25 -148.71,249.5l-834.45 0 0 -499.39 10.85 0z"/>
  <polygon class="fil1" points="1748.45,19.39 948.69,19.39 948.69,480 1748.65,480 1885.64,249.51 "/>
  <path class="fil2" d="M87.5 253.53l-50.59 113.63 -36.91 0 55.58 -121.53c-26.13,-13.26 -43.54,-37.3 -43.54,-81.69 0,-62.2 39.38,-93.3 86.26,-93.3l47.68 0 0 296.52 -31.93 0 0 -113.64 -26.55 0 0 0.01zm26.56 -155.96l-17.02 0c-25.72,0 -50.61,17.01 -50.61,66.35 0,47.71 22.81,63.05 50.61,63.05l17 0 0 -129.39 0.02 -0.01z"/>
  <path class="fil3" d="M766.49 262.66c0,-65.53 25.31,-107.41 74.24,-107.41 18.66,0 29.45,4.97 38.57,10.77l-4.56 30.7c-8.71,-7.47 -21.16,-14.52 -34.43,-14.52 -23.22,0 -39.81,26.14 -39.81,78.8 0,52.25 12.44,82.11 38.58,82.11 15.75,0 27.78,-6.22 35.25,-12.84l7.47 24.06c-11.2,9.53 -24.46,15.75 -43.55,15.75 -44.79,0 -71.76,-36.09 -71.76,-107.42zm-94.56 0.42l0 104.1 -32.34 0 0 -209.05 32.35 0 0 96.64 50.18 -96.64 32.77 0 -51.85 98.3 59.31 110.73 -35.25 0 -55.16 -104.09 -0.01 0.01zm-152.19 -19.51l53.49 0c0,-35.64 -5.8,-61.77 -24.45,-61.77 -19.91,0 -26.97,24.45 -29.03,61.77l-0.01 0zm35.67 126.48c-43.12,0 -69.67,-34.41 -69.67,-98.69 0,-67.19 18.65,-116.12 63.02,-116.12 34.84,0 57.65,26.13 57.65,97.05l0 17.82 -87.08 -0.01c0,47.28 13.26,72.17 38.98,72.17 18.25,0 32.75,-8.29 41.07,-14.09l7.46 24.87c-13.27,10.38 -30.7,17.01 -51.42,17.01l-0.01 -0.01zm-137.7 -185.78l-36.07 0 0 3.72c0,43.98 -2.06,108.25 -19.48,152.62l55.55 0 0 -156.34zm48.52 223.96l-29.03 0 0 -41.07 -89.57 0 0 41.07 -29.04 0 0 -67.61 12.86 0c19.08,-44.37 21.15,-109.08 21.15,-164.64l0 -17.85 97.06 0 0 182.49 16.57 0 0 67.61zm-166.28 -250.1l0 209.03 -31.95 0 0 -93.73 -48.1 0 0 93.73 -32.35 0 0 -209.03 32.35 0 0 88.77 48.1 0 0 -88.77 31.95 0z"/>
  <path class="fil4" d="M1087.21 87.03l0 280 -20.77 0 0 -280 -58.58 0 0 -17.04 138.34 0 0 17.04 -58.99 0zm108.43 268.35l0 0c9.7,0 17.93,-3.99 24.72,-12.02 6.77,-8.04 12.11,-17.73 15.98,-29.08l0 -57.74 -22.43 0c-17.44,0 -30.32,4.14 -38.63,12.43 -8.31,8.32 -12.45,21.63 -12.45,39.91 0,14.95 2.96,26.44 8.9,34.48 5.97,8.03 13.94,12.05 23.91,12.05l0 -0.03zm46.52 11.65l0 0c-0.82,-2.76 -1.73,-6.3 -2.69,-10.59 -1.18,-5.83 -1.94,-11.73 -2.29,-17.67 -4.98,9.99 -11.22,17.87 -18.69,23.68 -7.48,5.82 -16.48,8.73 -27,8.73 -14.13,0 -25.62,-5.32 -34.5,-15.97 -8.86,-10.68 -13.28,-25.57 -13.28,-44.67 0,-22.45 5.95,-39.39 17.86,-50.88 11.91,-11.5 29.22,-17.25 51.93,-17.25l22.84 0 0 -26.17c0,-16.07 -2.9,-27.7 -8.72,-34.91 -5.8,-7.2 -14.55,-10.79 -26.17,-10.79 -17.55,-0.09 -34,8.45 -44.04,22.84l-5.4 -18.69c4.15,-5.54 10.46,-10.46 18.9,-14.74 8.45,-4.3 18.64,-6.45 30.54,-6.45 17.45,0 30.81,4.91 40.1,14.75 9.26,9.83 13.9,25.13 13.9,45.9l0 114.25c0,7.2 0.43,14.47 1.25,21.8 0.84,7.34 1.94,12.96 3.33,16.83l-17.87 0zm77.69 0l0 0 -19.52 0 0 -209.38 19.52 0 0 98.46 70.2 -98.46 19.11 0 -68.95 97.22 73.94 112.16 -21.6 0 -72.7 -108.42 0 108.42zm172.4 -12.87l0 0c6.65,0 12.54,-1.1 17.66,-3.33 5.12,-2.23 9.48,-4.84 13.08,-7.9 4.22,-3.09 7.87,-6.9 10.8,-11.22l6.25 16.22c-3.15,4.54 -7.12,8.48 -11.65,11.63 -3.87,3.04 -8.92,5.74 -15.15,8.1 -6.24,2.37 -13.38,3.52 -21.4,3.52 -21.06,0 -37.32,-9.48 -48.81,-28.44 -11.5,-18.98 -17.26,-45.63 -17.26,-79.99 0,-34.6 5.7,-61.47 17.05,-80.59 11.34,-19.11 27.83,-28.66 49.43,-28.66 10.81,0 19.94,1.88 27.44,5.61 7.46,3.73 13.56,8.38 18.26,13.91l-5.4 20.78c-4.75,-6.42 -10.51,-12.03 -17.04,-16.62 -6.65,-4.72 -14.38,-7.06 -23.26,-7.06 -16.05,0 -27.9,8.03 -35.52,24.1 -7.61,16.06 -11.43,38.91 -11.43,68.53 0,28.81 3.74,51.25 11.23,67.32 7.46,16.05 19.39,24.09 35.72,24.09zm175.33 -132.95l0 0c-0.1,-9.58 0.46,-19.15 1.67,-28.66l-1.27 0c-1.34,4.61 -3.01,9.12 -4.98,13.5 -1.94,4.3 -4.02,8.8 -6.22,13.5l-68.16 147.48 -16.61 0 0 -209.38 18.28 0 0 145.4c0.04,9.86 -0.52,19.7 -1.67,29.49l1.25 0c1.38,-4.69 3.05,-9.33 4.98,-13.91 1.93,-4.57 4.03,-9.21 6.23,-13.91l68.14 -147.07 17.05 0 0 209.38 -18.71 0 0 -145.82 0.02 0z"/>
 </g>
</svg>
